M48
; DRILL file {KiCad (5.1.4)-1} date 03/13/22 19:48:05
; FORMAT={-:-/ absolute / inch / decimal}
; #@! TF.CreationDate,2022-03-13T19:48:05-07:00
; #@! TF.GenerationSoftware,Kicad,Pcbnew,(5.1.4)-1
; #@! TF.FileFunction,NonPlated,1,2,NPTH
FMAT,2
INCH
T1C0.0689
T2C0.1570
%
G90
G05
T1
X3.0812Y-3.4375
X3.4812Y-3.4375
X6.8312Y-2.6875
X7.2313Y-2.6875
X6.8312Y-3.4375
X7.2313Y-3.4375
X4.5812Y-1.9375
X4.9813Y-1.9375
X6.0812Y-4.1875
X6.4813Y-4.1875
X6.3318Y-5.3982
X6.7182Y-5.5018
X3.8312Y-4.1875
X4.2313Y-4.1875
X4.5812Y-4.1875
X4.9813Y-4.1875
X3.0812Y-1.9375
X3.4812Y-1.9375
X3.0812Y-2.6875
X3.4812Y-2.6875
X5.3312Y-3.4375
X5.7313Y-3.4375
X3.0812Y-4.1875
X3.4812Y-4.1875
X5.3312Y-1.9375
X5.7313Y-1.9375
X6.8312Y-4.1875
X7.2313Y-4.1875
X3.8312Y-2.6875
X4.2313Y-2.6875
X6.0812Y-2.6875
X6.4813Y-2.6875
X5.6068Y-5.2032
X5.9932Y-5.3068
X3.8312Y-3.4375
X4.2313Y-3.4375
X3.8312Y-1.9375
X4.2313Y-1.9375
X5.3312Y-2.6875
X5.7313Y-2.6875
X6.0812Y-1.9375
X6.4813Y-1.9375
X7.5812Y-1.9375
X7.9813Y-1.9375
X4.5812Y-2.6875
X4.9813Y-2.6875
X6.0812Y-3.4375
X6.4813Y-3.4375
X5.3312Y-4.1875
X5.7313Y-4.1875
X4.8812Y-5.0061
X5.2676Y-5.1096
X4.5812Y-3.4375
X4.9813Y-3.4375
X6.8312Y-1.9375
X7.2313Y-1.9375
T2
X6.2812Y-4.1875
X6.525Y-5.45
X4.0312Y-4.1875
X4.7812Y-4.1875
X3.2812Y-1.9375
X3.2812Y-2.6875
X5.5312Y-3.4375
X3.2812Y-4.1875
X5.5312Y-1.9375
X7.0312Y-4.1875
X4.0312Y-2.6875
X6.2812Y-2.6875
X5.8Y-5.255
X4.0312Y-3.4375
X4.0312Y-1.9375
X5.5312Y-2.6875
X6.2812Y-1.9375
X7.7812Y-1.9375
X4.7812Y-2.6875
X6.2812Y-3.4375
X5.5312Y-4.1875
X5.0744Y-5.0579
X4.7812Y-3.4375
X7.0312Y-1.9375
X3.2812Y-3.4375
X7.0312Y-2.6875
X7.0312Y-3.4375
X4.7812Y-1.9375
T0
M30
