G04 #@! TF.GenerationSoftware,KiCad,Pcbnew,(5.1.4)-1*
G04 #@! TF.CreationDate,2022-03-13T19:48:58-07:00*
G04 #@! TF.ProjectId,Dweebs-Macro-Mini,44776565-6273-42d4-9d61-63726f2d4d69,rev?*
G04 #@! TF.SameCoordinates,Original*
G04 #@! TF.FileFunction,Legend,Bot*
G04 #@! TF.FilePolarity,Positive*
%FSLAX46Y46*%
G04 Gerber Fmt 4.6, Leading zero omitted, Abs format (unit mm)*
G04 Created by KiCad (PCBNEW (5.1.4)-1) date 2022-03-13 19:48:58*
%MOMM*%
%LPD*%
G04 APERTURE LIST*
%ADD10C,0.125000*%
%ADD11C,0.050000*%
%ADD12C,0.150000*%
%ADD13C,0.120000*%
G04 APERTURE END LIST*
D10*
X78013690Y-124273511D02*
X77775595Y-124106845D01*
X78013690Y-123987797D02*
X77513690Y-123987797D01*
X77513690Y-124178273D01*
X77537500Y-124225892D01*
X77561309Y-124249702D01*
X77608928Y-124273511D01*
X77680357Y-124273511D01*
X77727976Y-124249702D01*
X77751785Y-124225892D01*
X77775595Y-124178273D01*
X77775595Y-123987797D01*
X77870833Y-124463988D02*
X77870833Y-124702083D01*
X78013690Y-124416369D02*
X77513690Y-124583035D01*
X78013690Y-124749702D01*
X77513690Y-124868750D02*
X78013690Y-124987797D01*
X77656547Y-125083035D01*
X78013690Y-125178273D01*
X77513690Y-125297321D01*
X77513690Y-134556547D02*
X77513690Y-134842261D01*
X78013690Y-134699404D02*
X77513690Y-134699404D01*
X77513690Y-134961309D02*
X78013690Y-135294642D01*
X77513690Y-135294642D02*
X78013690Y-134961309D01*
D11*
X188118750Y-58737500D02*
X188118750Y-115887500D01*
X207168750Y-58737500D02*
X188118750Y-58737500D01*
X207168750Y-39687500D02*
X207168750Y-58737500D01*
X73818750Y-39687500D02*
X207168750Y-39687500D01*
X73818750Y-150812500D02*
X73818750Y-39687500D01*
X172243750Y-150812500D02*
X73818750Y-150812500D01*
X188118750Y-115887500D02*
X172243750Y-150812500D01*
D12*
X76200000Y-120777000D02*
X106680000Y-120777000D01*
X76200000Y-125857000D02*
X76200000Y-120777000D01*
X73660000Y-125857000D02*
X76200000Y-125857000D01*
X73660000Y-133477000D02*
X73660000Y-125857000D01*
X76200000Y-133477000D02*
X73660000Y-133477000D01*
X76200000Y-138557000D02*
X76200000Y-133477000D01*
X106680000Y-138557000D02*
X76200000Y-138557000D01*
X106680000Y-120777000D02*
X106680000Y-138557000D01*
D13*
X171656250Y-147506250D02*
X171656250Y-143606250D01*
X169656250Y-147506250D02*
X169656250Y-143606250D01*
X171656250Y-147506250D02*
X169656250Y-147506250D01*
X156575000Y-141156250D02*
X156575000Y-137256250D01*
X154575000Y-141156250D02*
X154575000Y-137256250D01*
X156575000Y-141156250D02*
X154575000Y-141156250D01*
X138318750Y-136393750D02*
X138318750Y-132493750D01*
X136318750Y-136393750D02*
X136318750Y-132493750D01*
X138318750Y-136393750D02*
X136318750Y-136393750D01*
X187531250Y-110993750D02*
X187531250Y-107093750D01*
X185531250Y-110993750D02*
X185531250Y-107093750D01*
X187531250Y-110993750D02*
X185531250Y-110993750D01*
X168481250Y-110931250D02*
X168481250Y-107031250D01*
X166481250Y-110931250D02*
X166481250Y-107031250D01*
X168481250Y-110931250D02*
X166481250Y-110931250D01*
X149431250Y-110993750D02*
X149431250Y-107093750D01*
X147431250Y-110993750D02*
X147431250Y-107093750D01*
X149431250Y-110993750D02*
X147431250Y-110993750D01*
X130381250Y-110993750D02*
X130381250Y-107093750D01*
X128381250Y-110993750D02*
X128381250Y-107093750D01*
X130381250Y-110993750D02*
X128381250Y-110993750D01*
X111331250Y-110993750D02*
X111331250Y-107093750D01*
X109331250Y-110993750D02*
X109331250Y-107093750D01*
X111331250Y-110993750D02*
X109331250Y-110993750D01*
X92281250Y-110993750D02*
X92281250Y-107093750D01*
X90281250Y-110993750D02*
X90281250Y-107093750D01*
X92281250Y-110993750D02*
X90281250Y-110993750D01*
X187531250Y-91943750D02*
X187531250Y-88043750D01*
X185531250Y-91943750D02*
X185531250Y-88043750D01*
X187531250Y-91943750D02*
X185531250Y-91943750D01*
X168481250Y-91943750D02*
X168481250Y-88043750D01*
X166481250Y-91943750D02*
X166481250Y-88043750D01*
X168481250Y-91943750D02*
X166481250Y-91943750D01*
X149431250Y-91943750D02*
X149431250Y-88043750D01*
X147431250Y-91943750D02*
X147431250Y-88043750D01*
X149431250Y-91943750D02*
X147431250Y-91943750D01*
X130381250Y-91943750D02*
X130381250Y-88043750D01*
X128381250Y-91943750D02*
X128381250Y-88043750D01*
X130381250Y-91943750D02*
X128381250Y-91943750D01*
X111331250Y-91976250D02*
X111331250Y-88076250D01*
X109331250Y-91976250D02*
X109331250Y-88076250D01*
X111331250Y-91976250D02*
X109331250Y-91976250D01*
X92281250Y-91943750D02*
X92281250Y-88043750D01*
X90281250Y-91943750D02*
X90281250Y-88043750D01*
X92281250Y-91943750D02*
X90281250Y-91943750D01*
X187531250Y-72893750D02*
X187531250Y-68993750D01*
X185531250Y-72893750D02*
X185531250Y-68993750D01*
X187531250Y-72893750D02*
X185531250Y-72893750D01*
X168481250Y-72893750D02*
X168481250Y-68993750D01*
X166481250Y-72893750D02*
X166481250Y-68993750D01*
X168481250Y-72893750D02*
X166481250Y-72893750D01*
X149431250Y-72893750D02*
X149431250Y-68993750D01*
X147431250Y-72893750D02*
X147431250Y-68993750D01*
X149431250Y-72893750D02*
X147431250Y-72893750D01*
X131175000Y-72893750D02*
X131175000Y-68993750D01*
X129175000Y-72893750D02*
X129175000Y-68993750D01*
X131175000Y-72893750D02*
X129175000Y-72893750D01*
X111331250Y-72893750D02*
X111331250Y-68993750D01*
X109331250Y-72893750D02*
X109331250Y-68993750D01*
X111331250Y-72893750D02*
X109331250Y-72893750D01*
X92281250Y-72893750D02*
X92281250Y-68993750D01*
X90281250Y-72893750D02*
X90281250Y-68993750D01*
X92281250Y-72893750D02*
X90281250Y-72893750D01*
X206581250Y-53843750D02*
X206581250Y-49943750D01*
X204581250Y-53843750D02*
X204581250Y-49943750D01*
X206581250Y-53843750D02*
X204581250Y-53843750D01*
X187531250Y-53843750D02*
X187531250Y-49943750D01*
X185531250Y-53843750D02*
X185531250Y-49943750D01*
X187531250Y-53843750D02*
X185531250Y-53843750D01*
X168481250Y-53843750D02*
X168481250Y-49943750D01*
X166481250Y-53843750D02*
X166481250Y-49943750D01*
X168481250Y-53843750D02*
X166481250Y-53843750D01*
X149431250Y-53843750D02*
X149431250Y-49943750D01*
X147431250Y-53843750D02*
X147431250Y-49943750D01*
X149431250Y-53843750D02*
X147431250Y-53843750D01*
X130381250Y-53843750D02*
X130381250Y-49943750D01*
X128381250Y-53843750D02*
X128381250Y-49943750D01*
X130381250Y-53843750D02*
X128381250Y-53843750D01*
X111331250Y-53843750D02*
X111331250Y-49943750D01*
X109331250Y-53843750D02*
X109331250Y-49943750D01*
X111331250Y-53843750D02*
X109331250Y-53843750D01*
X92281250Y-53843750D02*
X92281250Y-49943750D01*
X90281250Y-53843750D02*
X90281250Y-49943750D01*
X92281250Y-53843750D02*
X90281250Y-53843750D01*
D12*
X173108630Y-144041964D02*
X172108630Y-144041964D01*
X172108630Y-144280059D01*
X172156250Y-144422916D01*
X172251488Y-144518154D01*
X172346726Y-144565773D01*
X172537202Y-144613392D01*
X172680059Y-144613392D01*
X172870535Y-144565773D01*
X172965773Y-144518154D01*
X173061011Y-144422916D01*
X173108630Y-144280059D01*
X173108630Y-144041964D01*
X172203869Y-144994345D02*
X172156250Y-145041964D01*
X172108630Y-145137202D01*
X172108630Y-145375297D01*
X172156250Y-145470535D01*
X172203869Y-145518154D01*
X172299107Y-145565773D01*
X172394345Y-145565773D01*
X172537202Y-145518154D01*
X173108630Y-144946726D01*
X173108630Y-145565773D01*
X172537202Y-146137202D02*
X172489583Y-146041964D01*
X172441964Y-145994345D01*
X172346726Y-145946726D01*
X172299107Y-145946726D01*
X172203869Y-145994345D01*
X172156250Y-146041964D01*
X172108630Y-146137202D01*
X172108630Y-146327678D01*
X172156250Y-146422916D01*
X172203869Y-146470535D01*
X172299107Y-146518154D01*
X172346726Y-146518154D01*
X172441964Y-146470535D01*
X172489583Y-146422916D01*
X172537202Y-146327678D01*
X172537202Y-146137202D01*
X172584821Y-146041964D01*
X172632440Y-145994345D01*
X172727678Y-145946726D01*
X172918154Y-145946726D01*
X173013392Y-145994345D01*
X173061011Y-146041964D01*
X173108630Y-146137202D01*
X173108630Y-146327678D01*
X173061011Y-146422916D01*
X173013392Y-146470535D01*
X172918154Y-146518154D01*
X172727678Y-146518154D01*
X172632440Y-146470535D01*
X172584821Y-146422916D01*
X172537202Y-146327678D01*
X158027380Y-137691964D02*
X157027380Y-137691964D01*
X157027380Y-137930059D01*
X157075000Y-138072916D01*
X157170238Y-138168154D01*
X157265476Y-138215773D01*
X157455952Y-138263392D01*
X157598809Y-138263392D01*
X157789285Y-138215773D01*
X157884523Y-138168154D01*
X157979761Y-138072916D01*
X158027380Y-137930059D01*
X158027380Y-137691964D01*
X157122619Y-138644345D02*
X157075000Y-138691964D01*
X157027380Y-138787202D01*
X157027380Y-139025297D01*
X157075000Y-139120535D01*
X157122619Y-139168154D01*
X157217857Y-139215773D01*
X157313095Y-139215773D01*
X157455952Y-139168154D01*
X158027380Y-138596726D01*
X158027380Y-139215773D01*
X157027380Y-139549107D02*
X157027380Y-140215773D01*
X158027380Y-139787202D01*
X139771130Y-132929464D02*
X138771130Y-132929464D01*
X138771130Y-133167559D01*
X138818750Y-133310416D01*
X138913988Y-133405654D01*
X139009226Y-133453273D01*
X139199702Y-133500892D01*
X139342559Y-133500892D01*
X139533035Y-133453273D01*
X139628273Y-133405654D01*
X139723511Y-133310416D01*
X139771130Y-133167559D01*
X139771130Y-132929464D01*
X138866369Y-133881845D02*
X138818750Y-133929464D01*
X138771130Y-134024702D01*
X138771130Y-134262797D01*
X138818750Y-134358035D01*
X138866369Y-134405654D01*
X138961607Y-134453273D01*
X139056845Y-134453273D01*
X139199702Y-134405654D01*
X139771130Y-133834226D01*
X139771130Y-134453273D01*
X138771130Y-135310416D02*
X138771130Y-135119940D01*
X138818750Y-135024702D01*
X138866369Y-134977083D01*
X139009226Y-134881845D01*
X139199702Y-134834226D01*
X139580654Y-134834226D01*
X139675892Y-134881845D01*
X139723511Y-134929464D01*
X139771130Y-135024702D01*
X139771130Y-135215178D01*
X139723511Y-135310416D01*
X139675892Y-135358035D01*
X139580654Y-135405654D01*
X139342559Y-135405654D01*
X139247321Y-135358035D01*
X139199702Y-135310416D01*
X139152083Y-135215178D01*
X139152083Y-135024702D01*
X139199702Y-134929464D01*
X139247321Y-134881845D01*
X139342559Y-134834226D01*
X188983630Y-107529464D02*
X187983630Y-107529464D01*
X187983630Y-107767559D01*
X188031250Y-107910416D01*
X188126488Y-108005654D01*
X188221726Y-108053273D01*
X188412202Y-108100892D01*
X188555059Y-108100892D01*
X188745535Y-108053273D01*
X188840773Y-108005654D01*
X188936011Y-107910416D01*
X188983630Y-107767559D01*
X188983630Y-107529464D01*
X188078869Y-108481845D02*
X188031250Y-108529464D01*
X187983630Y-108624702D01*
X187983630Y-108862797D01*
X188031250Y-108958035D01*
X188078869Y-109005654D01*
X188174107Y-109053273D01*
X188269345Y-109053273D01*
X188412202Y-109005654D01*
X188983630Y-108434226D01*
X188983630Y-109053273D01*
X187983630Y-109958035D02*
X187983630Y-109481845D01*
X188459821Y-109434226D01*
X188412202Y-109481845D01*
X188364583Y-109577083D01*
X188364583Y-109815178D01*
X188412202Y-109910416D01*
X188459821Y-109958035D01*
X188555059Y-110005654D01*
X188793154Y-110005654D01*
X188888392Y-109958035D01*
X188936011Y-109910416D01*
X188983630Y-109815178D01*
X188983630Y-109577083D01*
X188936011Y-109481845D01*
X188888392Y-109434226D01*
X169933630Y-107466964D02*
X168933630Y-107466964D01*
X168933630Y-107705059D01*
X168981250Y-107847916D01*
X169076488Y-107943154D01*
X169171726Y-107990773D01*
X169362202Y-108038392D01*
X169505059Y-108038392D01*
X169695535Y-107990773D01*
X169790773Y-107943154D01*
X169886011Y-107847916D01*
X169933630Y-107705059D01*
X169933630Y-107466964D01*
X169028869Y-108419345D02*
X168981250Y-108466964D01*
X168933630Y-108562202D01*
X168933630Y-108800297D01*
X168981250Y-108895535D01*
X169028869Y-108943154D01*
X169124107Y-108990773D01*
X169219345Y-108990773D01*
X169362202Y-108943154D01*
X169933630Y-108371726D01*
X169933630Y-108990773D01*
X169266964Y-109847916D02*
X169933630Y-109847916D01*
X168886011Y-109609821D02*
X169600297Y-109371726D01*
X169600297Y-109990773D01*
X150883630Y-107529464D02*
X149883630Y-107529464D01*
X149883630Y-107767559D01*
X149931250Y-107910416D01*
X150026488Y-108005654D01*
X150121726Y-108053273D01*
X150312202Y-108100892D01*
X150455059Y-108100892D01*
X150645535Y-108053273D01*
X150740773Y-108005654D01*
X150836011Y-107910416D01*
X150883630Y-107767559D01*
X150883630Y-107529464D01*
X149978869Y-108481845D02*
X149931250Y-108529464D01*
X149883630Y-108624702D01*
X149883630Y-108862797D01*
X149931250Y-108958035D01*
X149978869Y-109005654D01*
X150074107Y-109053273D01*
X150169345Y-109053273D01*
X150312202Y-109005654D01*
X150883630Y-108434226D01*
X150883630Y-109053273D01*
X149883630Y-109386607D02*
X149883630Y-110005654D01*
X150264583Y-109672321D01*
X150264583Y-109815178D01*
X150312202Y-109910416D01*
X150359821Y-109958035D01*
X150455059Y-110005654D01*
X150693154Y-110005654D01*
X150788392Y-109958035D01*
X150836011Y-109910416D01*
X150883630Y-109815178D01*
X150883630Y-109529464D01*
X150836011Y-109434226D01*
X150788392Y-109386607D01*
X130928869Y-109958035D02*
X131928869Y-109958035D01*
X131928869Y-109719940D01*
X131881250Y-109577083D01*
X131786011Y-109481845D01*
X131690773Y-109434226D01*
X131500297Y-109386607D01*
X131357440Y-109386607D01*
X131166964Y-109434226D01*
X131071726Y-109481845D01*
X130976488Y-109577083D01*
X130928869Y-109719940D01*
X130928869Y-109958035D01*
X131833630Y-109005654D02*
X131881250Y-108958035D01*
X131928869Y-108862797D01*
X131928869Y-108624702D01*
X131881250Y-108529464D01*
X131833630Y-108481845D01*
X131738392Y-108434226D01*
X131643154Y-108434226D01*
X131500297Y-108481845D01*
X130928869Y-109053273D01*
X130928869Y-108434226D01*
X131833630Y-108053273D02*
X131881250Y-108005654D01*
X131928869Y-107910416D01*
X131928869Y-107672321D01*
X131881250Y-107577083D01*
X131833630Y-107529464D01*
X131738392Y-107481845D01*
X131643154Y-107481845D01*
X131500297Y-107529464D01*
X130928869Y-108100892D01*
X130928869Y-107481845D01*
X112783630Y-107529464D02*
X111783630Y-107529464D01*
X111783630Y-107767559D01*
X111831250Y-107910416D01*
X111926488Y-108005654D01*
X112021726Y-108053273D01*
X112212202Y-108100892D01*
X112355059Y-108100892D01*
X112545535Y-108053273D01*
X112640773Y-108005654D01*
X112736011Y-107910416D01*
X112783630Y-107767559D01*
X112783630Y-107529464D01*
X111878869Y-108481845D02*
X111831250Y-108529464D01*
X111783630Y-108624702D01*
X111783630Y-108862797D01*
X111831250Y-108958035D01*
X111878869Y-109005654D01*
X111974107Y-109053273D01*
X112069345Y-109053273D01*
X112212202Y-109005654D01*
X112783630Y-108434226D01*
X112783630Y-109053273D01*
X112783630Y-110005654D02*
X112783630Y-109434226D01*
X112783630Y-109719940D02*
X111783630Y-109719940D01*
X111926488Y-109624702D01*
X112021726Y-109529464D01*
X112069345Y-109434226D01*
X93733630Y-107529464D02*
X92733630Y-107529464D01*
X92733630Y-107767559D01*
X92781250Y-107910416D01*
X92876488Y-108005654D01*
X92971726Y-108053273D01*
X93162202Y-108100892D01*
X93305059Y-108100892D01*
X93495535Y-108053273D01*
X93590773Y-108005654D01*
X93686011Y-107910416D01*
X93733630Y-107767559D01*
X93733630Y-107529464D01*
X92828869Y-108481845D02*
X92781250Y-108529464D01*
X92733630Y-108624702D01*
X92733630Y-108862797D01*
X92781250Y-108958035D01*
X92828869Y-109005654D01*
X92924107Y-109053273D01*
X93019345Y-109053273D01*
X93162202Y-109005654D01*
X93733630Y-108434226D01*
X93733630Y-109053273D01*
X92733630Y-109672321D02*
X92733630Y-109767559D01*
X92781250Y-109862797D01*
X92828869Y-109910416D01*
X92924107Y-109958035D01*
X93114583Y-110005654D01*
X93352678Y-110005654D01*
X93543154Y-109958035D01*
X93638392Y-109910416D01*
X93686011Y-109862797D01*
X93733630Y-109767559D01*
X93733630Y-109672321D01*
X93686011Y-109577083D01*
X93638392Y-109529464D01*
X93543154Y-109481845D01*
X93352678Y-109434226D01*
X93114583Y-109434226D01*
X92924107Y-109481845D01*
X92828869Y-109529464D01*
X92781250Y-109577083D01*
X92733630Y-109672321D01*
X188983630Y-88479464D02*
X187983630Y-88479464D01*
X187983630Y-88717559D01*
X188031250Y-88860416D01*
X188126488Y-88955654D01*
X188221726Y-89003273D01*
X188412202Y-89050892D01*
X188555059Y-89050892D01*
X188745535Y-89003273D01*
X188840773Y-88955654D01*
X188936011Y-88860416D01*
X188983630Y-88717559D01*
X188983630Y-88479464D01*
X188983630Y-90003273D02*
X188983630Y-89431845D01*
X188983630Y-89717559D02*
X187983630Y-89717559D01*
X188126488Y-89622321D01*
X188221726Y-89527083D01*
X188269345Y-89431845D01*
X188983630Y-90479464D02*
X188983630Y-90669940D01*
X188936011Y-90765178D01*
X188888392Y-90812797D01*
X188745535Y-90908035D01*
X188555059Y-90955654D01*
X188174107Y-90955654D01*
X188078869Y-90908035D01*
X188031250Y-90860416D01*
X187983630Y-90765178D01*
X187983630Y-90574702D01*
X188031250Y-90479464D01*
X188078869Y-90431845D01*
X188174107Y-90384226D01*
X188412202Y-90384226D01*
X188507440Y-90431845D01*
X188555059Y-90479464D01*
X188602678Y-90574702D01*
X188602678Y-90765178D01*
X188555059Y-90860416D01*
X188507440Y-90908035D01*
X188412202Y-90955654D01*
X169933630Y-88479464D02*
X168933630Y-88479464D01*
X168933630Y-88717559D01*
X168981250Y-88860416D01*
X169076488Y-88955654D01*
X169171726Y-89003273D01*
X169362202Y-89050892D01*
X169505059Y-89050892D01*
X169695535Y-89003273D01*
X169790773Y-88955654D01*
X169886011Y-88860416D01*
X169933630Y-88717559D01*
X169933630Y-88479464D01*
X169933630Y-90003273D02*
X169933630Y-89431845D01*
X169933630Y-89717559D02*
X168933630Y-89717559D01*
X169076488Y-89622321D01*
X169171726Y-89527083D01*
X169219345Y-89431845D01*
X169362202Y-90574702D02*
X169314583Y-90479464D01*
X169266964Y-90431845D01*
X169171726Y-90384226D01*
X169124107Y-90384226D01*
X169028869Y-90431845D01*
X168981250Y-90479464D01*
X168933630Y-90574702D01*
X168933630Y-90765178D01*
X168981250Y-90860416D01*
X169028869Y-90908035D01*
X169124107Y-90955654D01*
X169171726Y-90955654D01*
X169266964Y-90908035D01*
X169314583Y-90860416D01*
X169362202Y-90765178D01*
X169362202Y-90574702D01*
X169409821Y-90479464D01*
X169457440Y-90431845D01*
X169552678Y-90384226D01*
X169743154Y-90384226D01*
X169838392Y-90431845D01*
X169886011Y-90479464D01*
X169933630Y-90574702D01*
X169933630Y-90765178D01*
X169886011Y-90860416D01*
X169838392Y-90908035D01*
X169743154Y-90955654D01*
X169552678Y-90955654D01*
X169457440Y-90908035D01*
X169409821Y-90860416D01*
X169362202Y-90765178D01*
X150883630Y-88479464D02*
X149883630Y-88479464D01*
X149883630Y-88717559D01*
X149931250Y-88860416D01*
X150026488Y-88955654D01*
X150121726Y-89003273D01*
X150312202Y-89050892D01*
X150455059Y-89050892D01*
X150645535Y-89003273D01*
X150740773Y-88955654D01*
X150836011Y-88860416D01*
X150883630Y-88717559D01*
X150883630Y-88479464D01*
X150883630Y-90003273D02*
X150883630Y-89431845D01*
X150883630Y-89717559D02*
X149883630Y-89717559D01*
X150026488Y-89622321D01*
X150121726Y-89527083D01*
X150169345Y-89431845D01*
X149883630Y-90336607D02*
X149883630Y-91003273D01*
X150883630Y-90574702D01*
X131833630Y-88479464D02*
X130833630Y-88479464D01*
X130833630Y-88717559D01*
X130881250Y-88860416D01*
X130976488Y-88955654D01*
X131071726Y-89003273D01*
X131262202Y-89050892D01*
X131405059Y-89050892D01*
X131595535Y-89003273D01*
X131690773Y-88955654D01*
X131786011Y-88860416D01*
X131833630Y-88717559D01*
X131833630Y-88479464D01*
X131833630Y-90003273D02*
X131833630Y-89431845D01*
X131833630Y-89717559D02*
X130833630Y-89717559D01*
X130976488Y-89622321D01*
X131071726Y-89527083D01*
X131119345Y-89431845D01*
X130833630Y-90860416D02*
X130833630Y-90669940D01*
X130881250Y-90574702D01*
X130928869Y-90527083D01*
X131071726Y-90431845D01*
X131262202Y-90384226D01*
X131643154Y-90384226D01*
X131738392Y-90431845D01*
X131786011Y-90479464D01*
X131833630Y-90574702D01*
X131833630Y-90765178D01*
X131786011Y-90860416D01*
X131738392Y-90908035D01*
X131643154Y-90955654D01*
X131405059Y-90955654D01*
X131309821Y-90908035D01*
X131262202Y-90860416D01*
X131214583Y-90765178D01*
X131214583Y-90574702D01*
X131262202Y-90479464D01*
X131309821Y-90431845D01*
X131405059Y-90384226D01*
X112783630Y-88511964D02*
X111783630Y-88511964D01*
X111783630Y-88750059D01*
X111831250Y-88892916D01*
X111926488Y-88988154D01*
X112021726Y-89035773D01*
X112212202Y-89083392D01*
X112355059Y-89083392D01*
X112545535Y-89035773D01*
X112640773Y-88988154D01*
X112736011Y-88892916D01*
X112783630Y-88750059D01*
X112783630Y-88511964D01*
X112783630Y-90035773D02*
X112783630Y-89464345D01*
X112783630Y-89750059D02*
X111783630Y-89750059D01*
X111926488Y-89654821D01*
X112021726Y-89559583D01*
X112069345Y-89464345D01*
X111783630Y-90940535D02*
X111783630Y-90464345D01*
X112259821Y-90416726D01*
X112212202Y-90464345D01*
X112164583Y-90559583D01*
X112164583Y-90797678D01*
X112212202Y-90892916D01*
X112259821Y-90940535D01*
X112355059Y-90988154D01*
X112593154Y-90988154D01*
X112688392Y-90940535D01*
X112736011Y-90892916D01*
X112783630Y-90797678D01*
X112783630Y-90559583D01*
X112736011Y-90464345D01*
X112688392Y-90416726D01*
X93733630Y-88479464D02*
X92733630Y-88479464D01*
X92733630Y-88717559D01*
X92781250Y-88860416D01*
X92876488Y-88955654D01*
X92971726Y-89003273D01*
X93162202Y-89050892D01*
X93305059Y-89050892D01*
X93495535Y-89003273D01*
X93590773Y-88955654D01*
X93686011Y-88860416D01*
X93733630Y-88717559D01*
X93733630Y-88479464D01*
X93733630Y-90003273D02*
X93733630Y-89431845D01*
X93733630Y-89717559D02*
X92733630Y-89717559D01*
X92876488Y-89622321D01*
X92971726Y-89527083D01*
X93019345Y-89431845D01*
X93066964Y-90860416D02*
X93733630Y-90860416D01*
X92686011Y-90622321D02*
X93400297Y-90384226D01*
X93400297Y-91003273D01*
X188983630Y-69429464D02*
X187983630Y-69429464D01*
X187983630Y-69667559D01*
X188031250Y-69810416D01*
X188126488Y-69905654D01*
X188221726Y-69953273D01*
X188412202Y-70000892D01*
X188555059Y-70000892D01*
X188745535Y-69953273D01*
X188840773Y-69905654D01*
X188936011Y-69810416D01*
X188983630Y-69667559D01*
X188983630Y-69429464D01*
X188983630Y-70953273D02*
X188983630Y-70381845D01*
X188983630Y-70667559D02*
X187983630Y-70667559D01*
X188126488Y-70572321D01*
X188221726Y-70477083D01*
X188269345Y-70381845D01*
X187983630Y-71286607D02*
X187983630Y-71905654D01*
X188364583Y-71572321D01*
X188364583Y-71715178D01*
X188412202Y-71810416D01*
X188459821Y-71858035D01*
X188555059Y-71905654D01*
X188793154Y-71905654D01*
X188888392Y-71858035D01*
X188936011Y-71810416D01*
X188983630Y-71715178D01*
X188983630Y-71429464D01*
X188936011Y-71334226D01*
X188888392Y-71286607D01*
X169933630Y-69429464D02*
X168933630Y-69429464D01*
X168933630Y-69667559D01*
X168981250Y-69810416D01*
X169076488Y-69905654D01*
X169171726Y-69953273D01*
X169362202Y-70000892D01*
X169505059Y-70000892D01*
X169695535Y-69953273D01*
X169790773Y-69905654D01*
X169886011Y-69810416D01*
X169933630Y-69667559D01*
X169933630Y-69429464D01*
X169933630Y-70953273D02*
X169933630Y-70381845D01*
X169933630Y-70667559D02*
X168933630Y-70667559D01*
X169076488Y-70572321D01*
X169171726Y-70477083D01*
X169219345Y-70381845D01*
X169028869Y-71334226D02*
X168981250Y-71381845D01*
X168933630Y-71477083D01*
X168933630Y-71715178D01*
X168981250Y-71810416D01*
X169028869Y-71858035D01*
X169124107Y-71905654D01*
X169219345Y-71905654D01*
X169362202Y-71858035D01*
X169933630Y-71286607D01*
X169933630Y-71905654D01*
X150883630Y-69429464D02*
X149883630Y-69429464D01*
X149883630Y-69667559D01*
X149931250Y-69810416D01*
X150026488Y-69905654D01*
X150121726Y-69953273D01*
X150312202Y-70000892D01*
X150455059Y-70000892D01*
X150645535Y-69953273D01*
X150740773Y-69905654D01*
X150836011Y-69810416D01*
X150883630Y-69667559D01*
X150883630Y-69429464D01*
X150883630Y-70953273D02*
X150883630Y-70381845D01*
X150883630Y-70667559D02*
X149883630Y-70667559D01*
X150026488Y-70572321D01*
X150121726Y-70477083D01*
X150169345Y-70381845D01*
X150883630Y-71905654D02*
X150883630Y-71334226D01*
X150883630Y-71619940D02*
X149883630Y-71619940D01*
X150026488Y-71524702D01*
X150121726Y-71429464D01*
X150169345Y-71334226D01*
X132627380Y-69429464D02*
X131627380Y-69429464D01*
X131627380Y-69667559D01*
X131675000Y-69810416D01*
X131770238Y-69905654D01*
X131865476Y-69953273D01*
X132055952Y-70000892D01*
X132198809Y-70000892D01*
X132389285Y-69953273D01*
X132484523Y-69905654D01*
X132579761Y-69810416D01*
X132627380Y-69667559D01*
X132627380Y-69429464D01*
X132627380Y-70953273D02*
X132627380Y-70381845D01*
X132627380Y-70667559D02*
X131627380Y-70667559D01*
X131770238Y-70572321D01*
X131865476Y-70477083D01*
X131913095Y-70381845D01*
X131627380Y-71572321D02*
X131627380Y-71667559D01*
X131675000Y-71762797D01*
X131722619Y-71810416D01*
X131817857Y-71858035D01*
X132008333Y-71905654D01*
X132246428Y-71905654D01*
X132436904Y-71858035D01*
X132532142Y-71810416D01*
X132579761Y-71762797D01*
X132627380Y-71667559D01*
X132627380Y-71572321D01*
X132579761Y-71477083D01*
X132532142Y-71429464D01*
X132436904Y-71381845D01*
X132246428Y-71334226D01*
X132008333Y-71334226D01*
X131817857Y-71381845D01*
X131722619Y-71429464D01*
X131675000Y-71477083D01*
X131627380Y-71572321D01*
X112783630Y-69905654D02*
X111783630Y-69905654D01*
X111783630Y-70143750D01*
X111831250Y-70286607D01*
X111926488Y-70381845D01*
X112021726Y-70429464D01*
X112212202Y-70477083D01*
X112355059Y-70477083D01*
X112545535Y-70429464D01*
X112640773Y-70381845D01*
X112736011Y-70286607D01*
X112783630Y-70143750D01*
X112783630Y-69905654D01*
X112783630Y-70953273D02*
X112783630Y-71143750D01*
X112736011Y-71238988D01*
X112688392Y-71286607D01*
X112545535Y-71381845D01*
X112355059Y-71429464D01*
X111974107Y-71429464D01*
X111878869Y-71381845D01*
X111831250Y-71334226D01*
X111783630Y-71238988D01*
X111783630Y-71048511D01*
X111831250Y-70953273D01*
X111878869Y-70905654D01*
X111974107Y-70858035D01*
X112212202Y-70858035D01*
X112307440Y-70905654D01*
X112355059Y-70953273D01*
X112402678Y-71048511D01*
X112402678Y-71238988D01*
X112355059Y-71334226D01*
X112307440Y-71381845D01*
X112212202Y-71429464D01*
X93733630Y-69905654D02*
X92733630Y-69905654D01*
X92733630Y-70143750D01*
X92781250Y-70286607D01*
X92876488Y-70381845D01*
X92971726Y-70429464D01*
X93162202Y-70477083D01*
X93305059Y-70477083D01*
X93495535Y-70429464D01*
X93590773Y-70381845D01*
X93686011Y-70286607D01*
X93733630Y-70143750D01*
X93733630Y-69905654D01*
X93162202Y-71048511D02*
X93114583Y-70953273D01*
X93066964Y-70905654D01*
X92971726Y-70858035D01*
X92924107Y-70858035D01*
X92828869Y-70905654D01*
X92781250Y-70953273D01*
X92733630Y-71048511D01*
X92733630Y-71238988D01*
X92781250Y-71334226D01*
X92828869Y-71381845D01*
X92924107Y-71429464D01*
X92971726Y-71429464D01*
X93066964Y-71381845D01*
X93114583Y-71334226D01*
X93162202Y-71238988D01*
X93162202Y-71048511D01*
X93209821Y-70953273D01*
X93257440Y-70905654D01*
X93352678Y-70858035D01*
X93543154Y-70858035D01*
X93638392Y-70905654D01*
X93686011Y-70953273D01*
X93733630Y-71048511D01*
X93733630Y-71238988D01*
X93686011Y-71334226D01*
X93638392Y-71381845D01*
X93543154Y-71429464D01*
X93352678Y-71429464D01*
X93257440Y-71381845D01*
X93209821Y-71334226D01*
X93162202Y-71238988D01*
X208033630Y-50855654D02*
X207033630Y-50855654D01*
X207033630Y-51093750D01*
X207081250Y-51236607D01*
X207176488Y-51331845D01*
X207271726Y-51379464D01*
X207462202Y-51427083D01*
X207605059Y-51427083D01*
X207795535Y-51379464D01*
X207890773Y-51331845D01*
X207986011Y-51236607D01*
X208033630Y-51093750D01*
X208033630Y-50855654D01*
X207033630Y-51760416D02*
X207033630Y-52427083D01*
X208033630Y-51998511D01*
X188983630Y-50855654D02*
X187983630Y-50855654D01*
X187983630Y-51093750D01*
X188031250Y-51236607D01*
X188126488Y-51331845D01*
X188221726Y-51379464D01*
X188412202Y-51427083D01*
X188555059Y-51427083D01*
X188745535Y-51379464D01*
X188840773Y-51331845D01*
X188936011Y-51236607D01*
X188983630Y-51093750D01*
X188983630Y-50855654D01*
X187983630Y-52284226D02*
X187983630Y-52093750D01*
X188031250Y-51998511D01*
X188078869Y-51950892D01*
X188221726Y-51855654D01*
X188412202Y-51808035D01*
X188793154Y-51808035D01*
X188888392Y-51855654D01*
X188936011Y-51903273D01*
X188983630Y-51998511D01*
X188983630Y-52188988D01*
X188936011Y-52284226D01*
X188888392Y-52331845D01*
X188793154Y-52379464D01*
X188555059Y-52379464D01*
X188459821Y-52331845D01*
X188412202Y-52284226D01*
X188364583Y-52188988D01*
X188364583Y-51998511D01*
X188412202Y-51903273D01*
X188459821Y-51855654D01*
X188555059Y-51808035D01*
X169933630Y-50855654D02*
X168933630Y-50855654D01*
X168933630Y-51093750D01*
X168981250Y-51236607D01*
X169076488Y-51331845D01*
X169171726Y-51379464D01*
X169362202Y-51427083D01*
X169505059Y-51427083D01*
X169695535Y-51379464D01*
X169790773Y-51331845D01*
X169886011Y-51236607D01*
X169933630Y-51093750D01*
X169933630Y-50855654D01*
X168933630Y-52331845D02*
X168933630Y-51855654D01*
X169409821Y-51808035D01*
X169362202Y-51855654D01*
X169314583Y-51950892D01*
X169314583Y-52188988D01*
X169362202Y-52284226D01*
X169409821Y-52331845D01*
X169505059Y-52379464D01*
X169743154Y-52379464D01*
X169838392Y-52331845D01*
X169886011Y-52284226D01*
X169933630Y-52188988D01*
X169933630Y-51950892D01*
X169886011Y-51855654D01*
X169838392Y-51808035D01*
X150883630Y-50855654D02*
X149883630Y-50855654D01*
X149883630Y-51093750D01*
X149931250Y-51236607D01*
X150026488Y-51331845D01*
X150121726Y-51379464D01*
X150312202Y-51427083D01*
X150455059Y-51427083D01*
X150645535Y-51379464D01*
X150740773Y-51331845D01*
X150836011Y-51236607D01*
X150883630Y-51093750D01*
X150883630Y-50855654D01*
X150216964Y-52284226D02*
X150883630Y-52284226D01*
X149836011Y-52046130D02*
X150550297Y-51808035D01*
X150550297Y-52427083D01*
X131833630Y-50855654D02*
X130833630Y-50855654D01*
X130833630Y-51093750D01*
X130881250Y-51236607D01*
X130976488Y-51331845D01*
X131071726Y-51379464D01*
X131262202Y-51427083D01*
X131405059Y-51427083D01*
X131595535Y-51379464D01*
X131690773Y-51331845D01*
X131786011Y-51236607D01*
X131833630Y-51093750D01*
X131833630Y-50855654D01*
X130833630Y-51760416D02*
X130833630Y-52379464D01*
X131214583Y-52046130D01*
X131214583Y-52188988D01*
X131262202Y-52284226D01*
X131309821Y-52331845D01*
X131405059Y-52379464D01*
X131643154Y-52379464D01*
X131738392Y-52331845D01*
X131786011Y-52284226D01*
X131833630Y-52188988D01*
X131833630Y-51903273D01*
X131786011Y-51808035D01*
X131738392Y-51760416D01*
X112783630Y-50855654D02*
X111783630Y-50855654D01*
X111783630Y-51093750D01*
X111831250Y-51236607D01*
X111926488Y-51331845D01*
X112021726Y-51379464D01*
X112212202Y-51427083D01*
X112355059Y-51427083D01*
X112545535Y-51379464D01*
X112640773Y-51331845D01*
X112736011Y-51236607D01*
X112783630Y-51093750D01*
X112783630Y-50855654D01*
X111878869Y-51808035D02*
X111831250Y-51855654D01*
X111783630Y-51950892D01*
X111783630Y-52188988D01*
X111831250Y-52284226D01*
X111878869Y-52331845D01*
X111974107Y-52379464D01*
X112069345Y-52379464D01*
X112212202Y-52331845D01*
X112783630Y-51760416D01*
X112783630Y-52379464D01*
X93733630Y-50855654D02*
X92733630Y-50855654D01*
X92733630Y-51093750D01*
X92781250Y-51236607D01*
X92876488Y-51331845D01*
X92971726Y-51379464D01*
X93162202Y-51427083D01*
X93305059Y-51427083D01*
X93495535Y-51379464D01*
X93590773Y-51331845D01*
X93686011Y-51236607D01*
X93733630Y-51093750D01*
X93733630Y-50855654D01*
X93733630Y-52379464D02*
X93733630Y-51808035D01*
X93733630Y-52093750D02*
X92733630Y-52093750D01*
X92876488Y-51998511D01*
X92971726Y-51903273D01*
X93019345Y-51808035D01*
M02*
