M48
; DRILL file {KiCad (5.1.4)-1} date 03/13/22 19:48:05
; FORMAT={-:-/ absolute / inch / decimal}
; #@! TF.CreationDate,2022-03-13T19:48:05-07:00
; #@! TF.GenerationSoftware,Kicad,Pcbnew,(5.1.4)-1
; #@! TF.FileFunction,Plated,1,2,PTH
FMAT,2
INCH
T1C0.0433
T2C0.0579
%
G90
G05
T1
X3.05Y-4.805
X3.05Y-5.405
X3.15Y-4.805
X3.15Y-5.405
X3.25Y-4.805
X3.25Y-5.405
X3.35Y-4.805
X3.35Y-5.405
X3.45Y-4.805
X3.45Y-5.405
X3.55Y-4.805
X3.55Y-5.405
X3.65Y-4.805
X3.65Y-5.405
X3.75Y-4.805
X3.75Y-5.405
X3.85Y-4.805
X3.85Y-5.405
X3.95Y-4.805
X3.95Y-5.405
X4.05Y-4.805
X4.05Y-5.405
X4.15Y-4.805
X4.15Y-5.405
T2
X3.1313Y-3.3375
X3.1828Y-3.28
X3.3797Y-3.2603
X3.3813Y-3.2375
X6.8812Y-2.5875
X6.9328Y-2.53
X7.1297Y-2.5103
X7.1312Y-2.4875
X6.8812Y-3.3375
X6.9328Y-3.28
X7.1297Y-3.2603
X7.1312Y-3.2375
X4.6312Y-1.8375
X4.6828Y-1.78
X4.8797Y-1.7603
X4.8812Y-1.7375
X6.1312Y-4.0875
X6.1828Y-4.03
X6.3797Y-4.0103
X6.3812Y-3.9875
X6.406Y-5.3146
X6.4707Y-5.2724
X6.6659Y-5.3043
X6.6734Y-5.2827
X3.8813Y-4.0875
X3.9328Y-4.03
X4.1297Y-4.0103
X4.1312Y-3.9875
X4.6312Y-4.0875
X4.6828Y-4.03
X4.8797Y-4.0103
X4.8812Y-3.9875
X3.1313Y-1.8375
X3.1828Y-1.78
X3.3797Y-1.7603
X3.3813Y-1.7375
X3.1313Y-2.5875
X3.1828Y-2.53
X3.3797Y-2.5103
X3.3813Y-2.4875
X5.3812Y-3.3375
X5.4328Y-3.28
X5.6297Y-3.2603
X5.6312Y-3.2375
X3.1313Y-4.0875
X3.1828Y-4.03
X3.3797Y-4.0103
X3.3813Y-3.9875
X5.3812Y-1.8375
X5.4328Y-1.78
X5.6297Y-1.7603
X5.6312Y-1.7375
X6.8812Y-4.0875
X6.9328Y-4.03
X7.1297Y-4.0103
X7.1312Y-3.9875
X3.8813Y-2.5875
X3.9328Y-2.53
X4.1297Y-2.5103
X4.1312Y-2.4875
X6.1312Y-2.5875
X6.1828Y-2.53
X6.3797Y-2.5103
X6.3812Y-2.4875
X5.681Y-5.1196
X5.7457Y-5.0774
X5.9409Y-5.1093
X5.9484Y-5.0877
X3.8813Y-3.3375
X3.9328Y-3.28
X4.1297Y-3.2603
X4.1312Y-3.2375
X3.8813Y-1.8375
X3.9328Y-1.78
X4.1297Y-1.7603
X4.1312Y-1.7375
X5.3812Y-2.5875
X5.4328Y-2.53
X5.6297Y-2.5103
X5.6312Y-2.4875
X6.1312Y-1.8375
X6.1828Y-1.78
X6.3797Y-1.7603
X6.3812Y-1.7375
X7.6312Y-1.8375
X7.6828Y-1.78
X7.8797Y-1.7603
X7.8812Y-1.7375
X4.6312Y-2.5875
X4.6828Y-2.53
X4.8797Y-2.5103
X4.8812Y-2.4875
X6.1312Y-3.3375
X6.1828Y-3.28
X6.3797Y-3.2603
X6.3812Y-3.2375
X5.3812Y-4.0875
X5.4328Y-4.03
X5.6297Y-4.0103
X5.6312Y-3.9875
X4.9554Y-4.9225
X5.0201Y-4.8803
X5.2153Y-4.9122
X5.2228Y-4.8906
X4.6312Y-3.3375
X4.6828Y-3.28
X4.8797Y-3.2603
X4.8812Y-3.2375
X6.8812Y-1.8375
X6.9328Y-1.78
X7.1297Y-1.7603
X7.1312Y-1.7375
T0
M30
