  0
SECTION
  2
HEADER
  9
$ACADVER
  1
AC1009
  9
$EXTMIN
 10
0.0
 20
0.0
 30
0.0
  9
$EXTMAX
 10
1000.0
 20
1000.0
 30
0.0
  9
$FILLMODE
 70
 0
  9
$SPLFRAME
 70
 1
  0
ENDSEC
  0
SECTION
  2
TABLES
  0
TABLE
  2
LAYER
 70
1
  0
LAYER
  2
0
 70
     0
 62
     7
  6
CONTINUOUS
  0
ENDTAB
  0
ENDSEC
  0
SECTION
  2
ENTITIES
  0
LINE
  8
0
 62
     0
 10
0.0950846
 20
110.677
 30
0.0
 11
133.445
 21
110.677
 31
0.0
  0
LINE
  8
0
 62
     0
 10
133.445
 20
110.677
 30
0.0
 11
133.445
 21
0.424438
 31
0.0
  0
LINE
  8
0
 62
     0
 10
133.445
 20
0.424438
 30
0.0
 11
0.0950846
 21
0.424438
 31
0.0
  0
LINE
  8
0
 62
     0
 10
0.0950846
 20
0.424438
 30
0.0
 11
0.0950846
 21
110.677
 31
0.0
  0
LINE
  8
0
 62
     0
 10
83.4362
 20
7.14237
 30
0.0
 11
96.9603
 21
3.51813
 31
0.0
  0
LINE
  8
0
 62
     0
 10
96.9603
 20
3.51813
 30
0.0
 11
100.583
 21
17.0422
 31
0.0
  0
LINE
  8
0
 62
     0
 10
100.583
 20
17.0422
 30
0.0
 11
87.0603
 21
20.6651
 31
0.0
  0
LINE
  8
0
 62
     0
 10
87.0603
 20
20.6651
 30
0.0
 11
83.4362
 21
7.14237
 31
0.0
  0
LINE
  8
0
 62
     0
 10
65.0353
 20
12.073
 30
0.0
 11
78.558
 21
8.44875
 31
0.0
  0
LINE
  8
0
 62
     0
 10
78.558
 20
8.44875
 30
0.0
 11
82.1821
 21
21.9715
 31
0.0
  0
LINE
  8
0
 62
     0
 10
82.1821
 20
21.9715
 30
0.0
 11
68.6594
 21
25.5957
 31
0.0
  0
LINE
  8
0
 62
     0
 10
68.6594
 20
25.5957
 30
0.0
 11
65.0353
 21
12.073
 31
0.0
  0
LINE
  8
0
 62
     0
 10
46.634
 20
17.0022
 30
0.0
 11
60.1567
 21
13.3794
 31
0.0
  0
LINE
  8
0
 62
     0
 10
60.1567
 20
13.3794
 30
0.0
 11
63.7812
 21
26.9021
 31
0.0
  0
LINE
  8
0
 62
     0
 10
63.7812
 20
26.9021
 30
0.0
 11
50.2585
 21
30.5263
 31
0.0
  0
LINE
  8
0
 62
     0
 10
50.2585
 20
30.5263
 30
0.0
 11
46.634
 21
17.0022
 31
0.0
  0
LINE
  8
0
 62
     0
 10
97.8683
 20
51.0025
 30
0.0
 11
111.869
 21
51.0025
 31
0.0
  0
LINE
  8
0
 62
     0
 10
111.869
 20
51.0025
 30
0.0
 11
111.869
 21
37.0032
 31
0.0
  0
LINE
  8
0
 62
     0
 10
111.869
 20
37.0032
 30
0.0
 11
97.8683
 21
37.0032
 31
0.0
  0
LINE
  8
0
 62
     0
 10
97.8683
 20
37.0032
 30
0.0
 11
97.8683
 21
51.0025
 31
0.0
  0
LINE
  8
0
 62
     0
 10
78.8197
 20
51.0025
 30
0.0
 11
92.819
 21
51.0025
 31
0.0
  0
LINE
  8
0
 62
     0
 10
92.819
 20
51.0025
 30
0.0
 11
92.819
 21
37.0032
 31
0.0
  0
LINE
  8
0
 62
     0
 10
92.819
 20
37.0032
 30
0.0
 11
78.8197
 21
37.0032
 31
0.0
  0
LINE
  8
0
 62
     0
 10
78.8197
 20
37.0032
 30
0.0
 11
78.8197
 21
51.0025
 31
0.0
  0
LINE
  8
0
 62
     0
 10
59.7697
 20
51.0025
 30
0.0
 11
73.769
 21
51.0025
 31
0.0
  0
LINE
  8
0
 62
     0
 10
73.769
 20
51.0025
 30
0.0
 11
73.769
 21
37.0032
 31
0.0
  0
LINE
  8
0
 62
     0
 10
73.769
 20
37.0032
 30
0.0
 11
59.7697
 21
37.0032
 31
0.0
  0
LINE
  8
0
 62
     0
 10
59.7697
 20
37.0032
 30
0.0
 11
59.7697
 21
51.0025
 31
0.0
  0
LINE
  8
0
 62
     0
 10
40.7197
 20
51.0025
 30
0.0
 11
54.719
 21
51.0025
 31
0.0
  0
LINE
  8
0
 62
     0
 10
54.719
 20
51.0025
 30
0.0
 11
54.719
 21
37.0032
 31
0.0
  0
LINE
  8
0
 62
     0
 10
54.719
 20
37.0032
 30
0.0
 11
40.7197
 21
37.0032
 31
0.0
  0
LINE
  8
0
 62
     0
 10
40.7197
 20
37.0032
 30
0.0
 11
40.7197
 21
51.0025
 31
0.0
  0
LINE
  8
0
 62
     0
 10
21.6697
 20
51.0025
 30
0.0
 11
35.669
 21
51.0025
 31
0.0
  0
LINE
  8
0
 62
     0
 10
35.669
 20
51.0025
 30
0.0
 11
35.669
 21
37.0032
 31
0.0
  0
LINE
  8
0
 62
     0
 10
35.669
 20
37.0032
 30
0.0
 11
21.6697
 21
37.0032
 31
0.0
  0
LINE
  8
0
 62
     0
 10
21.6697
 20
37.0032
 30
0.0
 11
21.6697
 21
51.0025
 31
0.0
  0
LINE
  8
0
 62
     0
 10
2.61965
 20
51.0025
 30
0.0
 11
16.6192
 21
51.0025
 31
0.0
  0
LINE
  8
0
 62
     0
 10
16.6192
 20
51.0025
 30
0.0
 11
16.6192
 21
37.0032
 31
0.0
  0
LINE
  8
0
 62
     0
 10
16.6192
 20
37.0032
 30
0.0
 11
2.61965
 21
37.0032
 31
0.0
  0
LINE
  8
0
 62
     0
 10
2.61965
 20
37.0032
 30
0.0
 11
2.61965
 21
51.0025
 31
0.0
  0
LINE
  8
0
 62
     0
 10
97.8683
 20
70.0525
 30
0.0
 11
111.869
 21
70.0525
 31
0.0
  0
LINE
  8
0
 62
     0
 10
111.869
 20
70.0525
 30
0.0
 11
111.869
 21
56.0532
 31
0.0
  0
LINE
  8
0
 62
     0
 10
111.869
 20
56.0532
 30
0.0
 11
97.8683
 21
56.0532
 31
0.0
  0
LINE
  8
0
 62
     0
 10
97.8683
 20
56.0532
 30
0.0
 11
97.8683
 21
70.0525
 31
0.0
  0
LINE
  8
0
 62
     0
 10
78.8197
 20
70.0525
 30
0.0
 11
92.819
 21
70.0525
 31
0.0
  0
LINE
  8
0
 62
     0
 10
92.819
 20
70.0525
 30
0.0
 11
92.819
 21
56.0532
 31
0.0
  0
LINE
  8
0
 62
     0
 10
92.819
 20
56.0532
 30
0.0
 11
78.8197
 21
56.0532
 31
0.0
  0
LINE
  8
0
 62
     0
 10
78.8197
 20
56.0532
 30
0.0
 11
78.8197
 21
70.0525
 31
0.0
  0
LINE
  8
0
 62
     0
 10
59.7697
 20
70.0525
 30
0.0
 11
73.769
 21
70.0525
 31
0.0
  0
LINE
  8
0
 62
     0
 10
73.769
 20
70.0525
 30
0.0
 11
73.769
 21
56.0532
 31
0.0
  0
LINE
  8
0
 62
     0
 10
73.769
 20
56.0532
 30
0.0
 11
59.7697
 21
56.0532
 31
0.0
  0
LINE
  8
0
 62
     0
 10
59.7697
 20
56.0532
 30
0.0
 11
59.7697
 21
70.0525
 31
0.0
  0
LINE
  8
0
 62
     0
 10
40.7197
 20
70.0525
 30
0.0
 11
54.719
 21
70.0525
 31
0.0
  0
LINE
  8
0
 62
     0
 10
54.719
 20
70.0525
 30
0.0
 11
54.719
 21
56.0532
 31
0.0
  0
LINE
  8
0
 62
     0
 10
54.719
 20
56.0532
 30
0.0
 11
40.7197
 21
56.0532
 31
0.0
  0
LINE
  8
0
 62
     0
 10
40.7197
 20
56.0532
 30
0.0
 11
40.7197
 21
70.0525
 31
0.0
  0
LINE
  8
0
 62
     0
 10
21.6697
 20
70.0525
 30
0.0
 11
35.669
 21
70.0525
 31
0.0
  0
LINE
  8
0
 62
     0
 10
35.669
 20
70.0525
 30
0.0
 11
35.669
 21
56.0532
 31
0.0
  0
LINE
  8
0
 62
     0
 10
35.669
 20
56.0532
 30
0.0
 11
21.6697
 21
56.0532
 31
0.0
  0
LINE
  8
0
 62
     0
 10
21.6697
 20
56.0532
 30
0.0
 11
21.6697
 21
70.0525
 31
0.0
  0
LINE
  8
0
 62
     0
 10
2.61965
 20
70.0525
 30
0.0
 11
16.6192
 21
70.0525
 31
0.0
  0
LINE
  8
0
 62
     0
 10
16.6192
 20
70.0525
 30
0.0
 11
16.6192
 21
56.0532
 31
0.0
  0
LINE
  8
0
 62
     0
 10
16.6192
 20
56.0532
 30
0.0
 11
2.61965
 21
56.0532
 31
0.0
  0
LINE
  8
0
 62
     0
 10
2.61965
 20
56.0532
 30
0.0
 11
2.61965
 21
70.0525
 31
0.0
  0
LINE
  8
0
 62
     0
 10
97.8683
 20
89.1025
 30
0.0
 11
111.869
 21
89.1025
 31
0.0
  0
LINE
  8
0
 62
     0
 10
111.869
 20
89.1025
 30
0.0
 11
111.869
 21
75.1032
 31
0.0
  0
LINE
  8
0
 62
     0
 10
111.869
 20
75.1032
 30
0.0
 11
97.8683
 21
75.1032
 31
0.0
  0
LINE
  8
0
 62
     0
 10
97.8683
 20
75.1032
 30
0.0
 11
97.8683
 21
89.1025
 31
0.0
  0
LINE
  8
0
 62
     0
 10
78.8197
 20
89.1025
 30
0.0
 11
92.819
 21
89.1025
 31
0.0
  0
LINE
  8
0
 62
     0
 10
92.819
 20
89.1025
 30
0.0
 11
92.819
 21
75.1032
 31
0.0
  0
LINE
  8
0
 62
     0
 10
92.819
 20
75.1032
 30
0.0
 11
78.8197
 21
75.1032
 31
0.0
  0
LINE
  8
0
 62
     0
 10
78.8197
 20
75.1032
 30
0.0
 11
78.8197
 21
89.1025
 31
0.0
  0
LINE
  8
0
 62
     0
 10
59.7697
 20
89.1025
 30
0.0
 11
73.769
 21
89.1025
 31
0.0
  0
LINE
  8
0
 62
     0
 10
73.769
 20
89.1025
 30
0.0
 11
73.769
 21
75.1032
 31
0.0
  0
LINE
  8
0
 62
     0
 10
73.769
 20
75.1032
 30
0.0
 11
59.7697
 21
75.1032
 31
0.0
  0
LINE
  8
0
 62
     0
 10
59.7697
 20
75.1032
 30
0.0
 11
59.7697
 21
89.1025
 31
0.0
  0
LINE
  8
0
 62
     0
 10
40.7197
 20
89.1025
 30
0.0
 11
54.719
 21
89.1025
 31
0.0
  0
LINE
  8
0
 62
     0
 10
54.719
 20
89.1025
 30
0.0
 11
54.719
 21
75.1032
 31
0.0
  0
LINE
  8
0
 62
     0
 10
54.719
 20
75.1032
 30
0.0
 11
40.7197
 21
75.1032
 31
0.0
  0
LINE
  8
0
 62
     0
 10
40.7197
 20
75.1032
 30
0.0
 11
40.7197
 21
89.1025
 31
0.0
  0
LINE
  8
0
 62
     0
 10
21.6697
 20
89.1025
 30
0.0
 11
35.669
 21
89.1025
 31
0.0
  0
LINE
  8
0
 62
     0
 10
35.669
 20
89.1025
 30
0.0
 11
35.669
 21
75.1032
 31
0.0
  0
LINE
  8
0
 62
     0
 10
35.669
 20
75.1032
 30
0.0
 11
21.6697
 21
75.1032
 31
0.0
  0
LINE
  8
0
 62
     0
 10
21.6697
 20
75.1032
 30
0.0
 11
21.6697
 21
89.1025
 31
0.0
  0
LINE
  8
0
 62
     0
 10
2.61965
 20
89.1025
 30
0.0
 11
16.6192
 21
89.1025
 31
0.0
  0
LINE
  8
0
 62
     0
 10
16.6192
 20
89.1025
 30
0.0
 11
16.6192
 21
75.1032
 31
0.0
  0
LINE
  8
0
 62
     0
 10
16.6192
 20
75.1032
 30
0.0
 11
2.61965
 21
75.1032
 31
0.0
  0
LINE
  8
0
 62
     0
 10
2.61965
 20
75.1032
 30
0.0
 11
2.61965
 21
89.1025
 31
0.0
  0
LINE
  8
0
 62
     0
 10
116.918
 20
108.152
 30
0.0
 11
130.919
 21
108.152
 31
0.0
  0
LINE
  8
0
 62
     0
 10
130.919
 20
108.152
 30
0.0
 11
130.919
 21
94.1532
 31
0.0
  0
LINE
  8
0
 62
     0
 10
130.919
 20
94.1532
 30
0.0
 11
116.918
 21
94.1532
 31
0.0
  0
LINE
  8
0
 62
     0
 10
116.918
 20
94.1532
 30
0.0
 11
116.918
 21
108.152
 31
0.0
  0
LINE
  8
0
 62
     0
 10
97.8683
 20
108.152
 30
0.0
 11
111.869
 21
108.152
 31
0.0
  0
LINE
  8
0
 62
     0
 10
111.869
 20
108.152
 30
0.0
 11
111.869
 21
94.1532
 31
0.0
  0
LINE
  8
0
 62
     0
 10
111.869
 20
94.1532
 30
0.0
 11
97.8683
 21
94.1532
 31
0.0
  0
LINE
  8
0
 62
     0
 10
97.8683
 20
94.1532
 30
0.0
 11
97.8683
 21
108.152
 31
0.0
  0
LINE
  8
0
 62
     0
 10
78.8197
 20
108.152
 30
0.0
 11
92.819
 21
108.152
 31
0.0
  0
LINE
  8
0
 62
     0
 10
92.819
 20
108.152
 30
0.0
 11
92.819
 21
94.1532
 31
0.0
  0
LINE
  8
0
 62
     0
 10
92.819
 20
94.1532
 30
0.0
 11
78.8197
 21
94.1532
 31
0.0
  0
LINE
  8
0
 62
     0
 10
78.8197
 20
94.1532
 30
0.0
 11
78.8197
 21
108.152
 31
0.0
  0
LINE
  8
0
 62
     0
 10
59.7697
 20
108.152
 30
0.0
 11
73.769
 21
108.152
 31
0.0
  0
LINE
  8
0
 62
     0
 10
73.769
 20
108.152
 30
0.0
 11
73.769
 21
94.1532
 31
0.0
  0
LINE
  8
0
 62
     0
 10
73.769
 20
94.1532
 30
0.0
 11
59.7697
 21
94.1532
 31
0.0
  0
LINE
  8
0
 62
     0
 10
59.7697
 20
94.1532
 30
0.0
 11
59.7697
 21
108.152
 31
0.0
  0
LINE
  8
0
 62
     0
 10
40.7197
 20
108.152
 30
0.0
 11
54.719
 21
108.152
 31
0.0
  0
LINE
  8
0
 62
     0
 10
54.719
 20
108.152
 30
0.0
 11
54.719
 21
94.1532
 31
0.0
  0
LINE
  8
0
 62
     0
 10
54.719
 20
94.1532
 30
0.0
 11
40.7197
 21
94.1532
 31
0.0
  0
LINE
  8
0
 62
     0
 10
40.7197
 20
94.1532
 30
0.0
 11
40.7197
 21
108.152
 31
0.0
  0
LINE
  8
0
 62
     0
 10
21.6697
 20
108.152
 30
0.0
 11
35.669
 21
108.152
 31
0.0
  0
LINE
  8
0
 62
     0
 10
35.669
 20
108.152
 30
0.0
 11
35.669
 21
94.1532
 31
0.0
  0
LINE
  8
0
 62
     0
 10
35.669
 20
94.1532
 30
0.0
 11
21.6697
 21
94.1532
 31
0.0
  0
LINE
  8
0
 62
     0
 10
21.6697
 20
94.1532
 30
0.0
 11
21.6697
 21
108.152
 31
0.0
  0
LINE
  8
0
 62
     0
 10
2.61965
 20
108.152
 30
0.0
 11
16.6192
 21
108.152
 31
0.0
  0
LINE
  8
0
 62
     0
 10
16.6192
 20
108.152
 30
0.0
 11
16.6192
 21
94.1532
 31
0.0
  0
LINE
  8
0
 62
     0
 10
16.6192
 20
94.1532
 30
0.0
 11
2.61965
 21
94.1532
 31
0.0
  0
LINE
  8
0
 62
     0
 10
2.61965
 20
94.1532
 30
0.0
 11
2.61965
 21
108.152
 31
0.0
  0
ENDSEC
  0
EOF
