  0
SECTION
  2
HEADER
  9
$ANGBASE
  50
0.0
  9
$ANGDIR
  70
1
  9
$MEASUREMENT
  70
1
  0
ENDSEC
  0
SECTION
  2
TABLES
  0
TABLE
  2
LTYPE
  70
4
  0
LTYPE
  5
40F
  2
CONTINUOUS
  70
0
  3
Solid line
  72
65
  73
0
  40
0.0
  0
LTYPE
  5
410
  2
DASHDOT
 70
0
  3
Dash Dot ____ _ ____ _
 72
65
 73
4
 40
2.0
 49
1.25
 49
-0.25
 49
0.25
 49
-0.25
  0
LTYPE
  5
411
  2
DASHED
 70
0
  3
Dashed __ __ __ __ __
 72
65
 73
2
 40
0.75
 49
0.5
 49
-0.25
  0
LTYPE
  5
43B
  2
DOTTED
 70
0
  3
Dotted .  .  .  .
 72
65
 73
2
 40
0.2
 49
0.0
 49
-0.2
  0
ENDTAB
  0
TABLE
  2
STYLE
  70
4
  0
STYLE
  2
KICAD
  70
0
  40
0
  41
1
  42
1
  50
0
  71
0
  3
isocp.shx
  0
STYLE
  2
KICADB
  70
0
  40
0
  41
1
  42
1
  50
0
  71
0
  3
isocp.shx
  0
STYLE
  2
KICADI
  70
0
  40
0
  41
1
  42
1
  50
15
  71
0
  3
isocp.shx
  0
STYLE
  2
KICADBI
  70
0
  40
0
  41
1
  42
1
  50
15
  71
0
  3
isocp.shx
  0
ENDTAB
  0
TABLE
  2
LAYER
  70
1
  0
LAYER
  2
BLACK
  70
0
  62
7
  6
CONTINUOUS
  0
ENDTAB
  0
ENDSEC
  0
SECTION
  2
ENTITIES
0
LINE
8
BLACK
6
CONTINUOUS
10
73.7741
20
-150.044
11
73.7729
21
-150.044
0
LINE
8
BLACK
6
CONTINUOUS
10
73.7729
20
-150.044
11
73.7705
21
-150.043
0
LINE
8
BLACK
6
CONTINUOUS
10
73.7705
20
-150.043
11
73.768
21
-150.043
0
LINE
8
BLACK
6
CONTINUOUS
10
73.768
20
-150.043
11
73.768
21
-150.043
0
LINE
8
BLACK
6
CONTINUOUS
10
73.768
20
-150.043
11
73.7642
21
-150.042
0
LINE
8
BLACK
6
CONTINUOUS
10
73.7642
20
-150.042
11
73.7633
21
-150.042
0
LINE
8
BLACK
6
CONTINUOUS
10
73.7633
20
-150.042
11
73.7633
21
-150.042
0
LINE
8
BLACK
6
CONTINUOUS
10
73.7633
20
-150.042
11
73.7633
21
-150.042
0
LINE
8
BLACK
6
CONTINUOUS
10
73.7633
20
-150.042
11
73.7602
21
-150.04
0
LINE
8
BLACK
6
CONTINUOUS
10
73.7602
20
-150.04
11
73.7589
21
-150.039
0
LINE
8
BLACK
6
CONTINUOUS
10
73.7589
20
-150.039
11
73.7589
21
-150.039
0
LINE
8
BLACK
6
CONTINUOUS
10
73.7589
20
-150.039
11
73.7589
21
-150.039
0
LINE
8
BLACK
6
CONTINUOUS
10
73.7589
20
-150.039
11
73.7568
21
-150.038
0
LINE
8
BLACK
6
CONTINUOUS
10
73.7568
20
-150.038
11
73.7551
21
-150.036
0
LINE
8
BLACK
6
CONTINUOUS
10
73.7551
20
-150.036
11
73.7551
21
-150.036
0
LINE
8
BLACK
6
CONTINUOUS
10
73.7551
20
-150.036
11
73.7551
21
-150.036
0
LINE
8
BLACK
6
CONTINUOUS
10
73.7551
20
-150.036
11
73.7537
21
-150.035
0
LINE
8
BLACK
6
CONTINUOUS
10
73.7537
20
-150.035
11
73.752
21
-150.033
0
LINE
8
BLACK
6
CONTINUOUS
10
73.752
20
-150.033
11
73.752
21
-150.033
0
LINE
8
BLACK
6
CONTINUOUS
10
73.752
20
-150.033
11
73.752
21
-150.033
0
LINE
8
BLACK
6
CONTINUOUS
10
73.752
20
-150.033
11
73.7513
21
-150.031
0
LINE
8
BLACK
6
CONTINUOUS
10
73.7513
20
-150.031
11
73.7497
21
-150.028
0
LINE
8
BLACK
6
CONTINUOUS
10
73.7497
20
-150.028
11
73.7482
21
-150.023
0
LINE
8
BLACK
6
CONTINUOUS
10
73.7482
20
-150.023
11
73.7482
21
-150.023
0
LINE
8
BLACK
6
CONTINUOUS
10
73.7482
20
-150.023
11
73.7482
21
-150.023
0
LINE
8
BLACK
6
CONTINUOUS
10
73.7482
20
-150.023
11
73.7479
21
-150.02
0
LINE
8
BLACK
6
CONTINUOUS
10
73.7479
20
-150.02
11
73.7478
21
-150.019
0
LINE
8
BLACK
6
CONTINUOUS
10
73.7478
20
-150.019
11
73.7479
21
-150.017
0
LINE
8
BLACK
6
CONTINUOUS
10
73.7479
20
-150.017
11
73.7937
21
-39.6887
0
LINE
8
BLACK
6
CONTINUOUS
10
73.7937
20
-39.6887
11
73.7936
21
-39.6875
0
LINE
8
BLACK
6
CONTINUOUS
10
73.7936
20
-39.6875
11
73.7938
21
-39.6863
0
LINE
8
BLACK
6
CONTINUOUS
10
73.7938
20
-39.6863
11
73.7938
21
-39.6863
0
LINE
8
BLACK
6
CONTINUOUS
10
73.7938
20
-39.6863
11
73.7939
21
-39.6844
0
LINE
8
BLACK
6
CONTINUOUS
10
73.7939
20
-39.6844
11
73.7941
21
-39.6826
0
LINE
8
BLACK
6
CONTINUOUS
10
73.7941
20
-39.6826
11
73.7941
21
-39.6826
0
LINE
8
BLACK
6
CONTINUOUS
10
73.7941
20
-39.6826
11
73.7955
21
-39.6779
0
LINE
8
BLACK
6
CONTINUOUS
10
73.7955
20
-39.6779
11
73.7979
21
-39.6736
0
LINE
8
BLACK
6
CONTINUOUS
10
73.7979
20
-39.6736
11
73.7979
21
-39.6735
0
LINE
8
BLACK
6
CONTINUOUS
10
73.7979
20
-39.6735
11
73.7979
21
-39.6735
0
LINE
8
BLACK
6
CONTINUOUS
10
73.7979
20
-39.6735
11
73.7979
21
-39.6735
0
LINE
8
BLACK
6
CONTINUOUS
10
73.7979
20
-39.6735
11
73.7999
21
-39.671
0
LINE
8
BLACK
6
CONTINUOUS
10
73.7999
20
-39.671
11
73.801
21
-39.6697
0
LINE
8
BLACK
6
CONTINUOUS
10
73.801
20
-39.6697
11
73.801
21
-39.6697
0
LINE
8
BLACK
6
CONTINUOUS
10
73.801
20
-39.6697
11
73.801
21
-39.6697
0
LINE
8
BLACK
6
CONTINUOUS
10
73.801
20
-39.6697
11
73.8048
21
-39.6666
0
LINE
8
BLACK
6
CONTINUOUS
10
73.8048
20
-39.6666
11
73.8048
21
-39.6666
0
LINE
8
BLACK
6
CONTINUOUS
10
73.8048
20
-39.6666
11
73.8048
21
-39.6666
0
LINE
8
BLACK
6
CONTINUOUS
10
73.8048
20
-39.6666
11
73.8048
21
-39.6666
0
LINE
8
BLACK
6
CONTINUOUS
10
73.8048
20
-39.6666
11
73.8078
21
-39.665
0
LINE
8
BLACK
6
CONTINUOUS
10
73.8078
20
-39.665
11
73.8091
21
-39.6643
0
LINE
8
BLACK
6
CONTINUOUS
10
73.8091
20
-39.6643
11
73.8091
21
-39.6643
0
LINE
8
BLACK
6
CONTINUOUS
10
73.8091
20
-39.6643
11
73.8091
21
-39.6643
0
LINE
8
BLACK
6
CONTINUOUS
10
73.8091
20
-39.6643
11
73.8117
21
-39.6635
0
LINE
8
BLACK
6
CONTINUOUS
10
73.8117
20
-39.6635
11
73.8138
21
-39.6629
0
LINE
8
BLACK
6
CONTINUOUS
10
73.8138
20
-39.6629
11
73.8139
21
-39.6629
0
LINE
8
BLACK
6
CONTINUOUS
10
73.8139
20
-39.6629
11
73.8139
21
-39.6629
0
LINE
8
BLACK
6
CONTINUOUS
10
73.8139
20
-39.6629
11
73.8163
21
-39.6626
0
LINE
8
BLACK
6
CONTINUOUS
10
73.8163
20
-39.6626
11
73.8175
21
-39.6625
0
LINE
8
BLACK
6
CONTINUOUS
10
73.8175
20
-39.6625
11
73.8175
21
-39.6625
0
LINE
8
BLACK
6
CONTINUOUS
10
73.8175
20
-39.6625
11
73.8188
21
-39.6624
0
LINE
8
BLACK
6
CONTINUOUS
10
73.8188
20
-39.6624
11
73.82
21
-39.6625
0
LINE
8
BLACK
6
CONTINUOUS
10
73.82
20
-39.6625
11
207.168
21
-39.6625
0
LINE
8
BLACK
6
CONTINUOUS
10
207.168
20
-39.6625
11
207.169
21
-39.6624
0
LINE
8
BLACK
6
CONTINUOUS
10
207.169
20
-39.6624
11
207.17
21
-39.6625
0
LINE
8
BLACK
6
CONTINUOUS
10
207.17
20
-39.6625
11
207.17
21
-39.6625
0
LINE
8
BLACK
6
CONTINUOUS
10
207.17
20
-39.6625
11
207.174
21
-39.6629
0
LINE
8
BLACK
6
CONTINUOUS
10
207.174
20
-39.6629
11
207.178
21
-39.6643
0
LINE
8
BLACK
6
CONTINUOUS
10
207.178
20
-39.6643
11
207.183
21
-39.6666
0
LINE
8
BLACK
6
CONTINUOUS
10
207.183
20
-39.6666
11
207.187
21
-39.6697
0
LINE
8
BLACK
6
CONTINUOUS
10
207.187
20
-39.6697
11
207.19
21
-39.6735
0
LINE
8
BLACK
6
CONTINUOUS
10
207.19
20
-39.6735
11
207.192
21
-39.6779
0
LINE
8
BLACK
6
CONTINUOUS
10
207.192
20
-39.6779
11
207.193
21
-39.6826
0
LINE
8
BLACK
6
CONTINUOUS
10
207.193
20
-39.6826
11
207.194
21
-39.6875
0
LINE
8
BLACK
6
CONTINUOUS
10
207.194
20
-39.6875
11
207.194
21
-39.6887
0
LINE
8
BLACK
6
CONTINUOUS
10
207.194
20
-39.6887
11
207.194
21
-58.7363
0
LINE
8
BLACK
6
CONTINUOUS
10
207.194
20
-58.7363
11
207.194
21
-58.7375
0
LINE
8
BLACK
6
CONTINUOUS
10
207.194
20
-58.7375
11
207.194
21
-58.7387
0
LINE
8
BLACK
6
CONTINUOUS
10
207.194
20
-58.7387
11
207.193
21
-58.7424
0
LINE
8
BLACK
6
CONTINUOUS
10
207.193
20
-58.7424
11
207.192
21
-58.7471
0
LINE
8
BLACK
6
CONTINUOUS
10
207.192
20
-58.7471
11
207.19
21
-58.7515
0
LINE
8
BLACK
6
CONTINUOUS
10
207.19
20
-58.7515
11
207.187
21
-58.7553
0
LINE
8
BLACK
6
CONTINUOUS
10
207.187
20
-58.7553
11
207.183
21
-58.7584
0
LINE
8
BLACK
6
CONTINUOUS
10
207.183
20
-58.7584
11
207.178
21
-58.7607
0
LINE
8
BLACK
6
CONTINUOUS
10
207.178
20
-58.7607
11
207.174
21
-58.7621
0
LINE
8
BLACK
6
CONTINUOUS
10
207.174
20
-58.7621
11
207.169
21
-58.7626
0
LINE
8
BLACK
6
CONTINUOUS
10
207.169
20
-58.7626
11
207.168
21
-58.7625
0
LINE
8
BLACK
6
CONTINUOUS
10
207.168
20
-58.7625
11
188.144
21
-58.7625
0
LINE
8
BLACK
6
CONTINUOUS
10
188.144
20
-58.7625
11
188.144
21
-115.887
0
LINE
8
BLACK
6
CONTINUOUS
10
188.144
20
-115.887
11
188.144
21
-115.888
0
LINE
8
BLACK
6
CONTINUOUS
10
188.144
20
-115.888
11
188.144
21
-115.89
0
LINE
8
BLACK
6
CONTINUOUS
10
188.144
20
-115.89
11
188.143
21
-115.892
0
LINE
8
BLACK
6
CONTINUOUS
10
188.143
20
-115.892
11
188.143
21
-115.893
0
LINE
8
BLACK
6
CONTINUOUS
10
188.143
20
-115.893
11
188.143
21
-115.893
0
LINE
8
BLACK
6
CONTINUOUS
10
188.143
20
-115.893
11
188.143
21
-115.895
0
LINE
8
BLACK
6
CONTINUOUS
10
188.143
20
-115.895
11
188.142
21
-115.897
0
LINE
8
BLACK
6
CONTINUOUS
10
188.142
20
-115.897
11
188.141
21
-115.898
0
LINE
8
BLACK
6
CONTINUOUS
10
188.141
20
-115.898
11
173.061
21
-150.027
0
LINE
8
BLACK
6
CONTINUOUS
10
173.061
20
-150.027
11
173.061
21
-150.028
0
LINE
8
BLACK
6
CONTINUOUS
10
173.061
20
-150.028
11
173.06
21
-150.03
0
LINE
8
BLACK
6
CONTINUOUS
10
173.06
20
-150.03
11
173.06
21
-150.03
0
LINE
8
BLACK
6
CONTINUOUS
10
173.06
20
-150.03
11
173.059
21
-150.031
0
LINE
8
BLACK
6
CONTINUOUS
10
173.059
20
-150.031
11
173.058
21
-150.033
0
LINE
8
BLACK
6
CONTINUOUS
10
173.058
20
-150.033
11
173.058
21
-150.033
0
LINE
8
BLACK
6
CONTINUOUS
10
173.058
20
-150.033
11
173.058
21
-150.033
0
LINE
8
BLACK
6
CONTINUOUS
10
173.058
20
-150.033
11
173.057
21
-150.035
0
LINE
8
BLACK
6
CONTINUOUS
10
173.057
20
-150.035
11
173.055
21
-150.037
0
LINE
8
BLACK
6
CONTINUOUS
10
173.055
20
-150.037
11
173.055
21
-150.037
0
LINE
8
BLACK
6
CONTINUOUS
10
173.055
20
-150.037
11
173.055
21
-150.037
0
LINE
8
BLACK
6
CONTINUOUS
10
173.055
20
-150.037
11
173.053
21
-150.038
0
LINE
8
BLACK
6
CONTINUOUS
10
173.053
20
-150.038
11
173.051
21
-150.04
0
LINE
8
BLACK
6
CONTINUOUS
10
173.051
20
-150.04
11
173.051
21
-150.04
0
LINE
8
BLACK
6
CONTINUOUS
10
173.051
20
-150.04
11
173.051
21
-150.04
0
LINE
8
BLACK
6
CONTINUOUS
10
173.051
20
-150.04
11
173.049
21
-150.041
0
LINE
8
BLACK
6
CONTINUOUS
10
173.049
20
-150.041
11
173.047
21
-150.042
0
LINE
8
BLACK
6
CONTINUOUS
10
173.047
20
-150.042
11
173.047
21
-150.042
0
LINE
8
BLACK
6
CONTINUOUS
10
173.047
20
-150.042
11
173.047
21
-150.042
0
LINE
8
BLACK
6
CONTINUOUS
10
173.047
20
-150.042
11
173.044
21
-150.043
0
LINE
8
BLACK
6
CONTINUOUS
10
173.044
20
-150.043
11
173.042
21
-150.043
0
LINE
8
BLACK
6
CONTINUOUS
10
173.042
20
-150.043
11
173.042
21
-150.043
0
LINE
8
BLACK
6
CONTINUOUS
10
173.042
20
-150.043
11
173.042
21
-150.043
0
LINE
8
BLACK
6
CONTINUOUS
10
173.042
20
-150.043
11
173.04
21
-150.044
0
LINE
8
BLACK
6
CONTINUOUS
10
173.04
20
-150.044
11
173.039
21
-150.044
0
LINE
8
BLACK
6
CONTINUOUS
10
173.039
20
-150.044
11
173.038
21
-150.044
0
LINE
8
BLACK
6
CONTINUOUS
10
173.038
20
-150.044
11
173.037
21
-150.044
0
LINE
8
BLACK
6
CONTINUOUS
10
173.037
20
-150.044
11
173.036
21
-150.044
0
LINE
8
BLACK
6
CONTINUOUS
10
173.036
20
-150.044
11
169.068
21
-150.044
0
LINE
8
BLACK
6
CONTINUOUS
10
169.068
20
-150.044
11
73.7741
21
-150.044
0
LINE
8
BLACK
6
CONTINUOUS
10
73.8437
20
-39.7125
11
73.7979
21
-149.994
0
LINE
8
BLACK
6
CONTINUOUS
10
73.7979
20
-149.994
11
169.068
21
-149.994
0
LINE
8
BLACK
6
CONTINUOUS
10
169.068
20
-149.994
11
169.068
21
-149.994
0
LINE
8
BLACK
6
CONTINUOUS
10
169.068
20
-149.994
11
173.021
21
-149.994
0
LINE
8
BLACK
6
CONTINUOUS
10
173.021
20
-149.994
11
188.094
21
-115.882
0
LINE
8
BLACK
6
CONTINUOUS
10
188.094
20
-115.882
11
188.094
21
-58.7387
0
LINE
8
BLACK
6
CONTINUOUS
10
188.094
20
-58.7387
11
188.094
21
-58.7375
0
LINE
8
BLACK
6
CONTINUOUS
10
188.094
20
-58.7375
11
188.094
21
-58.7326
0
LINE
8
BLACK
6
CONTINUOUS
10
188.094
20
-58.7326
11
188.096
21
-58.7279
0
LINE
8
BLACK
6
CONTINUOUS
10
188.096
20
-58.7279
11
188.098
21
-58.7235
0
LINE
8
BLACK
6
CONTINUOUS
10
188.098
20
-58.7235
11
188.101
21
-58.7197
0
LINE
8
BLACK
6
CONTINUOUS
10
188.101
20
-58.7197
11
188.105
21
-58.7166
0
LINE
8
BLACK
6
CONTINUOUS
10
188.105
20
-58.7166
11
188.109
21
-58.7143
0
LINE
8
BLACK
6
CONTINUOUS
10
188.109
20
-58.7143
11
188.114
21
-58.7129
0
LINE
8
BLACK
6
CONTINUOUS
10
188.114
20
-58.7129
11
188.118
21
-58.7125
0
LINE
8
BLACK
6
CONTINUOUS
10
188.118
20
-58.7125
11
188.119
21
-58.7124
0
LINE
8
BLACK
6
CONTINUOUS
10
188.119
20
-58.7124
11
188.12
21
-58.7125
0
LINE
8
BLACK
6
CONTINUOUS
10
188.12
20
-58.7125
11
207.144
21
-58.7125
0
LINE
8
BLACK
6
CONTINUOUS
10
207.144
20
-58.7125
11
207.144
21
-39.7125
0
LINE
8
BLACK
6
CONTINUOUS
10
207.144
20
-39.7125
11
73.8437
21
-39.7125
0
LINE
8
BLACK
6
CONTINUOUS
10
142.88
20
-143.644
11
142.885
21
-143.646
0
LINE
8
BLACK
6
CONTINUOUS
10
142.885
20
-143.646
11
142.889
21
-143.648
0
LINE
8
BLACK
6
CONTINUOUS
10
142.889
20
-143.648
11
142.893
21
-143.651
0
LINE
8
BLACK
6
CONTINUOUS
10
142.893
20
-143.651
11
142.896
21
-143.655
0
LINE
8
BLACK
6
CONTINUOUS
10
142.896
20
-143.655
11
142.898
21
-143.659
0
LINE
8
BLACK
6
CONTINUOUS
10
142.898
20
-143.659
11
142.9
21
-143.664
0
LINE
8
BLACK
6
CONTINUOUS
10
142.9
20
-143.664
11
142.9
21
-143.669
0
LINE
8
BLACK
6
CONTINUOUS
10
142.9
20
-143.669
11
142.9
21
-143.674
0
LINE
8
BLACK
6
CONTINUOUS
10
142.9
20
-143.674
11
142.898
21
-143.678
0
LINE
8
BLACK
6
CONTINUOUS
10
142.898
20
-143.678
11
142.896
21
-143.683
0
LINE
8
BLACK
6
CONTINUOUS
10
142.896
20
-143.683
11
142.893
21
-143.687
0
LINE
8
BLACK
6
CONTINUOUS
10
142.893
20
-143.687
11
142.889
21
-143.69
0
LINE
8
BLACK
6
CONTINUOUS
10
142.889
20
-143.69
11
142.885
21
-143.692
0
LINE
8
BLACK
6
CONTINUOUS
10
142.885
20
-143.692
11
142.88
21
-143.693
0
LINE
8
BLACK
6
CONTINUOUS
10
142.88
20
-143.693
11
142.876
21
-143.694
0
LINE
8
BLACK
6
CONTINUOUS
10
142.876
20
-143.694
11
134.143
21
-143.694
0
LINE
8
BLACK
6
CONTINUOUS
10
134.143
20
-143.694
11
134.139
21
-143.693
0
LINE
8
BLACK
6
CONTINUOUS
10
134.139
20
-143.693
11
134.134
21
-143.692
0
LINE
8
BLACK
6
CONTINUOUS
10
134.134
20
-143.692
11
134.13
21
-143.69
0
LINE
8
BLACK
6
CONTINUOUS
10
134.13
20
-143.69
11
134.126
21
-143.687
0
LINE
8
BLACK
6
CONTINUOUS
10
134.126
20
-143.687
11
134.123
21
-143.683
0
LINE
8
BLACK
6
CONTINUOUS
10
134.123
20
-143.683
11
134.121
21
-143.678
0
LINE
8
BLACK
6
CONTINUOUS
10
134.121
20
-143.678
11
134.119
21
-143.674
0
LINE
8
BLACK
6
CONTINUOUS
10
134.119
20
-143.674
11
134.119
21
-143.669
0
LINE
8
BLACK
6
CONTINUOUS
10
134.119
20
-143.669
11
134.119
21
-143.664
0
LINE
8
BLACK
6
CONTINUOUS
10
134.119
20
-143.664
11
134.121
21
-143.659
0
LINE
8
BLACK
6
CONTINUOUS
10
134.121
20
-143.659
11
134.123
21
-143.655
0
LINE
8
BLACK
6
CONTINUOUS
10
134.123
20
-143.655
11
134.126
21
-143.651
0
LINE
8
BLACK
6
CONTINUOUS
10
134.126
20
-143.651
11
134.13
21
-143.648
0
LINE
8
BLACK
6
CONTINUOUS
10
134.13
20
-143.648
11
134.134
21
-143.646
0
LINE
8
BLACK
6
CONTINUOUS
10
134.134
20
-143.646
11
134.139
21
-143.644
0
LINE
8
BLACK
6
CONTINUOUS
10
134.139
20
-143.644
11
134.143
21
-143.644
0
LINE
8
BLACK
6
CONTINUOUS
10
134.143
20
-143.644
11
142.876
21
-143.644
0
LINE
8
BLACK
6
CONTINUOUS
10
142.876
20
-143.644
11
142.88
21
-143.644
0
LINE
8
BLACK
6
CONTINUOUS
10
175.424
20
-96.8129
11
175.428
21
-96.8143
0
LINE
8
BLACK
6
CONTINUOUS
10
175.428
20
-96.8143
11
175.433
21
-96.8166
0
LINE
8
BLACK
6
CONTINUOUS
10
175.433
20
-96.8166
11
175.437
21
-96.8197
0
LINE
8
BLACK
6
CONTINUOUS
10
175.437
20
-96.8197
11
175.44
21
-96.8235
0
LINE
8
BLACK
6
CONTINUOUS
10
175.44
20
-96.8235
11
175.442
21
-96.8279
0
LINE
8
BLACK
6
CONTINUOUS
10
175.442
20
-96.8279
11
175.443
21
-96.8326
0
LINE
8
BLACK
6
CONTINUOUS
10
175.443
20
-96.8326
11
175.444
21
-96.8375
0
LINE
8
BLACK
6
CONTINUOUS
10
175.444
20
-96.8375
11
175.443
21
-96.8424
0
LINE
8
BLACK
6
CONTINUOUS
10
175.443
20
-96.8424
11
175.442
21
-96.8471
0
LINE
8
BLACK
6
CONTINUOUS
10
175.442
20
-96.8471
11
175.44
21
-96.8515
0
LINE
8
BLACK
6
CONTINUOUS
10
175.44
20
-96.8515
11
175.437
21
-96.8553
0
LINE
8
BLACK
6
CONTINUOUS
10
175.437
20
-96.8553
11
175.433
21
-96.8584
0
LINE
8
BLACK
6
CONTINUOUS
10
175.433
20
-96.8584
11
175.428
21
-96.8607
0
LINE
8
BLACK
6
CONTINUOUS
10
175.428
20
-96.8607
11
175.424
21
-96.8621
0
LINE
8
BLACK
6
CONTINUOUS
10
175.424
20
-96.8621
11
175.42
21
-96.8625
0
LINE
8
BLACK
6
CONTINUOUS
10
175.42
20
-96.8625
11
169.068
21
-96.8625
0
LINE
8
BLACK
6
CONTINUOUS
10
169.068
20
-96.8625
11
169.064
21
-96.8621
0
LINE
8
BLACK
6
CONTINUOUS
10
169.064
20
-96.8621
11
169.059
21
-96.8607
0
LINE
8
BLACK
6
CONTINUOUS
10
169.059
20
-96.8607
11
169.055
21
-96.8584
0
LINE
8
BLACK
6
CONTINUOUS
10
169.055
20
-96.8584
11
169.051
21
-96.8553
0
LINE
8
BLACK
6
CONTINUOUS
10
169.051
20
-96.8553
11
169.048
21
-96.8515
0
LINE
8
BLACK
6
CONTINUOUS
10
169.048
20
-96.8515
11
169.046
21
-96.8471
0
LINE
8
BLACK
6
CONTINUOUS
10
169.046
20
-96.8471
11
169.044
21
-96.8424
0
LINE
8
BLACK
6
CONTINUOUS
10
169.044
20
-96.8424
11
169.044
21
-96.8375
0
LINE
8
BLACK
6
CONTINUOUS
10
169.044
20
-96.8375
11
169.044
21
-96.8326
0
LINE
8
BLACK
6
CONTINUOUS
10
169.044
20
-96.8326
11
169.046
21
-96.8279
0
LINE
8
BLACK
6
CONTINUOUS
10
169.046
20
-96.8279
11
169.048
21
-96.8235
0
LINE
8
BLACK
6
CONTINUOUS
10
169.048
20
-96.8235
11
169.051
21
-96.8197
0
LINE
8
BLACK
6
CONTINUOUS
10
169.051
20
-96.8197
11
169.055
21
-96.8166
0
LINE
8
BLACK
6
CONTINUOUS
10
169.055
20
-96.8166
11
169.059
21
-96.8143
0
LINE
8
BLACK
6
CONTINUOUS
10
169.059
20
-96.8143
11
169.064
21
-96.8129
0
LINE
8
BLACK
6
CONTINUOUS
10
169.064
20
-96.8129
11
169.068
21
-96.8125
0
LINE
8
BLACK
6
CONTINUOUS
10
169.068
20
-96.8125
11
175.42
21
-96.8125
0
LINE
8
BLACK
6
CONTINUOUS
10
175.42
20
-96.8125
11
175.424
21
-96.8129
0
LINE
8
BLACK
6
CONTINUOUS
10
119.067
20
-96.8129
11
119.072
21
-96.8143
0
LINE
8
BLACK
6
CONTINUOUS
10
119.072
20
-96.8143
11
119.076
21
-96.8166
0
LINE
8
BLACK
6
CONTINUOUS
10
119.076
20
-96.8166
11
119.08
21
-96.8197
0
LINE
8
BLACK
6
CONTINUOUS
10
119.08
20
-96.8197
11
119.083
21
-96.8235
0
LINE
8
BLACK
6
CONTINUOUS
10
119.083
20
-96.8235
11
119.086
21
-96.8279
0
LINE
8
BLACK
6
CONTINUOUS
10
119.086
20
-96.8279
11
119.087
21
-96.8326
0
LINE
8
BLACK
6
CONTINUOUS
10
119.087
20
-96.8326
11
119.088
21
-96.8375
0
LINE
8
BLACK
6
CONTINUOUS
10
119.088
20
-96.8375
11
119.087
21
-96.8424
0
LINE
8
BLACK
6
CONTINUOUS
10
119.087
20
-96.8424
11
119.086
21
-96.8471
0
LINE
8
BLACK
6
CONTINUOUS
10
119.086
20
-96.8471
11
119.083
21
-96.8515
0
LINE
8
BLACK
6
CONTINUOUS
10
119.083
20
-96.8515
11
119.08
21
-96.8553
0
LINE
8
BLACK
6
CONTINUOUS
10
119.08
20
-96.8553
11
119.076
21
-96.8584
0
LINE
8
BLACK
6
CONTINUOUS
10
119.076
20
-96.8584
11
119.072
21
-96.8607
0
LINE
8
BLACK
6
CONTINUOUS
10
119.072
20
-96.8607
11
119.067
21
-96.8621
0
LINE
8
BLACK
6
CONTINUOUS
10
119.067
20
-96.8621
11
119.064
21
-96.8625
0
LINE
8
BLACK
6
CONTINUOUS
10
119.064
20
-96.8625
11
111.918
21
-96.8625
0
LINE
8
BLACK
6
CONTINUOUS
10
111.918
20
-96.8625
11
111.914
21
-96.8621
0
LINE
8
BLACK
6
CONTINUOUS
10
111.914
20
-96.8621
11
111.909
21
-96.8607
0
LINE
8
BLACK
6
CONTINUOUS
10
111.909
20
-96.8607
11
111.905
21
-96.8584
0
LINE
8
BLACK
6
CONTINUOUS
10
111.905
20
-96.8584
11
111.901
21
-96.8553
0
LINE
8
BLACK
6
CONTINUOUS
10
111.901
20
-96.8553
11
111.898
21
-96.8515
0
LINE
8
BLACK
6
CONTINUOUS
10
111.898
20
-96.8515
11
111.896
21
-96.8471
0
LINE
8
BLACK
6
CONTINUOUS
10
111.896
20
-96.8471
11
111.894
21
-96.8424
0
LINE
8
BLACK
6
CONTINUOUS
10
111.894
20
-96.8424
11
111.894
21
-96.8375
0
LINE
8
BLACK
6
CONTINUOUS
10
111.894
20
-96.8375
11
111.894
21
-96.8326
0
LINE
8
BLACK
6
CONTINUOUS
10
111.894
20
-96.8326
11
111.896
21
-96.8279
0
LINE
8
BLACK
6
CONTINUOUS
10
111.896
20
-96.8279
11
111.898
21
-96.8235
0
LINE
8
BLACK
6
CONTINUOUS
10
111.898
20
-96.8235
11
111.901
21
-96.8197
0
LINE
8
BLACK
6
CONTINUOUS
10
111.901
20
-96.8197
11
111.905
21
-96.8166
0
LINE
8
BLACK
6
CONTINUOUS
10
111.905
20
-96.8166
11
111.909
21
-96.8143
0
LINE
8
BLACK
6
CONTINUOUS
10
111.909
20
-96.8143
11
111.914
21
-96.8129
0
LINE
8
BLACK
6
CONTINUOUS
10
111.914
20
-96.8129
11
111.918
21
-96.8125
0
LINE
8
BLACK
6
CONTINUOUS
10
111.918
20
-96.8125
11
119.064
21
-96.8125
0
LINE
8
BLACK
6
CONTINUOUS
10
119.064
20
-96.8125
11
119.067
21
-96.8129
0
LINE
8
BLACK
6
CONTINUOUS
10
176.217
20
-58.7129
11
176.222
21
-58.7143
0
LINE
8
BLACK
6
CONTINUOUS
10
176.222
20
-58.7143
11
176.226
21
-58.7166
0
LINE
8
BLACK
6
CONTINUOUS
10
176.226
20
-58.7166
11
176.23
21
-58.7197
0
LINE
8
BLACK
6
CONTINUOUS
10
176.23
20
-58.7197
11
176.233
21
-58.7235
0
LINE
8
BLACK
6
CONTINUOUS
10
176.233
20
-58.7235
11
176.236
21
-58.7279
0
LINE
8
BLACK
6
CONTINUOUS
10
176.236
20
-58.7279
11
176.237
21
-58.7326
0
LINE
8
BLACK
6
CONTINUOUS
10
176.237
20
-58.7326
11
176.238
21
-58.7375
0
LINE
8
BLACK
6
CONTINUOUS
10
176.238
20
-58.7375
11
176.237
21
-58.7424
0
LINE
8
BLACK
6
CONTINUOUS
10
176.237
20
-58.7424
11
176.236
21
-58.7471
0
LINE
8
BLACK
6
CONTINUOUS
10
176.236
20
-58.7471
11
176.233
21
-58.7515
0
LINE
8
BLACK
6
CONTINUOUS
10
176.233
20
-58.7515
11
176.23
21
-58.7553
0
LINE
8
BLACK
6
CONTINUOUS
10
176.23
20
-58.7553
11
176.226
21
-58.7584
0
LINE
8
BLACK
6
CONTINUOUS
10
176.226
20
-58.7584
11
176.222
21
-58.7607
0
LINE
8
BLACK
6
CONTINUOUS
10
176.222
20
-58.7607
11
176.217
21
-58.7621
0
LINE
8
BLACK
6
CONTINUOUS
10
176.217
20
-58.7621
11
176.214
21
-58.7625
0
LINE
8
BLACK
6
CONTINUOUS
10
176.214
20
-58.7625
11
169.068
21
-58.7625
0
LINE
8
BLACK
6
CONTINUOUS
10
169.068
20
-58.7625
11
169.064
21
-58.7621
0
LINE
8
BLACK
6
CONTINUOUS
10
169.064
20
-58.7621
11
169.059
21
-58.7607
0
LINE
8
BLACK
6
CONTINUOUS
10
169.059
20
-58.7607
11
169.055
21
-58.7584
0
LINE
8
BLACK
6
CONTINUOUS
10
169.055
20
-58.7584
11
169.051
21
-58.7553
0
LINE
8
BLACK
6
CONTINUOUS
10
169.051
20
-58.7553
11
169.048
21
-58.7515
0
LINE
8
BLACK
6
CONTINUOUS
10
169.048
20
-58.7515
11
169.046
21
-58.7471
0
LINE
8
BLACK
6
CONTINUOUS
10
169.046
20
-58.7471
11
169.044
21
-58.7424
0
LINE
8
BLACK
6
CONTINUOUS
10
169.044
20
-58.7424
11
169.044
21
-58.7375
0
LINE
8
BLACK
6
CONTINUOUS
10
169.044
20
-58.7375
11
169.044
21
-58.7326
0
LINE
8
BLACK
6
CONTINUOUS
10
169.044
20
-58.7326
11
169.046
21
-58.7279
0
LINE
8
BLACK
6
CONTINUOUS
10
169.046
20
-58.7279
11
169.048
21
-58.7235
0
LINE
8
BLACK
6
CONTINUOUS
10
169.048
20
-58.7235
11
169.051
21
-58.7197
0
LINE
8
BLACK
6
CONTINUOUS
10
169.051
20
-58.7197
11
169.055
21
-58.7166
0
LINE
8
BLACK
6
CONTINUOUS
10
169.055
20
-58.7166
11
169.059
21
-58.7143
0
LINE
8
BLACK
6
CONTINUOUS
10
169.059
20
-58.7143
11
169.064
21
-58.7129
0
LINE
8
BLACK
6
CONTINUOUS
10
169.064
20
-58.7129
11
169.068
21
-58.7125
0
LINE
8
BLACK
6
CONTINUOUS
10
169.068
20
-58.7125
11
176.214
21
-58.7125
0
LINE
8
BLACK
6
CONTINUOUS
10
176.214
20
-58.7125
11
176.217
21
-58.7129
0
LINE
8
BLACK
6
CONTINUOUS
10
119.067
20
-58.7129
11
119.072
21
-58.7143
0
LINE
8
BLACK
6
CONTINUOUS
10
119.072
20
-58.7143
11
119.076
21
-58.7166
0
LINE
8
BLACK
6
CONTINUOUS
10
119.076
20
-58.7166
11
119.08
21
-58.7197
0
LINE
8
BLACK
6
CONTINUOUS
10
119.08
20
-58.7197
11
119.083
21
-58.7235
0
LINE
8
BLACK
6
CONTINUOUS
10
119.083
20
-58.7235
11
119.086
21
-58.7279
0
LINE
8
BLACK
6
CONTINUOUS
10
119.086
20
-58.7279
11
119.087
21
-58.7326
0
LINE
8
BLACK
6
CONTINUOUS
10
119.087
20
-58.7326
11
119.088
21
-58.7375
0
LINE
8
BLACK
6
CONTINUOUS
10
119.088
20
-58.7375
11
119.087
21
-58.7424
0
LINE
8
BLACK
6
CONTINUOUS
10
119.087
20
-58.7424
11
119.086
21
-58.7471
0
LINE
8
BLACK
6
CONTINUOUS
10
119.086
20
-58.7471
11
119.083
21
-58.7515
0
LINE
8
BLACK
6
CONTINUOUS
10
119.083
20
-58.7515
11
119.08
21
-58.7553
0
LINE
8
BLACK
6
CONTINUOUS
10
119.08
20
-58.7553
11
119.076
21
-58.7584
0
LINE
8
BLACK
6
CONTINUOUS
10
119.076
20
-58.7584
11
119.072
21
-58.7607
0
LINE
8
BLACK
6
CONTINUOUS
10
119.072
20
-58.7607
11
119.067
21
-58.7621
0
LINE
8
BLACK
6
CONTINUOUS
10
119.067
20
-58.7621
11
119.064
21
-58.7625
0
LINE
8
BLACK
6
CONTINUOUS
10
119.064
20
-58.7625
11
111.918
21
-58.7625
0
LINE
8
BLACK
6
CONTINUOUS
10
111.918
20
-58.7625
11
111.914
21
-58.7621
0
LINE
8
BLACK
6
CONTINUOUS
10
111.914
20
-58.7621
11
111.909
21
-58.7607
0
LINE
8
BLACK
6
CONTINUOUS
10
111.909
20
-58.7607
11
111.905
21
-58.7584
0
LINE
8
BLACK
6
CONTINUOUS
10
111.905
20
-58.7584
11
111.901
21
-58.7553
0
LINE
8
BLACK
6
CONTINUOUS
10
111.901
20
-58.7553
11
111.898
21
-58.7515
0
LINE
8
BLACK
6
CONTINUOUS
10
111.898
20
-58.7515
11
111.896
21
-58.7471
0
LINE
8
BLACK
6
CONTINUOUS
10
111.896
20
-58.7471
11
111.894
21
-58.7424
0
LINE
8
BLACK
6
CONTINUOUS
10
111.894
20
-58.7424
11
111.894
21
-58.7375
0
LINE
8
BLACK
6
CONTINUOUS
10
111.894
20
-58.7375
11
111.894
21
-58.7326
0
LINE
8
BLACK
6
CONTINUOUS
10
111.894
20
-58.7326
11
111.896
21
-58.7279
0
LINE
8
BLACK
6
CONTINUOUS
10
111.896
20
-58.7279
11
111.898
21
-58.7235
0
LINE
8
BLACK
6
CONTINUOUS
10
111.898
20
-58.7235
11
111.901
21
-58.7197
0
LINE
8
BLACK
6
CONTINUOUS
10
111.901
20
-58.7197
11
111.905
21
-58.7166
0
LINE
8
BLACK
6
CONTINUOUS
10
111.905
20
-58.7166
11
111.909
21
-58.7143
0
LINE
8
BLACK
6
CONTINUOUS
10
111.909
20
-58.7143
11
111.914
21
-58.7129
0
LINE
8
BLACK
6
CONTINUOUS
10
111.914
20
-58.7129
11
111.918
21
-58.7125
0
LINE
8
BLACK
6
CONTINUOUS
10
111.918
20
-58.7125
11
119.064
21
-58.7125
0
LINE
8
BLACK
6
CONTINUOUS
10
119.064
20
-58.7125
11
119.067
21
-58.7129
  0
ENDSEC
  0
EOF
