0
SECTION
2
HEADER
9
$INSUNITS
70
4
9
$ACADVER
1
AC1014
9
$HANDSEED
5
FFFF
0
ENDSEC
0
SECTION
2
TABLES
0
TABLE
2
VPORT
5
8
100
AcDbSymbolTable
0
ENDTAB
0
TABLE
2
LTYPE
5
5
100
AcDbSymbolTable
0
LTYPE
5
14
100
AcDbSymbolTableRecord
100
AcDbLinetypeTableRecord
2
BYBLOCK
70
0
0
LTYPE
5
15
100
AcDbSymbolTableRecord
100
AcDbLinetypeTableRecord
2
BYLAYER
70
0
0
ENDTAB
0
TABLE
2
LAYER
5
2
100
AcDbSymbolTable
70
2
0
LAYER
5
50
100
AcDbSymbolTableRecord
100
AcDbLayerTableRecord
2
0
70
0
6
CONTINUOUS
0
ENDTAB
0
TABLE
2
STYLE
5
3
100
AcDbSymbolTable
70
1
0
STYLE
5
11
100
AcDbSymbolTableRecord
100
AcDbTextStyleTableRecord
2
STANDARD
70
0
0
ENDTAB
0
TABLE
2
VIEW
5
6
100
AcDbSymbolTable
70
0
0
ENDTAB
0
TABLE
2
UCS
5
7
100
AcDbSymbolTable
70
0
0
ENDTAB
0
TABLE
2
APPID
5
9
100
AcDbSymbolTable
70
2
0
APPID
5
12
100
AcDbSymbolTableRecord
100
AcDbRegAppTableRecord
2
ACAD
70
0
0
ENDTAB
0
TABLE
2
DIMSTYLE
5
A
100
AcDbSymbolTable
70
1
0
ENDTAB
0
TABLE
2
BLOCK_RECORD
5
1
100
AcDbSymbolTable
70
1
0
BLOCK_RECORD
5
1F
100
AcDbSymbolTableRecord
100
AcDbBlockTableRecord
2
*MODEL_SPACE
0
BLOCK_RECORD
5
1B
100
AcDbSymbolTableRecord
100
AcDbBlockTableRecord
2
*PAPER_SPACE
0
ENDTAB
0
ENDSEC
0
SECTION
2
BLOCKS
0
BLOCK
5
20
100
AcDbEntity
100
AcDbBlockBegin
2
*MODEL_SPACE
0
ENDBLK
5
21
100
AcDbEntity
100
AcDbBlockEnd
0
BLOCK
5
1C
100
AcDbEntity
100
AcDbBlockBegin
2
*PAPER_SPACE
0
ENDBLK
5
1D
100
AcDbEntity
100
AcDbBlockEnd
0
ENDSEC
0
SECTION
2
ENTITIES
0
LWPOLYLINE
5
100
100
AcDbEntity
8
0
100
AcDbPolyline
90
4
70
1
43
0.0
10
120.310996936479
20
-133.44102959979435
10
133.83369693647899
20
-137.06382959979436
10
137.458196936479
20
-123.54112959979435
10
123.935496936479
20
-119.91692959979434
0
LWPOLYLINE
5
101
100
AcDbEntity
8
0
100
AcDbPolyline
90
4
70
1
43
0.0
10
76.296646936478993
20
-61.340729599794344
10
76.296646936478993
20
-75.340029599794349
10
90.296196936479006
20
-75.340029599794349
10
90.296196936479006
20
-61.340729599794344
0
LWPOLYLINE
5
102
100
AcDbEntity
8
0
100
AcDbPolyline
90
4
70
1
43
0.0
10
109.345996936479
20
-80.390729599794355
10
95.346696936478992
20
-80.390729599794355
10
95.346696936478992
20
-94.39002959979436
10
109.345996936479
20
-94.39002959979436
0
LWPOLYLINE
5
103
100
AcDbEntity
8
0
100
AcDbPolyline
90
4
70
1
43
0.0
10
114.396696936479
20
-113.44002959979436
10
128.39599693647901
20
-113.44002959979436
10
128.39599693647901
20
-99.440729599794366
10
114.396696936479
20
-99.440729599794366
0
LWPOLYLINE
5
104
100
AcDbEntity
8
0
100
AcDbPolyline
90
4
70
1
43
0.0
10
166.495996936479
20
-94.39002959979436
10
166.495996936479
20
-80.390729599794355
10
152.496696936479
20
-80.390729599794355
10
152.496696936479
20
-94.39002959979436
0
LWPOLYLINE
5
105
100
AcDbEntity
8
0
100
AcDbPolyline
90
4
70
1
43
0.0
10
133.44669693647901
20
-42.291229599794349
10
133.44669693647901
20
-56.290029599794366
10
147.44599693647899
20
-56.290029599794366
10
147.44599693647899
20
-42.291229599794349
0
LWPOLYLINE
5
106
100
AcDbEntity
8
0
100
AcDbPolyline
90
4
70
1
43
0.0
10
185.54599693647901
20
-94.39002959979436
10
185.54599693647901
20
-80.390729599794355
10
171.54529693647902
20
-80.390729599794355
10
171.54529693647902
20
-94.39002959979436
0
LWPOLYLINE
5
107
100
AcDbEntity
8
0
100
AcDbPolyline
90
4
70
1
43
0.0
10
171.54529693647902
20
-61.340729599794344
10
171.54529693647902
20
-75.340029599794349
10
185.54599693647901
20
-75.340029599794349
10
185.54599693647901
20
-61.340729599794344
0
LWPOLYLINE
5
108
100
AcDbEntity
8
0
100
AcDbPolyline
90
4
70
1
43
0.0
10
133.44669693647901
20
-75.340029599794349
10
147.44599693647899
20
-75.340029599794349
10
147.44599693647899
20
-61.340729599794344
10
133.44669693647901
20
-61.340729599794344
0
LWPOLYLINE
5
109
100
AcDbEntity
8
0
100
AcDbPolyline
90
4
70
1
43
0.0
10
133.44669693647901
20
-94.39002959979436
10
147.44599693647899
20
-94.39002959979436
10
147.44599693647899
20
-80.390729599794355
10
133.44669693647901
20
-80.390729599794355
0
LWPOLYLINE
5
110
100
AcDbEntity
8
0
100
AcDbPolyline
90
4
70
1
43
0.0
10
109.345996936479
20
-113.44002959979436
10
109.345996936479
20
-99.440729599794366
10
95.346696936478992
20
-99.440729599794366
10
95.346696936478992
20
-113.44002959979436
0
LWPOLYLINE
5
111
100
AcDbEntity
8
0
100
AcDbPolyline
90
4
70
1
43
0.0
10
114.396696936479
20
-94.39002959979436
10
128.39599693647901
20
-94.39002959979436
10
128.39599693647901
20
-80.390729599794355
10
114.396696936479
20
-80.390729599794355
0
LWPOLYLINE
5
112
100
AcDbEntity
8
0
100
AcDbPolyline
90
4
70
1
43
0.0
10
76.296646936478993
20
-56.290029599794366
10
90.296196936479006
20
-56.290029599794366
10
90.296196936479006
20
-42.291229599794349
10
76.296646936478993
20
-42.291229599794349
0
LWPOLYLINE
5
113
100
AcDbEntity
8
0
100
AcDbPolyline
90
4
70
1
43
0.0
10
155.85909693647901
20
-128.47172959979434
10
142.33639693647902
20
-124.84752959979434
10
138.71229693647902
20
-138.37022959979436
10
152.23499693647904
20
-141.99447959979435
0
LWPOLYLINE
5
114
100
AcDbEntity
8
0
100
AcDbPolyline
90
4
70
1
43
0.0
10
114.396696936479
20
-42.291229599794349
10
114.396696936479
20
-56.290029599794366
10
128.39599693647901
20
-56.290029599794366
10
128.39599693647901
20
-42.291229599794349
0
LWPOLYLINE
5
115
100
AcDbEntity
8
0
100
AcDbPolyline
90
4
70
1
43
0.0
10
95.346696936478992
20
-75.340029599794349
10
109.345996936479
20
-75.340029599794349
10
109.345996936479
20
-61.340729599794344
10
95.346696936478992
20
-61.340729599794344
0
LWPOLYLINE
5
116
100
AcDbEntity
8
0
100
AcDbPolyline
90
4
70
1
43
0.0
10
90.296196936479006
20
-80.390729599794355
10
76.296646936478993
20
-80.390729599794355
10
76.296646936478993
20
-94.39002959979436
10
90.296196936479006
20
-94.39002959979436
0
LWPOLYLINE
5
117
100
AcDbEntity
8
0
100
AcDbPolyline
90
4
70
1
43
0.0
10
133.44669693647901
20
-99.440729599794366
10
133.44669693647901
20
-113.44002959979436
10
147.44599693647899
20
-113.44002959979436
10
147.44599693647899
20
-99.440729599794366
0
LWPOLYLINE
5
118
100
AcDbEntity
8
0
100
AcDbPolyline
90
4
70
1
43
0.0
10
152.496696936479
20
-61.340729599794344
10
152.496696936479
20
-75.340029599794349
10
166.495996936479
20
-75.340029599794349
10
166.495996936479
20
-61.340729599794344
0
LWPOLYLINE
5
119
100
AcDbEntity
8
0
100
AcDbPolyline
90
4
70
1
43
0.0
10
190.59499693647899
20
-56.290029599794366
10
204.595996936479
20
-56.290029599794366
10
204.595996936479
20
-42.291229599794349
10
190.59499693647899
20
-42.291229599794349
0
LWPOLYLINE
5
120
100
AcDbEntity
8
0
100
AcDbPolyline
90
4
70
1
43
0.0
10
185.54599693647901
20
-113.44002959979436
10
185.54599693647901
20
-99.440729599794366
10
171.54529693647902
20
-99.440729599794366
10
171.54529693647902
20
-113.44002959979436
0
LWPOLYLINE
5
121
100
AcDbEntity
8
0
100
AcDbPolyline
90
4
70
1
43
0.0
10
185.54599693647901
20
-42.291229599794349
10
171.54529693647902
20
-42.291229599794349
10
171.54529693647902
20
-56.290029599794366
10
185.54599693647901
20
-56.290029599794366
0
LWPOLYLINE
5
122
100
AcDbEntity
8
0
100
AcDbPolyline
90
4
70
1
43
0.0
10
166.495996936479
20
-56.290029599794366
10
166.495996936479
20
-42.291229599794349
10
152.496696936479
20
-42.291229599794349
10
152.496696936479
20
-56.290029599794366
0
LWPOLYLINE
5
123
100
AcDbEntity
8
0
100
AcDbPolyline
90
4
70
1
43
0.0
10
152.496696936479
20
-113.44002959979436
10
166.495996936479
20
-113.44002959979436
10
166.495996936479
20
-99.440729599794366
10
152.496696936479
20
-99.440729599794366
0
LWPOLYLINE
5
124
100
AcDbEntity
8
0
100
AcDbPolyline
90
4
70
1
43
0.0
10
90.296196936479006
20
-113.44002959979436
10
90.296196936479006
20
-99.440729599794366
10
76.296646936478993
20
-99.440729599794366
10
76.296646936478993
20
-113.44002959979436
0
LWPOLYLINE
5
125
100
AcDbEntity
8
0
100
AcDbPolyline
90
4
70
1
43
0.0
10
114.396696936479
20
-75.340029599794349
10
128.39599693647901
20
-75.340029599794349
10
128.39599693647901
20
-61.340729599794344
10
114.396696936479
20
-61.340729599794344
0
LWPOLYLINE
5
126
100
AcDbEntity
8
0
100
AcDbPolyline
90
4
70
1
43
0.0
10
109.345996936479
20
-56.290029599794366
10
109.345996936479
20
-42.291229599794349
10
95.346696936478992
20
-42.291229599794349
10
95.346696936478992
20
-56.290029599794366
0
LWPOLYLINE
5
127
100
AcDbEntity
8
0
100
AcDbPolyline
90
4
70
1
43
0.0
10
170.637296936479
20
-146.92509959979435
10
174.25999693647901
20
-133.40102959979436
10
160.73729693647897
20
-129.77812959979434
10
157.113196936479
20
-143.30085959979436
0
LWPOLYLINE
5
128
100
AcDbEntity
8
0
100
AcDbPolyline
90
15
70
1
43
0.0
10
207.14400000000001
20
-39.712499999999999
10
207.14400000000001
20
-58.712499999999999
10
188.12
20
-58.712499999999999
10
188.11900000000006
20
-58.712400000000002
10
188.11400000000003
20
-58.712900000000005
10
188.10900000000001
20
-58.714300000000001
10
188.10500000000002
20
-58.7166
10
188.10100000000003
20
-58.71970000000001
10
188.09799999999998
20
-58.723500000000008
10
188.096
20
-58.727900000000005
10
188.09400000000005
20
-58.732600000000005
10
188.09400000000005
20
-115.88200000000001
10
173.02099999999999
20
-149.99400000000003
10
73.797899999999998
20
-149.99400000000003
10
73.843700000000013
20
-39.712499999999999
0
LINE
5
129
100
AcDbEntity
8
0
100
AcDbLine
10
73.843700000000013
20
-39.712499999999999
30
0
11
73.797899999999998
21
-149.99400000000003
31
0
0
LINE
5
130
100
AcDbEntity
8
0
100
AcDbLine
10
173.02099999999999
20
-149.99400000000003
30
0
11
73.797899999999998
21
-149.99400000000003
31
0
0
LINE
5
131
100
AcDbEntity
8
0
100
AcDbLine
10
173.02099999999999
20
-149.99400000000003
30
0
11
188.09400000000005
21
-115.88200000000001
31
0
0
LINE
5
132
100
AcDbEntity
8
0
100
AcDbLine
10
188.09400000000005
20
-115.88200000000001
30
0
11
188.11900000000006
21
-58.712400000000002
31
0
0
LINE
5
133
100
AcDbEntity
8
0
100
AcDbLine
10
188.09400000000005
20
-58.732600000000005
30
0
11
207.14400000000001
21
-58.712499999999999
31
0
0
LINE
5
134
100
AcDbEntity
8
0
100
AcDbLine
10
207.14400000000001
20
-58.712499999999999
30
0
11
207.14400000000001
21
-39.712499999999999
31
0
0
LINE
5
135
100
AcDbEntity
8
0
100
AcDbLine
10
207.14400000000001
20
-39.712499999999999
30
0
11
73.843700000000013
21
-39.712499999999999
31
0
0
LWPOLYLINE
5
136
100
AcDbEntity
8
0
100
AcDbPolyline
90
4
70
1
43
0.0
10
90.296196936479006
20
-61.340729599794344
10
76.296646936478993
20
-61.340729599794344
10
76.296646936478993
20
-75.340029599794349
10
90.296196936479006
20
-75.340029599794349
0
LWPOLYLINE
5
137
100
AcDbEntity
8
0
100
AcDbPolyline
90
4
70
1
43
0.0
10
90.296196936479006
20
-80.390729599794355
10
76.296646936478993
20
-80.390729599794355
10
76.296646936478993
20
-94.39002959979436
10
90.296196936479006
20
-94.39002959979436
0
LWPOLYLINE
5
138
100
AcDbEntity
8
0
100
AcDbPolyline
90
4
70
1
43
0.0
10
90.296196936479006
20
-99.440729599794366
10
76.296646936478993
20
-99.440729599794366
10
76.296646936478993
20
-113.44002959979436
10
90.296196936479006
20
-113.44002959979436
0
LWPOLYLINE
5
139
100
AcDbEntity
8
0
100
AcDbPolyline
90
4
70
1
43
0.0
10
109.345996936479
20
-99.440729599794366
10
95.346696936478992
20
-99.440729599794366
10
95.346696936478992
20
-113.44002959979436
10
109.345996936479
20
-113.44002959979436
0
LWPOLYLINE
5
140
100
AcDbEntity
8
0
100
AcDbPolyline
90
4
70
1
43
0.0
10
128.39599693647901
20
-99.440729599794366
10
114.396696936479
20
-99.440729599794366
10
114.396696936479
20
-113.44002959979436
10
128.39599693647901
20
-113.44002959979436
0
LWPOLYLINE
5
141
100
AcDbEntity
8
0
100
AcDbPolyline
90
4
70
1
43
0.0
10
147.44599693647899
20
-99.440729599794366
10
133.44669693647901
20
-99.440729599794366
10
133.44669693647901
20
-113.44002959979436
10
147.44599693647899
20
-113.44002959979436
0
LWPOLYLINE
5
142
100
AcDbEntity
8
0
100
AcDbPolyline
90
4
70
1
43
0.0
10
166.495996936479
20
-99.440729599794366
10
152.496696936479
20
-99.440729599794366
10
152.496696936479
20
-113.44002959979436
10
166.495996936479
20
-113.44002959979436
0
LWPOLYLINE
5
143
100
AcDbEntity
8
0
100
AcDbPolyline
90
4
70
1
43
0.0
10
185.54599693647901
20
-99.440729599794366
10
171.54529693647902
20
-99.440729599794366
10
171.54529693647902
20
-113.44002959979436
10
185.54599693647901
20
-113.44002959979436
0
LWPOLYLINE
5
144
100
AcDbEntity
8
0
100
AcDbPolyline
90
4
70
1
43
0.0
10
109.345996936479
20
-80.390729599794355
10
95.346696936478992
20
-80.390729599794355
10
95.346696936478992
20
-94.39002959979436
10
109.345996936479
20
-94.39002959979436
0
LWPOLYLINE
5
145
100
AcDbEntity
8
0
100
AcDbPolyline
90
4
70
1
43
0.0
10
109.345996936479
20
-61.340729599794344
10
95.346696936478992
20
-61.340729599794344
10
95.346696936478992
20
-75.340029599794349
10
109.345996936479
20
-75.340029599794349
0
LWPOLYLINE
5
146
100
AcDbEntity
8
0
100
AcDbPolyline
90
4
70
1
43
0.0
10
109.345996936479
20
-42.291229599794349
10
95.346696936478992
20
-42.291229599794349
10
95.346696936478992
20
-56.290029599794366
10
109.345996936479
20
-56.290029599794366
0
LWPOLYLINE
5
147
100
AcDbEntity
8
0
100
AcDbPolyline
90
4
70
1
43
0.0
10
128.39599693647901
20
-42.291229599794349
10
114.396696936479
20
-42.291229599794349
10
114.396696936479
20
-56.290029599794366
10
128.39599693647901
20
-56.290029599794366
0
LWPOLYLINE
5
148
100
AcDbEntity
8
0
100
AcDbPolyline
90
4
70
1
43
0.0
10
128.39599693647901
20
-61.340729599794344
10
114.396696936479
20
-61.340729599794344
10
114.396696936479
20
-75.340029599794349
10
128.39599693647901
20
-75.340029599794349
0
LWPOLYLINE
5
149
100
AcDbEntity
8
0
100
AcDbPolyline
90
4
70
1
43
0.0
10
147.44599693647899
20
-61.340729599794344
10
133.44669693647901
20
-61.340729599794344
10
133.44669693647901
20
-75.340029599794349
10
147.44599693647899
20
-75.340029599794349
0
LWPOLYLINE
5
150
100
AcDbEntity
8
0
100
AcDbPolyline
90
4
70
1
43
0.0
10
147.44599693647899
20
-80.390729599794355
10
133.44669693647901
20
-80.390729599794355
10
133.44669693647901
20
-94.39002959979436
10
147.44599693647899
20
-94.39002959979436
0
LWPOLYLINE
5
151
100
AcDbEntity
8
0
100
AcDbPolyline
90
4
70
1
43
0.0
10
128.39599693647901
20
-80.390729599794355
10
114.396696936479
20
-80.390729599794355
10
114.396696936479
20
-94.39002959979436
10
128.39599693647901
20
-94.39002959979436
0
LWPOLYLINE
5
152
100
AcDbEntity
8
0
100
AcDbPolyline
90
4
70
1
43
0.0
10
90.296196936479006
20
-42.291229599794349
10
76.296646936478993
20
-42.291229599794349
10
76.296646936478993
20
-56.290029599794366
10
90.296196936479006
20
-56.290029599794366
0
LWPOLYLINE
5
153
100
AcDbEntity
8
0
100
AcDbPolyline
90
4
70
1
43
0.0
10
147.44599693647899
20
-42.291229599794349
10
133.44669693647901
20
-42.291229599794349
10
133.44669693647901
20
-56.290029599794366
10
147.44599693647899
20
-56.290029599794366
0
LWPOLYLINE
5
154
100
AcDbEntity
8
0
100
AcDbPolyline
90
4
70
1
43
0.0
10
166.495996936479
20
-42.291229599794349
10
152.496696936479
20
-42.291229599794349
10
152.496696936479
20
-56.290029599794366
10
166.495996936479
20
-56.290029599794366
0
LWPOLYLINE
5
155
100
AcDbEntity
8
0
100
AcDbPolyline
90
4
70
1
43
0.0
10
185.54599693647901
20
-42.291229599794349
10
171.54529693647902
20
-42.291229599794349
10
171.54529693647902
20
-56.290029599794366
10
185.54599693647901
20
-56.290029599794366
0
LWPOLYLINE
5
156
100
AcDbEntity
8
0
100
AcDbPolyline
90
4
70
1
43
0.0
10
204.595996936479
20
-42.291229599794349
10
190.59499693647899
20
-42.291229599794349
10
190.59499693647899
20
-56.290029599794366
10
204.595996936479
20
-56.290029599794366
0
LWPOLYLINE
5
157
100
AcDbEntity
8
0
100
AcDbPolyline
90
4
70
1
43
0.0
10
166.495996936479
20
-61.340729599794344
10
152.496696936479
20
-61.340729599794344
10
152.496696936479
20
-75.340029599794349
10
166.495996936479
20
-75.340029599794349
0
LWPOLYLINE
5
158
100
AcDbEntity
8
0
100
AcDbPolyline
90
4
70
1
43
0.0
10
185.54599693647901
20
-61.340729599794344
10
171.54529693647902
20
-61.340729599794344
10
171.54529693647902
20
-75.340029599794349
10
185.54599693647901
20
-75.340029599794349
0
LWPOLYLINE
5
159
100
AcDbEntity
8
0
100
AcDbPolyline
90
4
70
1
43
0.0
10
185.54599693647901
20
-80.390729599794355
10
171.54529693647902
20
-80.390729599794355
10
171.54529693647902
20
-94.39002959979436
10
185.54599693647901
20
-94.39002959979436
0
LWPOLYLINE
5
160
100
AcDbEntity
8
0
100
AcDbPolyline
90
4
70
1
43
0.0
10
166.495996936479
20
-80.390729599794355
10
152.496696936479
20
-80.390729599794355
10
152.496696936479
20
-94.39002959979436
10
166.495996936479
20
-94.39002959979436
0
LWPOLYLINE
5
161
100
AcDbEntity
8
0
100
AcDbPolyline
90
4
70
1
43
0.0
10
120.310996936479
20
-133.44102959979435
10
123.935496936479
20
-119.91692959979434
10
137.458196936479
20
-123.54112959979435
10
133.83369693647899
20
-137.06382959979436
0
LWPOLYLINE
5
162
100
AcDbEntity
8
0
100
AcDbPolyline
90
4
70
1
43
0.0
10
138.71229693647902
20
-138.37022959979436
10
142.33639693647902
20
-124.84752959979434
10
155.85909693647901
20
-128.47172959979434
10
152.23499693647904
20
-141.99447959979435
0
LINE
5
163
100
AcDbEntity
8
0
100
AcDbLine
10
160.73729693647897
20
-129.77812959979434
30
0
11
157.113196936479
21
-143.30085959979436
31
0
0
LINE
5
164
100
AcDbEntity
8
0
100
AcDbLine
10
157.113196936479
20
-143.30085959979436
30
0
11
170.637296936479
21
-146.92509959979435
31
0
0
LINE
5
165
100
AcDbEntity
8
0
100
AcDbLine
10
170.637296936479
20
-146.92509959979435
30
0
11
174.25999693647901
21
-133.40102959979436
31
0
0
LINE
5
166
100
AcDbEntity
8
0
100
AcDbLine
10
174.25999693647901
20
-133.40102959979436
30
0
11
160.73729693647897
21
-129.77812959979434
31
0
0
ENDSEC
0
SECTION
2
OBJECTS
0
DICTIONARY
5
C
100
AcDbDictionary
3
ACAD_GROUP
350
D
3
ACAD_MLINESTYLE
350
17
0
DICTIONARY
5
D
100
AcDbDictionary
0
DICTIONARY
5
1A
330
C
100
AcDbDictionary
0
DICTIONARY
5
17
100
AcDbDictionary
0
ENDSEC
0
EOF
