G04 #@! TF.GenerationSoftware,KiCad,Pcbnew,(5.1.4)-1*
G04 #@! TF.CreationDate,2022-03-17T16:03:27-07:00*
G04 #@! TF.ProjectId,Dweebs-Macro-Mini,44776565-6273-42d4-9d61-63726f2d4d69,rev?*
G04 #@! TF.SameCoordinates,Original*
G04 #@! TF.FileFunction,Soldermask,Top*
G04 #@! TF.FilePolarity,Negative*
%FSLAX46Y46*%
G04 Gerber Fmt 4.6, Leading zero omitted, Abs format (unit mm)*
G04 Created by KiCad (PCBNEW (5.1.4)-1) date 2022-03-17 16:03:27*
%MOMM*%
%LPD*%
G04 APERTURE LIST*
%ADD10C,0.050000*%
%ADD11C,0.100000*%
G04 APERTURE END LIST*
D10*
X73772884Y-150018562D02*
X73818750Y-39687500D01*
X173037500Y-150018750D02*
X188118750Y-115887500D01*
X169068750Y-150018750D02*
X173037500Y-150018750D01*
X169068750Y-150018750D02*
X73772884Y-150018562D01*
X188118750Y-58737500D02*
X188118750Y-115887500D01*
X207168750Y-58737500D02*
X188118750Y-58737500D01*
X207168750Y-39687500D02*
X207168750Y-58737500D01*
X73818750Y-39687500D02*
X207168750Y-39687500D01*
D11*
G36*
X134887848Y-141215783D02*
G01*
X135352100Y-141408082D01*
X135352102Y-141408083D01*
X135769918Y-141687259D01*
X136125241Y-142042582D01*
X136404417Y-142460398D01*
X136404418Y-142460400D01*
X136596717Y-142924652D01*
X136694750Y-143417497D01*
X136694750Y-143920003D01*
X136596717Y-144412848D01*
X136404418Y-144877100D01*
X136404417Y-144877102D01*
X136125241Y-145294918D01*
X135769918Y-145650241D01*
X135352102Y-145929417D01*
X135352101Y-145929418D01*
X135352100Y-145929418D01*
X134887848Y-146121717D01*
X134395003Y-146219750D01*
X133892497Y-146219750D01*
X133399652Y-146121717D01*
X132935400Y-145929418D01*
X132935399Y-145929418D01*
X132935398Y-145929417D01*
X132517582Y-145650241D01*
X132162259Y-145294918D01*
X131883083Y-144877102D01*
X131883082Y-144877100D01*
X131690783Y-144412848D01*
X131592750Y-143920003D01*
X131592750Y-143417497D01*
X131690783Y-142924652D01*
X131883082Y-142460400D01*
X131883083Y-142460398D01*
X132162259Y-142042582D01*
X132517582Y-141687259D01*
X132935398Y-141408083D01*
X132935400Y-141408082D01*
X133399652Y-141215783D01*
X133892497Y-141117750D01*
X134395003Y-141117750D01*
X134887848Y-141215783D01*
X134887848Y-141215783D01*
G37*
G36*
X170912007Y-138854386D02*
G01*
X171080529Y-138924190D01*
X171232194Y-139025529D01*
X171361175Y-139154510D01*
X171462514Y-139306175D01*
X171532318Y-139474697D01*
X171567903Y-139653598D01*
X171567903Y-139836004D01*
X171532318Y-140014905D01*
X171462514Y-140183427D01*
X171361175Y-140335092D01*
X171232194Y-140464073D01*
X171080529Y-140565412D01*
X170912007Y-140635216D01*
X170733106Y-140670801D01*
X170550700Y-140670801D01*
X170371799Y-140635216D01*
X170203277Y-140565412D01*
X170051612Y-140464073D01*
X169922631Y-140335092D01*
X169821292Y-140183427D01*
X169751488Y-140014905D01*
X169715903Y-139836004D01*
X169715903Y-139653598D01*
X169751488Y-139474697D01*
X169821292Y-139306175D01*
X169922631Y-139154510D01*
X170051612Y-139025529D01*
X170203277Y-138924190D01*
X170371799Y-138854386D01*
X170550700Y-138818801D01*
X170733106Y-138818801D01*
X170912007Y-138854386D01*
X170912007Y-138854386D01*
G37*
G36*
X166331474Y-136463684D02*
G01*
X166479284Y-136524909D01*
X166703623Y-136617833D01*
X167038548Y-136841623D01*
X167323377Y-137126452D01*
X167547167Y-137461377D01*
X167585460Y-137553825D01*
X167701316Y-137833526D01*
X167779900Y-138228594D01*
X167779900Y-138631406D01*
X167701316Y-139026474D01*
X167648281Y-139154511D01*
X167547167Y-139398623D01*
X167323377Y-139733548D01*
X167038548Y-140018377D01*
X166703623Y-140242167D01*
X166549474Y-140306017D01*
X166331474Y-140396316D01*
X165936406Y-140474900D01*
X165533594Y-140474900D01*
X165138526Y-140396316D01*
X164920526Y-140306017D01*
X164766377Y-140242167D01*
X164431452Y-140018377D01*
X164146623Y-139733548D01*
X163922833Y-139398623D01*
X163821719Y-139154511D01*
X163768684Y-139026474D01*
X163690100Y-138631406D01*
X163690100Y-138228594D01*
X163768684Y-137833526D01*
X163884540Y-137553825D01*
X163922833Y-137461377D01*
X164146623Y-137126452D01*
X164431452Y-136841623D01*
X164766377Y-136617833D01*
X164990716Y-136524909D01*
X165138526Y-136463684D01*
X165533594Y-136385100D01*
X165936406Y-136385100D01*
X166331474Y-136463684D01*
X166331474Y-136463684D01*
G37*
G36*
X100578228Y-136468703D02*
G01*
X100733100Y-136532853D01*
X100872481Y-136625985D01*
X100991015Y-136744519D01*
X101084147Y-136883900D01*
X101148297Y-137038772D01*
X101181000Y-137203184D01*
X101181000Y-137370816D01*
X101148297Y-137535228D01*
X101084147Y-137690100D01*
X100991015Y-137829481D01*
X100872481Y-137948015D01*
X100733100Y-138041147D01*
X100578228Y-138105297D01*
X100413816Y-138138000D01*
X100246184Y-138138000D01*
X100081772Y-138105297D01*
X99926900Y-138041147D01*
X99787519Y-137948015D01*
X99668985Y-137829481D01*
X99575853Y-137690100D01*
X99511703Y-137535228D01*
X99479000Y-137370816D01*
X99479000Y-137203184D01*
X99511703Y-137038772D01*
X99575853Y-136883900D01*
X99668985Y-136744519D01*
X99787519Y-136625985D01*
X99926900Y-136532853D01*
X100081772Y-136468703D01*
X100246184Y-136436000D01*
X100413816Y-136436000D01*
X100578228Y-136468703D01*
X100578228Y-136468703D01*
G37*
G36*
X78321000Y-138138000D02*
G01*
X76619000Y-138138000D01*
X76619000Y-136436000D01*
X78321000Y-136436000D01*
X78321000Y-138138000D01*
X78321000Y-138138000D01*
G37*
G36*
X80258228Y-136468703D02*
G01*
X80413100Y-136532853D01*
X80552481Y-136625985D01*
X80671015Y-136744519D01*
X80764147Y-136883900D01*
X80828297Y-137038772D01*
X80861000Y-137203184D01*
X80861000Y-137370816D01*
X80828297Y-137535228D01*
X80764147Y-137690100D01*
X80671015Y-137829481D01*
X80552481Y-137948015D01*
X80413100Y-138041147D01*
X80258228Y-138105297D01*
X80093816Y-138138000D01*
X79926184Y-138138000D01*
X79761772Y-138105297D01*
X79606900Y-138041147D01*
X79467519Y-137948015D01*
X79348985Y-137829481D01*
X79255853Y-137690100D01*
X79191703Y-137535228D01*
X79159000Y-137370816D01*
X79159000Y-137203184D01*
X79191703Y-137038772D01*
X79255853Y-136883900D01*
X79348985Y-136744519D01*
X79467519Y-136625985D01*
X79606900Y-136532853D01*
X79761772Y-136468703D01*
X79926184Y-136436000D01*
X80093816Y-136436000D01*
X80258228Y-136468703D01*
X80258228Y-136468703D01*
G37*
G36*
X82798228Y-136468703D02*
G01*
X82953100Y-136532853D01*
X83092481Y-136625985D01*
X83211015Y-136744519D01*
X83304147Y-136883900D01*
X83368297Y-137038772D01*
X83401000Y-137203184D01*
X83401000Y-137370816D01*
X83368297Y-137535228D01*
X83304147Y-137690100D01*
X83211015Y-137829481D01*
X83092481Y-137948015D01*
X82953100Y-138041147D01*
X82798228Y-138105297D01*
X82633816Y-138138000D01*
X82466184Y-138138000D01*
X82301772Y-138105297D01*
X82146900Y-138041147D01*
X82007519Y-137948015D01*
X81888985Y-137829481D01*
X81795853Y-137690100D01*
X81731703Y-137535228D01*
X81699000Y-137370816D01*
X81699000Y-137203184D01*
X81731703Y-137038772D01*
X81795853Y-136883900D01*
X81888985Y-136744519D01*
X82007519Y-136625985D01*
X82146900Y-136532853D01*
X82301772Y-136468703D01*
X82466184Y-136436000D01*
X82633816Y-136436000D01*
X82798228Y-136468703D01*
X82798228Y-136468703D01*
G37*
G36*
X85338228Y-136468703D02*
G01*
X85493100Y-136532853D01*
X85632481Y-136625985D01*
X85751015Y-136744519D01*
X85844147Y-136883900D01*
X85908297Y-137038772D01*
X85941000Y-137203184D01*
X85941000Y-137370816D01*
X85908297Y-137535228D01*
X85844147Y-137690100D01*
X85751015Y-137829481D01*
X85632481Y-137948015D01*
X85493100Y-138041147D01*
X85338228Y-138105297D01*
X85173816Y-138138000D01*
X85006184Y-138138000D01*
X84841772Y-138105297D01*
X84686900Y-138041147D01*
X84547519Y-137948015D01*
X84428985Y-137829481D01*
X84335853Y-137690100D01*
X84271703Y-137535228D01*
X84239000Y-137370816D01*
X84239000Y-137203184D01*
X84271703Y-137038772D01*
X84335853Y-136883900D01*
X84428985Y-136744519D01*
X84547519Y-136625985D01*
X84686900Y-136532853D01*
X84841772Y-136468703D01*
X85006184Y-136436000D01*
X85173816Y-136436000D01*
X85338228Y-136468703D01*
X85338228Y-136468703D01*
G37*
G36*
X87878228Y-136468703D02*
G01*
X88033100Y-136532853D01*
X88172481Y-136625985D01*
X88291015Y-136744519D01*
X88384147Y-136883900D01*
X88448297Y-137038772D01*
X88481000Y-137203184D01*
X88481000Y-137370816D01*
X88448297Y-137535228D01*
X88384147Y-137690100D01*
X88291015Y-137829481D01*
X88172481Y-137948015D01*
X88033100Y-138041147D01*
X87878228Y-138105297D01*
X87713816Y-138138000D01*
X87546184Y-138138000D01*
X87381772Y-138105297D01*
X87226900Y-138041147D01*
X87087519Y-137948015D01*
X86968985Y-137829481D01*
X86875853Y-137690100D01*
X86811703Y-137535228D01*
X86779000Y-137370816D01*
X86779000Y-137203184D01*
X86811703Y-137038772D01*
X86875853Y-136883900D01*
X86968985Y-136744519D01*
X87087519Y-136625985D01*
X87226900Y-136532853D01*
X87381772Y-136468703D01*
X87546184Y-136436000D01*
X87713816Y-136436000D01*
X87878228Y-136468703D01*
X87878228Y-136468703D01*
G37*
G36*
X90418228Y-136468703D02*
G01*
X90573100Y-136532853D01*
X90712481Y-136625985D01*
X90831015Y-136744519D01*
X90924147Y-136883900D01*
X90988297Y-137038772D01*
X91021000Y-137203184D01*
X91021000Y-137370816D01*
X90988297Y-137535228D01*
X90924147Y-137690100D01*
X90831015Y-137829481D01*
X90712481Y-137948015D01*
X90573100Y-138041147D01*
X90418228Y-138105297D01*
X90253816Y-138138000D01*
X90086184Y-138138000D01*
X89921772Y-138105297D01*
X89766900Y-138041147D01*
X89627519Y-137948015D01*
X89508985Y-137829481D01*
X89415853Y-137690100D01*
X89351703Y-137535228D01*
X89319000Y-137370816D01*
X89319000Y-137203184D01*
X89351703Y-137038772D01*
X89415853Y-136883900D01*
X89508985Y-136744519D01*
X89627519Y-136625985D01*
X89766900Y-136532853D01*
X89921772Y-136468703D01*
X90086184Y-136436000D01*
X90253816Y-136436000D01*
X90418228Y-136468703D01*
X90418228Y-136468703D01*
G37*
G36*
X92958228Y-136468703D02*
G01*
X93113100Y-136532853D01*
X93252481Y-136625985D01*
X93371015Y-136744519D01*
X93464147Y-136883900D01*
X93528297Y-137038772D01*
X93561000Y-137203184D01*
X93561000Y-137370816D01*
X93528297Y-137535228D01*
X93464147Y-137690100D01*
X93371015Y-137829481D01*
X93252481Y-137948015D01*
X93113100Y-138041147D01*
X92958228Y-138105297D01*
X92793816Y-138138000D01*
X92626184Y-138138000D01*
X92461772Y-138105297D01*
X92306900Y-138041147D01*
X92167519Y-137948015D01*
X92048985Y-137829481D01*
X91955853Y-137690100D01*
X91891703Y-137535228D01*
X91859000Y-137370816D01*
X91859000Y-137203184D01*
X91891703Y-137038772D01*
X91955853Y-136883900D01*
X92048985Y-136744519D01*
X92167519Y-136625985D01*
X92306900Y-136532853D01*
X92461772Y-136468703D01*
X92626184Y-136436000D01*
X92793816Y-136436000D01*
X92958228Y-136468703D01*
X92958228Y-136468703D01*
G37*
G36*
X95498228Y-136468703D02*
G01*
X95653100Y-136532853D01*
X95792481Y-136625985D01*
X95911015Y-136744519D01*
X96004147Y-136883900D01*
X96068297Y-137038772D01*
X96101000Y-137203184D01*
X96101000Y-137370816D01*
X96068297Y-137535228D01*
X96004147Y-137690100D01*
X95911015Y-137829481D01*
X95792481Y-137948015D01*
X95653100Y-138041147D01*
X95498228Y-138105297D01*
X95333816Y-138138000D01*
X95166184Y-138138000D01*
X95001772Y-138105297D01*
X94846900Y-138041147D01*
X94707519Y-137948015D01*
X94588985Y-137829481D01*
X94495853Y-137690100D01*
X94431703Y-137535228D01*
X94399000Y-137370816D01*
X94399000Y-137203184D01*
X94431703Y-137038772D01*
X94495853Y-136883900D01*
X94588985Y-136744519D01*
X94707519Y-136625985D01*
X94846900Y-136532853D01*
X95001772Y-136468703D01*
X95166184Y-136436000D01*
X95333816Y-136436000D01*
X95498228Y-136468703D01*
X95498228Y-136468703D01*
G37*
G36*
X98038228Y-136468703D02*
G01*
X98193100Y-136532853D01*
X98332481Y-136625985D01*
X98451015Y-136744519D01*
X98544147Y-136883900D01*
X98608297Y-137038772D01*
X98641000Y-137203184D01*
X98641000Y-137370816D01*
X98608297Y-137535228D01*
X98544147Y-137690100D01*
X98451015Y-137829481D01*
X98332481Y-137948015D01*
X98193100Y-138041147D01*
X98038228Y-138105297D01*
X97873816Y-138138000D01*
X97706184Y-138138000D01*
X97541772Y-138105297D01*
X97386900Y-138041147D01*
X97247519Y-137948015D01*
X97128985Y-137829481D01*
X97035853Y-137690100D01*
X96971703Y-137535228D01*
X96939000Y-137370816D01*
X96939000Y-137203184D01*
X96971703Y-137038772D01*
X97035853Y-136883900D01*
X97128985Y-136744519D01*
X97247519Y-136625985D01*
X97386900Y-136532853D01*
X97541772Y-136468703D01*
X97706184Y-136436000D01*
X97873816Y-136436000D01*
X98038228Y-136468703D01*
X98038228Y-136468703D01*
G37*
G36*
X103118228Y-136468703D02*
G01*
X103273100Y-136532853D01*
X103412481Y-136625985D01*
X103531015Y-136744519D01*
X103624147Y-136883900D01*
X103688297Y-137038772D01*
X103721000Y-137203184D01*
X103721000Y-137370816D01*
X103688297Y-137535228D01*
X103624147Y-137690100D01*
X103531015Y-137829481D01*
X103412481Y-137948015D01*
X103273100Y-138041147D01*
X103118228Y-138105297D01*
X102953816Y-138138000D01*
X102786184Y-138138000D01*
X102621772Y-138105297D01*
X102466900Y-138041147D01*
X102327519Y-137948015D01*
X102208985Y-137829481D01*
X102115853Y-137690100D01*
X102051703Y-137535228D01*
X102019000Y-137370816D01*
X102019000Y-137203184D01*
X102051703Y-137038772D01*
X102115853Y-136883900D01*
X102208985Y-136744519D01*
X102327519Y-136625985D01*
X102466900Y-136532853D01*
X102621772Y-136468703D01*
X102786184Y-136436000D01*
X102953816Y-136436000D01*
X103118228Y-136468703D01*
X103118228Y-136468703D01*
G37*
G36*
X105658228Y-136468703D02*
G01*
X105813100Y-136532853D01*
X105952481Y-136625985D01*
X106071015Y-136744519D01*
X106164147Y-136883900D01*
X106228297Y-137038772D01*
X106261000Y-137203184D01*
X106261000Y-137370816D01*
X106228297Y-137535228D01*
X106164147Y-137690100D01*
X106071015Y-137829481D01*
X105952481Y-137948015D01*
X105813100Y-138041147D01*
X105658228Y-138105297D01*
X105493816Y-138138000D01*
X105326184Y-138138000D01*
X105161772Y-138105297D01*
X105006900Y-138041147D01*
X104867519Y-137948015D01*
X104748985Y-137829481D01*
X104655853Y-137690100D01*
X104591703Y-137535228D01*
X104559000Y-137370816D01*
X104559000Y-137203184D01*
X104591703Y-137038772D01*
X104655853Y-136883900D01*
X104748985Y-136744519D01*
X104867519Y-136625985D01*
X105006900Y-136532853D01*
X105161772Y-136468703D01*
X105326184Y-136436000D01*
X105493816Y-136436000D01*
X105658228Y-136468703D01*
X105658228Y-136468703D01*
G37*
G36*
X161098201Y-136224784D02*
G01*
X161266723Y-136294588D01*
X161418388Y-136395927D01*
X161547369Y-136524908D01*
X161648708Y-136676573D01*
X161718512Y-136845095D01*
X161754097Y-137023996D01*
X161754097Y-137206402D01*
X161718512Y-137385303D01*
X161648708Y-137553825D01*
X161547369Y-137705490D01*
X161418388Y-137834471D01*
X161266723Y-137935810D01*
X161098201Y-138005614D01*
X160919300Y-138041199D01*
X160736894Y-138041199D01*
X160557993Y-138005614D01*
X160389471Y-137935810D01*
X160237806Y-137834471D01*
X160108825Y-137705490D01*
X160007486Y-137553825D01*
X159937682Y-137385303D01*
X159902097Y-137206402D01*
X159902097Y-137023996D01*
X159937682Y-136845095D01*
X160007486Y-136676573D01*
X160108825Y-136524908D01*
X160237806Y-136395927D01*
X160389471Y-136294588D01*
X160557993Y-136224784D01*
X160736894Y-136189199D01*
X160919300Y-136189199D01*
X161098201Y-136224784D01*
X161098201Y-136224784D01*
G37*
G36*
X152497007Y-133901386D02*
G01*
X152665529Y-133971190D01*
X152817194Y-134072529D01*
X152946175Y-134201510D01*
X153047514Y-134353175D01*
X153117318Y-134521697D01*
X153152903Y-134700598D01*
X153152903Y-134883004D01*
X153117318Y-135061905D01*
X153047514Y-135230427D01*
X152946175Y-135382092D01*
X152817194Y-135511073D01*
X152665529Y-135612412D01*
X152497007Y-135682216D01*
X152318106Y-135717801D01*
X152135700Y-135717801D01*
X151956799Y-135682216D01*
X151788277Y-135612412D01*
X151636612Y-135511073D01*
X151507631Y-135382092D01*
X151406292Y-135230427D01*
X151336488Y-135061905D01*
X151300903Y-134883004D01*
X151300903Y-134700598D01*
X151336488Y-134521697D01*
X151406292Y-134353175D01*
X151507631Y-134201510D01*
X151636612Y-134072529D01*
X151788277Y-133971190D01*
X151956799Y-133901386D01*
X152135700Y-133865801D01*
X152318106Y-133865801D01*
X152497007Y-133901386D01*
X152497007Y-133901386D01*
G37*
G36*
X147916474Y-131510684D02*
G01*
X148064284Y-131571909D01*
X148288623Y-131664833D01*
X148623548Y-131888623D01*
X148908377Y-132173452D01*
X149132167Y-132508377D01*
X149170460Y-132600825D01*
X149286316Y-132880526D01*
X149364900Y-133275594D01*
X149364900Y-133678406D01*
X149286316Y-134073474D01*
X149233281Y-134201511D01*
X149132167Y-134445623D01*
X148908377Y-134780548D01*
X148623548Y-135065377D01*
X148288623Y-135289167D01*
X148134474Y-135353017D01*
X147916474Y-135443316D01*
X147521406Y-135521900D01*
X147118594Y-135521900D01*
X146723526Y-135443316D01*
X146505526Y-135353017D01*
X146351377Y-135289167D01*
X146016452Y-135065377D01*
X145731623Y-134780548D01*
X145507833Y-134445623D01*
X145406719Y-134201511D01*
X145353684Y-134073474D01*
X145275100Y-133678406D01*
X145275100Y-133275594D01*
X145353684Y-132880526D01*
X145469540Y-132600825D01*
X145507833Y-132508377D01*
X145731623Y-132173452D01*
X146016452Y-131888623D01*
X146351377Y-131664833D01*
X146575716Y-131571909D01*
X146723526Y-131510684D01*
X147118594Y-131432100D01*
X147521406Y-131432100D01*
X147916474Y-131510684D01*
X147916474Y-131510684D01*
G37*
G36*
X142683201Y-131271784D02*
G01*
X142851723Y-131341588D01*
X143003388Y-131442927D01*
X143132369Y-131571908D01*
X143233708Y-131723573D01*
X143303512Y-131892095D01*
X143339097Y-132070996D01*
X143339097Y-132253402D01*
X143303512Y-132432303D01*
X143233708Y-132600825D01*
X143132369Y-132752490D01*
X143003388Y-132881471D01*
X142851723Y-132982810D01*
X142683201Y-133052614D01*
X142504300Y-133088199D01*
X142321894Y-133088199D01*
X142142993Y-133052614D01*
X141974471Y-132982810D01*
X141822806Y-132881471D01*
X141693825Y-132752490D01*
X141592486Y-132600825D01*
X141522682Y-132432303D01*
X141487097Y-132253402D01*
X141487097Y-132070996D01*
X141522682Y-131892095D01*
X141592486Y-131723573D01*
X141693825Y-131571908D01*
X141822806Y-131442927D01*
X141974471Y-131341588D01*
X142142993Y-131271784D01*
X142321894Y-131236199D01*
X142504300Y-131236199D01*
X142683201Y-131271784D01*
X142683201Y-131271784D01*
G37*
G36*
X134067007Y-128894386D02*
G01*
X134235529Y-128964190D01*
X134387194Y-129065529D01*
X134516175Y-129194510D01*
X134617514Y-129346175D01*
X134687318Y-129514697D01*
X134722903Y-129693598D01*
X134722903Y-129876004D01*
X134687318Y-130054905D01*
X134617514Y-130223427D01*
X134516175Y-130375092D01*
X134387194Y-130504073D01*
X134235529Y-130605412D01*
X134067007Y-130675216D01*
X133888106Y-130710801D01*
X133705700Y-130710801D01*
X133526799Y-130675216D01*
X133358277Y-130605412D01*
X133206612Y-130504073D01*
X133077631Y-130375092D01*
X132976292Y-130223427D01*
X132906488Y-130054905D01*
X132870903Y-129876004D01*
X132870903Y-129693598D01*
X132906488Y-129514697D01*
X132976292Y-129346175D01*
X133077631Y-129194510D01*
X133206612Y-129065529D01*
X133358277Y-128964190D01*
X133526799Y-128894386D01*
X133705700Y-128858801D01*
X133888106Y-128858801D01*
X134067007Y-128894386D01*
X134067007Y-128894386D01*
G37*
G36*
X129486474Y-126503684D02*
G01*
X129634284Y-126564909D01*
X129858623Y-126657833D01*
X130193548Y-126881623D01*
X130478377Y-127166452D01*
X130702167Y-127501377D01*
X130740460Y-127593825D01*
X130856316Y-127873526D01*
X130934900Y-128268594D01*
X130934900Y-128671406D01*
X130856316Y-129066474D01*
X130803281Y-129194511D01*
X130702167Y-129438623D01*
X130478377Y-129773548D01*
X130193548Y-130058377D01*
X129858623Y-130282167D01*
X129704474Y-130346017D01*
X129486474Y-130436316D01*
X129091406Y-130514900D01*
X128688594Y-130514900D01*
X128293526Y-130436316D01*
X128075526Y-130346017D01*
X127921377Y-130282167D01*
X127586452Y-130058377D01*
X127301623Y-129773548D01*
X127077833Y-129438623D01*
X126976719Y-129194511D01*
X126923684Y-129066474D01*
X126845100Y-128671406D01*
X126845100Y-128268594D01*
X126923684Y-127873526D01*
X127039540Y-127593825D01*
X127077833Y-127501377D01*
X127301623Y-127166452D01*
X127586452Y-126881623D01*
X127921377Y-126657833D01*
X128145716Y-126564909D01*
X128293526Y-126503684D01*
X128688594Y-126425100D01*
X129091406Y-126425100D01*
X129486474Y-126503684D01*
X129486474Y-126503684D01*
G37*
G36*
X124253201Y-126264784D02*
G01*
X124421723Y-126334588D01*
X124573388Y-126435927D01*
X124702369Y-126564908D01*
X124803708Y-126716573D01*
X124873512Y-126885095D01*
X124909097Y-127063996D01*
X124909097Y-127246402D01*
X124873512Y-127425303D01*
X124803708Y-127593825D01*
X124702369Y-127745490D01*
X124573388Y-127874471D01*
X124421723Y-127975810D01*
X124253201Y-128045614D01*
X124074300Y-128081199D01*
X123891894Y-128081199D01*
X123712993Y-128045614D01*
X123544471Y-127975810D01*
X123392806Y-127874471D01*
X123263825Y-127745490D01*
X123162486Y-127593825D01*
X123092682Y-127425303D01*
X123057097Y-127246402D01*
X123057097Y-127063996D01*
X123092682Y-126885095D01*
X123162486Y-126716573D01*
X123263825Y-126564908D01*
X123392806Y-126435927D01*
X123544471Y-126334588D01*
X123712993Y-126264784D01*
X123891894Y-126229199D01*
X124074300Y-126229199D01*
X124253201Y-126264784D01*
X124253201Y-126264784D01*
G37*
G36*
X90418228Y-121228703D02*
G01*
X90573100Y-121292853D01*
X90712481Y-121385985D01*
X90831015Y-121504519D01*
X90924147Y-121643900D01*
X90988297Y-121798772D01*
X91021000Y-121963184D01*
X91021000Y-122130816D01*
X90988297Y-122295228D01*
X90924147Y-122450100D01*
X90831015Y-122589481D01*
X90712481Y-122708015D01*
X90573100Y-122801147D01*
X90418228Y-122865297D01*
X90253816Y-122898000D01*
X90086184Y-122898000D01*
X89921772Y-122865297D01*
X89766900Y-122801147D01*
X89627519Y-122708015D01*
X89508985Y-122589481D01*
X89415853Y-122450100D01*
X89351703Y-122295228D01*
X89319000Y-122130816D01*
X89319000Y-121963184D01*
X89351703Y-121798772D01*
X89415853Y-121643900D01*
X89508985Y-121504519D01*
X89627519Y-121385985D01*
X89766900Y-121292853D01*
X89921772Y-121228703D01*
X90086184Y-121196000D01*
X90253816Y-121196000D01*
X90418228Y-121228703D01*
X90418228Y-121228703D01*
G37*
G36*
X85338228Y-121228703D02*
G01*
X85493100Y-121292853D01*
X85632481Y-121385985D01*
X85751015Y-121504519D01*
X85844147Y-121643900D01*
X85908297Y-121798772D01*
X85941000Y-121963184D01*
X85941000Y-122130816D01*
X85908297Y-122295228D01*
X85844147Y-122450100D01*
X85751015Y-122589481D01*
X85632481Y-122708015D01*
X85493100Y-122801147D01*
X85338228Y-122865297D01*
X85173816Y-122898000D01*
X85006184Y-122898000D01*
X84841772Y-122865297D01*
X84686900Y-122801147D01*
X84547519Y-122708015D01*
X84428985Y-122589481D01*
X84335853Y-122450100D01*
X84271703Y-122295228D01*
X84239000Y-122130816D01*
X84239000Y-121963184D01*
X84271703Y-121798772D01*
X84335853Y-121643900D01*
X84428985Y-121504519D01*
X84547519Y-121385985D01*
X84686900Y-121292853D01*
X84841772Y-121228703D01*
X85006184Y-121196000D01*
X85173816Y-121196000D01*
X85338228Y-121228703D01*
X85338228Y-121228703D01*
G37*
G36*
X82798228Y-121228703D02*
G01*
X82953100Y-121292853D01*
X83092481Y-121385985D01*
X83211015Y-121504519D01*
X83304147Y-121643900D01*
X83368297Y-121798772D01*
X83401000Y-121963184D01*
X83401000Y-122130816D01*
X83368297Y-122295228D01*
X83304147Y-122450100D01*
X83211015Y-122589481D01*
X83092481Y-122708015D01*
X82953100Y-122801147D01*
X82798228Y-122865297D01*
X82633816Y-122898000D01*
X82466184Y-122898000D01*
X82301772Y-122865297D01*
X82146900Y-122801147D01*
X82007519Y-122708015D01*
X81888985Y-122589481D01*
X81795853Y-122450100D01*
X81731703Y-122295228D01*
X81699000Y-122130816D01*
X81699000Y-121963184D01*
X81731703Y-121798772D01*
X81795853Y-121643900D01*
X81888985Y-121504519D01*
X82007519Y-121385985D01*
X82146900Y-121292853D01*
X82301772Y-121228703D01*
X82466184Y-121196000D01*
X82633816Y-121196000D01*
X82798228Y-121228703D01*
X82798228Y-121228703D01*
G37*
G36*
X80258228Y-121228703D02*
G01*
X80413100Y-121292853D01*
X80552481Y-121385985D01*
X80671015Y-121504519D01*
X80764147Y-121643900D01*
X80828297Y-121798772D01*
X80861000Y-121963184D01*
X80861000Y-122130816D01*
X80828297Y-122295228D01*
X80764147Y-122450100D01*
X80671015Y-122589481D01*
X80552481Y-122708015D01*
X80413100Y-122801147D01*
X80258228Y-122865297D01*
X80093816Y-122898000D01*
X79926184Y-122898000D01*
X79761772Y-122865297D01*
X79606900Y-122801147D01*
X79467519Y-122708015D01*
X79348985Y-122589481D01*
X79255853Y-122450100D01*
X79191703Y-122295228D01*
X79159000Y-122130816D01*
X79159000Y-121963184D01*
X79191703Y-121798772D01*
X79255853Y-121643900D01*
X79348985Y-121504519D01*
X79467519Y-121385985D01*
X79606900Y-121292853D01*
X79761772Y-121228703D01*
X79926184Y-121196000D01*
X80093816Y-121196000D01*
X80258228Y-121228703D01*
X80258228Y-121228703D01*
G37*
G36*
X92958228Y-121228703D02*
G01*
X93113100Y-121292853D01*
X93252481Y-121385985D01*
X93371015Y-121504519D01*
X93464147Y-121643900D01*
X93528297Y-121798772D01*
X93561000Y-121963184D01*
X93561000Y-122130816D01*
X93528297Y-122295228D01*
X93464147Y-122450100D01*
X93371015Y-122589481D01*
X93252481Y-122708015D01*
X93113100Y-122801147D01*
X92958228Y-122865297D01*
X92793816Y-122898000D01*
X92626184Y-122898000D01*
X92461772Y-122865297D01*
X92306900Y-122801147D01*
X92167519Y-122708015D01*
X92048985Y-122589481D01*
X91955853Y-122450100D01*
X91891703Y-122295228D01*
X91859000Y-122130816D01*
X91859000Y-121963184D01*
X91891703Y-121798772D01*
X91955853Y-121643900D01*
X92048985Y-121504519D01*
X92167519Y-121385985D01*
X92306900Y-121292853D01*
X92461772Y-121228703D01*
X92626184Y-121196000D01*
X92793816Y-121196000D01*
X92958228Y-121228703D01*
X92958228Y-121228703D01*
G37*
G36*
X95498228Y-121228703D02*
G01*
X95653100Y-121292853D01*
X95792481Y-121385985D01*
X95911015Y-121504519D01*
X96004147Y-121643900D01*
X96068297Y-121798772D01*
X96101000Y-121963184D01*
X96101000Y-122130816D01*
X96068297Y-122295228D01*
X96004147Y-122450100D01*
X95911015Y-122589481D01*
X95792481Y-122708015D01*
X95653100Y-122801147D01*
X95498228Y-122865297D01*
X95333816Y-122898000D01*
X95166184Y-122898000D01*
X95001772Y-122865297D01*
X94846900Y-122801147D01*
X94707519Y-122708015D01*
X94588985Y-122589481D01*
X94495853Y-122450100D01*
X94431703Y-122295228D01*
X94399000Y-122130816D01*
X94399000Y-121963184D01*
X94431703Y-121798772D01*
X94495853Y-121643900D01*
X94588985Y-121504519D01*
X94707519Y-121385985D01*
X94846900Y-121292853D01*
X95001772Y-121228703D01*
X95166184Y-121196000D01*
X95333816Y-121196000D01*
X95498228Y-121228703D01*
X95498228Y-121228703D01*
G37*
G36*
X77718228Y-121228703D02*
G01*
X77873100Y-121292853D01*
X78012481Y-121385985D01*
X78131015Y-121504519D01*
X78224147Y-121643900D01*
X78288297Y-121798772D01*
X78321000Y-121963184D01*
X78321000Y-122130816D01*
X78288297Y-122295228D01*
X78224147Y-122450100D01*
X78131015Y-122589481D01*
X78012481Y-122708015D01*
X77873100Y-122801147D01*
X77718228Y-122865297D01*
X77553816Y-122898000D01*
X77386184Y-122898000D01*
X77221772Y-122865297D01*
X77066900Y-122801147D01*
X76927519Y-122708015D01*
X76808985Y-122589481D01*
X76715853Y-122450100D01*
X76651703Y-122295228D01*
X76619000Y-122130816D01*
X76619000Y-121963184D01*
X76651703Y-121798772D01*
X76715853Y-121643900D01*
X76808985Y-121504519D01*
X76927519Y-121385985D01*
X77066900Y-121292853D01*
X77221772Y-121228703D01*
X77386184Y-121196000D01*
X77553816Y-121196000D01*
X77718228Y-121228703D01*
X77718228Y-121228703D01*
G37*
G36*
X100578228Y-121228703D02*
G01*
X100733100Y-121292853D01*
X100872481Y-121385985D01*
X100991015Y-121504519D01*
X101084147Y-121643900D01*
X101148297Y-121798772D01*
X101181000Y-121963184D01*
X101181000Y-122130816D01*
X101148297Y-122295228D01*
X101084147Y-122450100D01*
X100991015Y-122589481D01*
X100872481Y-122708015D01*
X100733100Y-122801147D01*
X100578228Y-122865297D01*
X100413816Y-122898000D01*
X100246184Y-122898000D01*
X100081772Y-122865297D01*
X99926900Y-122801147D01*
X99787519Y-122708015D01*
X99668985Y-122589481D01*
X99575853Y-122450100D01*
X99511703Y-122295228D01*
X99479000Y-122130816D01*
X99479000Y-121963184D01*
X99511703Y-121798772D01*
X99575853Y-121643900D01*
X99668985Y-121504519D01*
X99787519Y-121385985D01*
X99926900Y-121292853D01*
X100081772Y-121228703D01*
X100246184Y-121196000D01*
X100413816Y-121196000D01*
X100578228Y-121228703D01*
X100578228Y-121228703D01*
G37*
G36*
X103118228Y-121228703D02*
G01*
X103273100Y-121292853D01*
X103412481Y-121385985D01*
X103531015Y-121504519D01*
X103624147Y-121643900D01*
X103688297Y-121798772D01*
X103721000Y-121963184D01*
X103721000Y-122130816D01*
X103688297Y-122295228D01*
X103624147Y-122450100D01*
X103531015Y-122589481D01*
X103412481Y-122708015D01*
X103273100Y-122801147D01*
X103118228Y-122865297D01*
X102953816Y-122898000D01*
X102786184Y-122898000D01*
X102621772Y-122865297D01*
X102466900Y-122801147D01*
X102327519Y-122708015D01*
X102208985Y-122589481D01*
X102115853Y-122450100D01*
X102051703Y-122295228D01*
X102019000Y-122130816D01*
X102019000Y-121963184D01*
X102051703Y-121798772D01*
X102115853Y-121643900D01*
X102208985Y-121504519D01*
X102327519Y-121385985D01*
X102466900Y-121292853D01*
X102621772Y-121228703D01*
X102786184Y-121196000D01*
X102953816Y-121196000D01*
X103118228Y-121228703D01*
X103118228Y-121228703D01*
G37*
G36*
X105658228Y-121228703D02*
G01*
X105813100Y-121292853D01*
X105952481Y-121385985D01*
X106071015Y-121504519D01*
X106164147Y-121643900D01*
X106228297Y-121798772D01*
X106261000Y-121963184D01*
X106261000Y-122130816D01*
X106228297Y-122295228D01*
X106164147Y-122450100D01*
X106071015Y-122589481D01*
X105952481Y-122708015D01*
X105813100Y-122801147D01*
X105658228Y-122865297D01*
X105493816Y-122898000D01*
X105326184Y-122898000D01*
X105161772Y-122865297D01*
X105006900Y-122801147D01*
X104867519Y-122708015D01*
X104748985Y-122589481D01*
X104655853Y-122450100D01*
X104591703Y-122295228D01*
X104559000Y-122130816D01*
X104559000Y-121963184D01*
X104591703Y-121798772D01*
X104655853Y-121643900D01*
X104748985Y-121504519D01*
X104867519Y-121385985D01*
X105006900Y-121292853D01*
X105161772Y-121228703D01*
X105326184Y-121196000D01*
X105493816Y-121196000D01*
X105658228Y-121228703D01*
X105658228Y-121228703D01*
G37*
G36*
X87878228Y-121228703D02*
G01*
X88033100Y-121292853D01*
X88172481Y-121385985D01*
X88291015Y-121504519D01*
X88384147Y-121643900D01*
X88448297Y-121798772D01*
X88481000Y-121963184D01*
X88481000Y-122130816D01*
X88448297Y-122295228D01*
X88384147Y-122450100D01*
X88291015Y-122589481D01*
X88172481Y-122708015D01*
X88033100Y-122801147D01*
X87878228Y-122865297D01*
X87713816Y-122898000D01*
X87546184Y-122898000D01*
X87381772Y-122865297D01*
X87226900Y-122801147D01*
X87087519Y-122708015D01*
X86968985Y-122589481D01*
X86875853Y-122450100D01*
X86811703Y-122295228D01*
X86779000Y-122130816D01*
X86779000Y-121963184D01*
X86811703Y-121798772D01*
X86875853Y-121643900D01*
X86968985Y-121504519D01*
X87087519Y-121385985D01*
X87226900Y-121292853D01*
X87381772Y-121228703D01*
X87546184Y-121196000D01*
X87713816Y-121196000D01*
X87878228Y-121228703D01*
X87878228Y-121228703D01*
G37*
G36*
X98038228Y-121228703D02*
G01*
X98193100Y-121292853D01*
X98332481Y-121385985D01*
X98451015Y-121504519D01*
X98544147Y-121643900D01*
X98608297Y-121798772D01*
X98641000Y-121963184D01*
X98641000Y-122130816D01*
X98608297Y-122295228D01*
X98544147Y-122450100D01*
X98451015Y-122589481D01*
X98332481Y-122708015D01*
X98193100Y-122801147D01*
X98038228Y-122865297D01*
X97873816Y-122898000D01*
X97706184Y-122898000D01*
X97541772Y-122865297D01*
X97386900Y-122801147D01*
X97247519Y-122708015D01*
X97128985Y-122589481D01*
X97035853Y-122450100D01*
X96971703Y-122295228D01*
X96939000Y-122130816D01*
X96939000Y-121963184D01*
X96971703Y-121798772D01*
X97035853Y-121643900D01*
X97128985Y-121504519D01*
X97247519Y-121385985D01*
X97386900Y-121292853D01*
X97541772Y-121228703D01*
X97706184Y-121196000D01*
X97873816Y-121196000D01*
X98038228Y-121228703D01*
X98038228Y-121228703D01*
G37*
G36*
X122040224Y-104396184D02*
G01*
X122258224Y-104486483D01*
X122412373Y-104550333D01*
X122747298Y-104774123D01*
X123032127Y-105058952D01*
X123255917Y-105393877D01*
X123288312Y-105472086D01*
X123410066Y-105766026D01*
X123488650Y-106161094D01*
X123488650Y-106563906D01*
X123410066Y-106958974D01*
X123359201Y-107081772D01*
X123255917Y-107331123D01*
X123032127Y-107666048D01*
X122747298Y-107950877D01*
X122412373Y-108174667D01*
X122258224Y-108238517D01*
X122040224Y-108328816D01*
X121645156Y-108407400D01*
X121242344Y-108407400D01*
X120847276Y-108328816D01*
X120629276Y-108238517D01*
X120475127Y-108174667D01*
X120140202Y-107950877D01*
X119855373Y-107666048D01*
X119631583Y-107331123D01*
X119528299Y-107081772D01*
X119477434Y-106958974D01*
X119398850Y-106563906D01*
X119398850Y-106161094D01*
X119477434Y-105766026D01*
X119599188Y-105472086D01*
X119631583Y-105393877D01*
X119855373Y-105058952D01*
X120140202Y-104774123D01*
X120475127Y-104550333D01*
X120629276Y-104486483D01*
X120847276Y-104396184D01*
X121242344Y-104317600D01*
X121645156Y-104317600D01*
X122040224Y-104396184D01*
X122040224Y-104396184D01*
G37*
G36*
X83940224Y-104396184D02*
G01*
X84158224Y-104486483D01*
X84312373Y-104550333D01*
X84647298Y-104774123D01*
X84932127Y-105058952D01*
X85155917Y-105393877D01*
X85188312Y-105472086D01*
X85310066Y-105766026D01*
X85388650Y-106161094D01*
X85388650Y-106563906D01*
X85310066Y-106958974D01*
X85259201Y-107081772D01*
X85155917Y-107331123D01*
X84932127Y-107666048D01*
X84647298Y-107950877D01*
X84312373Y-108174667D01*
X84158224Y-108238517D01*
X83940224Y-108328816D01*
X83545156Y-108407400D01*
X83142344Y-108407400D01*
X82747276Y-108328816D01*
X82529276Y-108238517D01*
X82375127Y-108174667D01*
X82040202Y-107950877D01*
X81755373Y-107666048D01*
X81531583Y-107331123D01*
X81428299Y-107081772D01*
X81377434Y-106958974D01*
X81298850Y-106563906D01*
X81298850Y-106161094D01*
X81377434Y-105766026D01*
X81499188Y-105472086D01*
X81531583Y-105393877D01*
X81755373Y-105058952D01*
X82040202Y-104774123D01*
X82375127Y-104550333D01*
X82529276Y-104486483D01*
X82747276Y-104396184D01*
X83142344Y-104317600D01*
X83545156Y-104317600D01*
X83940224Y-104396184D01*
X83940224Y-104396184D01*
G37*
G36*
X102990224Y-104396184D02*
G01*
X103208224Y-104486483D01*
X103362373Y-104550333D01*
X103697298Y-104774123D01*
X103982127Y-105058952D01*
X104205917Y-105393877D01*
X104238312Y-105472086D01*
X104360066Y-105766026D01*
X104438650Y-106161094D01*
X104438650Y-106563906D01*
X104360066Y-106958974D01*
X104309201Y-107081772D01*
X104205917Y-107331123D01*
X103982127Y-107666048D01*
X103697298Y-107950877D01*
X103362373Y-108174667D01*
X103208224Y-108238517D01*
X102990224Y-108328816D01*
X102595156Y-108407400D01*
X102192344Y-108407400D01*
X101797276Y-108328816D01*
X101579276Y-108238517D01*
X101425127Y-108174667D01*
X101090202Y-107950877D01*
X100805373Y-107666048D01*
X100581583Y-107331123D01*
X100478299Y-107081772D01*
X100427434Y-106958974D01*
X100348850Y-106563906D01*
X100348850Y-106161094D01*
X100427434Y-105766026D01*
X100549188Y-105472086D01*
X100581583Y-105393877D01*
X100805373Y-105058952D01*
X101090202Y-104774123D01*
X101425127Y-104550333D01*
X101579276Y-104486483D01*
X101797276Y-104396184D01*
X102192344Y-104317600D01*
X102595156Y-104317600D01*
X102990224Y-104396184D01*
X102990224Y-104396184D01*
G37*
G36*
X141090224Y-104396184D02*
G01*
X141308224Y-104486483D01*
X141462373Y-104550333D01*
X141797298Y-104774123D01*
X142082127Y-105058952D01*
X142305917Y-105393877D01*
X142338312Y-105472086D01*
X142460066Y-105766026D01*
X142538650Y-106161094D01*
X142538650Y-106563906D01*
X142460066Y-106958974D01*
X142409201Y-107081772D01*
X142305917Y-107331123D01*
X142082127Y-107666048D01*
X141797298Y-107950877D01*
X141462373Y-108174667D01*
X141308224Y-108238517D01*
X141090224Y-108328816D01*
X140695156Y-108407400D01*
X140292344Y-108407400D01*
X139897276Y-108328816D01*
X139679276Y-108238517D01*
X139525127Y-108174667D01*
X139190202Y-107950877D01*
X138905373Y-107666048D01*
X138681583Y-107331123D01*
X138578299Y-107081772D01*
X138527434Y-106958974D01*
X138448850Y-106563906D01*
X138448850Y-106161094D01*
X138527434Y-105766026D01*
X138649188Y-105472086D01*
X138681583Y-105393877D01*
X138905373Y-105058952D01*
X139190202Y-104774123D01*
X139525127Y-104550333D01*
X139679276Y-104486483D01*
X139897276Y-104396184D01*
X140292344Y-104317600D01*
X140695156Y-104317600D01*
X141090224Y-104396184D01*
X141090224Y-104396184D01*
G37*
G36*
X179190224Y-104396184D02*
G01*
X179408224Y-104486483D01*
X179562373Y-104550333D01*
X179897298Y-104774123D01*
X180182127Y-105058952D01*
X180405917Y-105393877D01*
X180438312Y-105472086D01*
X180560066Y-105766026D01*
X180638650Y-106161094D01*
X180638650Y-106563906D01*
X180560066Y-106958974D01*
X180509201Y-107081772D01*
X180405917Y-107331123D01*
X180182127Y-107666048D01*
X179897298Y-107950877D01*
X179562373Y-108174667D01*
X179408224Y-108238517D01*
X179190224Y-108328816D01*
X178795156Y-108407400D01*
X178392344Y-108407400D01*
X177997276Y-108328816D01*
X177779276Y-108238517D01*
X177625127Y-108174667D01*
X177290202Y-107950877D01*
X177005373Y-107666048D01*
X176781583Y-107331123D01*
X176678299Y-107081772D01*
X176627434Y-106958974D01*
X176548850Y-106563906D01*
X176548850Y-106161094D01*
X176627434Y-105766026D01*
X176749188Y-105472086D01*
X176781583Y-105393877D01*
X177005373Y-105058952D01*
X177290202Y-104774123D01*
X177625127Y-104550333D01*
X177779276Y-104486483D01*
X177997276Y-104396184D01*
X178392344Y-104317600D01*
X178795156Y-104317600D01*
X179190224Y-104396184D01*
X179190224Y-104396184D01*
G37*
G36*
X160140224Y-104396184D02*
G01*
X160358224Y-104486483D01*
X160512373Y-104550333D01*
X160847298Y-104774123D01*
X161132127Y-105058952D01*
X161355917Y-105393877D01*
X161388312Y-105472086D01*
X161510066Y-105766026D01*
X161588650Y-106161094D01*
X161588650Y-106563906D01*
X161510066Y-106958974D01*
X161459201Y-107081772D01*
X161355917Y-107331123D01*
X161132127Y-107666048D01*
X160847298Y-107950877D01*
X160512373Y-108174667D01*
X160358224Y-108238517D01*
X160140224Y-108328816D01*
X159745156Y-108407400D01*
X159342344Y-108407400D01*
X158947276Y-108328816D01*
X158729276Y-108238517D01*
X158575127Y-108174667D01*
X158240202Y-107950877D01*
X157955373Y-107666048D01*
X157731583Y-107331123D01*
X157628299Y-107081772D01*
X157577434Y-106958974D01*
X157498850Y-106563906D01*
X157498850Y-106161094D01*
X157577434Y-105766026D01*
X157699188Y-105472086D01*
X157731583Y-105393877D01*
X157955373Y-105058952D01*
X158240202Y-104774123D01*
X158575127Y-104550333D01*
X158729276Y-104486483D01*
X158947276Y-104396184D01*
X159342344Y-104317600D01*
X159745156Y-104317600D01*
X160140224Y-104396184D01*
X160140224Y-104396184D01*
G37*
G36*
X164893854Y-105472085D02*
G01*
X165062376Y-105541889D01*
X165214041Y-105643228D01*
X165343022Y-105772209D01*
X165444361Y-105923874D01*
X165514165Y-106092396D01*
X165549750Y-106271297D01*
X165549750Y-106453703D01*
X165514165Y-106632604D01*
X165444361Y-106801126D01*
X165343022Y-106952791D01*
X165214041Y-107081772D01*
X165062376Y-107183111D01*
X164893854Y-107252915D01*
X164714953Y-107288500D01*
X164532547Y-107288500D01*
X164353646Y-107252915D01*
X164185124Y-107183111D01*
X164033459Y-107081772D01*
X163904478Y-106952791D01*
X163803139Y-106801126D01*
X163733335Y-106632604D01*
X163697750Y-106453703D01*
X163697750Y-106271297D01*
X163733335Y-106092396D01*
X163803139Y-105923874D01*
X163904478Y-105772209D01*
X164033459Y-105643228D01*
X164185124Y-105541889D01*
X164353646Y-105472085D01*
X164532547Y-105436500D01*
X164714953Y-105436500D01*
X164893854Y-105472085D01*
X164893854Y-105472085D01*
G37*
G36*
X88693854Y-105472085D02*
G01*
X88862376Y-105541889D01*
X89014041Y-105643228D01*
X89143022Y-105772209D01*
X89244361Y-105923874D01*
X89314165Y-106092396D01*
X89349750Y-106271297D01*
X89349750Y-106453703D01*
X89314165Y-106632604D01*
X89244361Y-106801126D01*
X89143022Y-106952791D01*
X89014041Y-107081772D01*
X88862376Y-107183111D01*
X88693854Y-107252915D01*
X88514953Y-107288500D01*
X88332547Y-107288500D01*
X88153646Y-107252915D01*
X87985124Y-107183111D01*
X87833459Y-107081772D01*
X87704478Y-106952791D01*
X87603139Y-106801126D01*
X87533335Y-106632604D01*
X87497750Y-106453703D01*
X87497750Y-106271297D01*
X87533335Y-106092396D01*
X87603139Y-105923874D01*
X87704478Y-105772209D01*
X87833459Y-105643228D01*
X87985124Y-105541889D01*
X88153646Y-105472085D01*
X88332547Y-105436500D01*
X88514953Y-105436500D01*
X88693854Y-105472085D01*
X88693854Y-105472085D01*
G37*
G36*
X78533854Y-105472085D02*
G01*
X78702376Y-105541889D01*
X78854041Y-105643228D01*
X78983022Y-105772209D01*
X79084361Y-105923874D01*
X79154165Y-106092396D01*
X79189750Y-106271297D01*
X79189750Y-106453703D01*
X79154165Y-106632604D01*
X79084361Y-106801126D01*
X78983022Y-106952791D01*
X78854041Y-107081772D01*
X78702376Y-107183111D01*
X78533854Y-107252915D01*
X78354953Y-107288500D01*
X78172547Y-107288500D01*
X77993646Y-107252915D01*
X77825124Y-107183111D01*
X77673459Y-107081772D01*
X77544478Y-106952791D01*
X77443139Y-106801126D01*
X77373335Y-106632604D01*
X77337750Y-106453703D01*
X77337750Y-106271297D01*
X77373335Y-106092396D01*
X77443139Y-105923874D01*
X77544478Y-105772209D01*
X77673459Y-105643228D01*
X77825124Y-105541889D01*
X77993646Y-105472085D01*
X78172547Y-105436500D01*
X78354953Y-105436500D01*
X78533854Y-105472085D01*
X78533854Y-105472085D01*
G37*
G36*
X97583854Y-105472085D02*
G01*
X97752376Y-105541889D01*
X97904041Y-105643228D01*
X98033022Y-105772209D01*
X98134361Y-105923874D01*
X98204165Y-106092396D01*
X98239750Y-106271297D01*
X98239750Y-106453703D01*
X98204165Y-106632604D01*
X98134361Y-106801126D01*
X98033022Y-106952791D01*
X97904041Y-107081772D01*
X97752376Y-107183111D01*
X97583854Y-107252915D01*
X97404953Y-107288500D01*
X97222547Y-107288500D01*
X97043646Y-107252915D01*
X96875124Y-107183111D01*
X96723459Y-107081772D01*
X96594478Y-106952791D01*
X96493139Y-106801126D01*
X96423335Y-106632604D01*
X96387750Y-106453703D01*
X96387750Y-106271297D01*
X96423335Y-106092396D01*
X96493139Y-105923874D01*
X96594478Y-105772209D01*
X96723459Y-105643228D01*
X96875124Y-105541889D01*
X97043646Y-105472085D01*
X97222547Y-105436500D01*
X97404953Y-105436500D01*
X97583854Y-105472085D01*
X97583854Y-105472085D01*
G37*
G36*
X107743854Y-105472085D02*
G01*
X107912376Y-105541889D01*
X108064041Y-105643228D01*
X108193022Y-105772209D01*
X108294361Y-105923874D01*
X108364165Y-106092396D01*
X108399750Y-106271297D01*
X108399750Y-106453703D01*
X108364165Y-106632604D01*
X108294361Y-106801126D01*
X108193022Y-106952791D01*
X108064041Y-107081772D01*
X107912376Y-107183111D01*
X107743854Y-107252915D01*
X107564953Y-107288500D01*
X107382547Y-107288500D01*
X107203646Y-107252915D01*
X107035124Y-107183111D01*
X106883459Y-107081772D01*
X106754478Y-106952791D01*
X106653139Y-106801126D01*
X106583335Y-106632604D01*
X106547750Y-106453703D01*
X106547750Y-106271297D01*
X106583335Y-106092396D01*
X106653139Y-105923874D01*
X106754478Y-105772209D01*
X106883459Y-105643228D01*
X107035124Y-105541889D01*
X107203646Y-105472085D01*
X107382547Y-105436500D01*
X107564953Y-105436500D01*
X107743854Y-105472085D01*
X107743854Y-105472085D01*
G37*
G36*
X116633854Y-105472085D02*
G01*
X116802376Y-105541889D01*
X116954041Y-105643228D01*
X117083022Y-105772209D01*
X117184361Y-105923874D01*
X117254165Y-106092396D01*
X117289750Y-106271297D01*
X117289750Y-106453703D01*
X117254165Y-106632604D01*
X117184361Y-106801126D01*
X117083022Y-106952791D01*
X116954041Y-107081772D01*
X116802376Y-107183111D01*
X116633854Y-107252915D01*
X116454953Y-107288500D01*
X116272547Y-107288500D01*
X116093646Y-107252915D01*
X115925124Y-107183111D01*
X115773459Y-107081772D01*
X115644478Y-106952791D01*
X115543139Y-106801126D01*
X115473335Y-106632604D01*
X115437750Y-106453703D01*
X115437750Y-106271297D01*
X115473335Y-106092396D01*
X115543139Y-105923874D01*
X115644478Y-105772209D01*
X115773459Y-105643228D01*
X115925124Y-105541889D01*
X116093646Y-105472085D01*
X116272547Y-105436500D01*
X116454953Y-105436500D01*
X116633854Y-105472085D01*
X116633854Y-105472085D01*
G37*
G36*
X126793854Y-105472085D02*
G01*
X126962376Y-105541889D01*
X127114041Y-105643228D01*
X127243022Y-105772209D01*
X127344361Y-105923874D01*
X127414165Y-106092396D01*
X127449750Y-106271297D01*
X127449750Y-106453703D01*
X127414165Y-106632604D01*
X127344361Y-106801126D01*
X127243022Y-106952791D01*
X127114041Y-107081772D01*
X126962376Y-107183111D01*
X126793854Y-107252915D01*
X126614953Y-107288500D01*
X126432547Y-107288500D01*
X126253646Y-107252915D01*
X126085124Y-107183111D01*
X125933459Y-107081772D01*
X125804478Y-106952791D01*
X125703139Y-106801126D01*
X125633335Y-106632604D01*
X125597750Y-106453703D01*
X125597750Y-106271297D01*
X125633335Y-106092396D01*
X125703139Y-105923874D01*
X125804478Y-105772209D01*
X125933459Y-105643228D01*
X126085124Y-105541889D01*
X126253646Y-105472085D01*
X126432547Y-105436500D01*
X126614953Y-105436500D01*
X126793854Y-105472085D01*
X126793854Y-105472085D01*
G37*
G36*
X183943854Y-105472085D02*
G01*
X184112376Y-105541889D01*
X184264041Y-105643228D01*
X184393022Y-105772209D01*
X184494361Y-105923874D01*
X184564165Y-106092396D01*
X184599750Y-106271297D01*
X184599750Y-106453703D01*
X184564165Y-106632604D01*
X184494361Y-106801126D01*
X184393022Y-106952791D01*
X184264041Y-107081772D01*
X184112376Y-107183111D01*
X183943854Y-107252915D01*
X183764953Y-107288500D01*
X183582547Y-107288500D01*
X183403646Y-107252915D01*
X183235124Y-107183111D01*
X183083459Y-107081772D01*
X182954478Y-106952791D01*
X182853139Y-106801126D01*
X182783335Y-106632604D01*
X182747750Y-106453703D01*
X182747750Y-106271297D01*
X182783335Y-106092396D01*
X182853139Y-105923874D01*
X182954478Y-105772209D01*
X183083459Y-105643228D01*
X183235124Y-105541889D01*
X183403646Y-105472085D01*
X183582547Y-105436500D01*
X183764953Y-105436500D01*
X183943854Y-105472085D01*
X183943854Y-105472085D01*
G37*
G36*
X173783854Y-105472085D02*
G01*
X173952376Y-105541889D01*
X174104041Y-105643228D01*
X174233022Y-105772209D01*
X174334361Y-105923874D01*
X174404165Y-106092396D01*
X174439750Y-106271297D01*
X174439750Y-106453703D01*
X174404165Y-106632604D01*
X174334361Y-106801126D01*
X174233022Y-106952791D01*
X174104041Y-107081772D01*
X173952376Y-107183111D01*
X173783854Y-107252915D01*
X173604953Y-107288500D01*
X173422547Y-107288500D01*
X173243646Y-107252915D01*
X173075124Y-107183111D01*
X172923459Y-107081772D01*
X172794478Y-106952791D01*
X172693139Y-106801126D01*
X172623335Y-106632604D01*
X172587750Y-106453703D01*
X172587750Y-106271297D01*
X172623335Y-106092396D01*
X172693139Y-105923874D01*
X172794478Y-105772209D01*
X172923459Y-105643228D01*
X173075124Y-105541889D01*
X173243646Y-105472085D01*
X173422547Y-105436500D01*
X173604953Y-105436500D01*
X173783854Y-105472085D01*
X173783854Y-105472085D01*
G37*
G36*
X135683854Y-105472085D02*
G01*
X135852376Y-105541889D01*
X136004041Y-105643228D01*
X136133022Y-105772209D01*
X136234361Y-105923874D01*
X136304165Y-106092396D01*
X136339750Y-106271297D01*
X136339750Y-106453703D01*
X136304165Y-106632604D01*
X136234361Y-106801126D01*
X136133022Y-106952791D01*
X136004041Y-107081772D01*
X135852376Y-107183111D01*
X135683854Y-107252915D01*
X135504953Y-107288500D01*
X135322547Y-107288500D01*
X135143646Y-107252915D01*
X134975124Y-107183111D01*
X134823459Y-107081772D01*
X134694478Y-106952791D01*
X134593139Y-106801126D01*
X134523335Y-106632604D01*
X134487750Y-106453703D01*
X134487750Y-106271297D01*
X134523335Y-106092396D01*
X134593139Y-105923874D01*
X134694478Y-105772209D01*
X134823459Y-105643228D01*
X134975124Y-105541889D01*
X135143646Y-105472085D01*
X135322547Y-105436500D01*
X135504953Y-105436500D01*
X135683854Y-105472085D01*
X135683854Y-105472085D01*
G37*
G36*
X154733854Y-105472085D02*
G01*
X154902376Y-105541889D01*
X155054041Y-105643228D01*
X155183022Y-105772209D01*
X155284361Y-105923874D01*
X155354165Y-106092396D01*
X155389750Y-106271297D01*
X155389750Y-106453703D01*
X155354165Y-106632604D01*
X155284361Y-106801126D01*
X155183022Y-106952791D01*
X155054041Y-107081772D01*
X154902376Y-107183111D01*
X154733854Y-107252915D01*
X154554953Y-107288500D01*
X154372547Y-107288500D01*
X154193646Y-107252915D01*
X154025124Y-107183111D01*
X153873459Y-107081772D01*
X153744478Y-106952791D01*
X153643139Y-106801126D01*
X153573335Y-106632604D01*
X153537750Y-106453703D01*
X153537750Y-106271297D01*
X153573335Y-106092396D01*
X153643139Y-105923874D01*
X153744478Y-105772209D01*
X153873459Y-105643228D01*
X154025124Y-105541889D01*
X154193646Y-105472085D01*
X154372547Y-105436500D01*
X154554953Y-105436500D01*
X154733854Y-105472085D01*
X154733854Y-105472085D01*
G37*
G36*
X145843854Y-105472085D02*
G01*
X146012376Y-105541889D01*
X146164041Y-105643228D01*
X146293022Y-105772209D01*
X146394361Y-105923874D01*
X146464165Y-106092396D01*
X146499750Y-106271297D01*
X146499750Y-106453703D01*
X146464165Y-106632604D01*
X146394361Y-106801126D01*
X146293022Y-106952791D01*
X146164041Y-107081772D01*
X146012376Y-107183111D01*
X145843854Y-107252915D01*
X145664953Y-107288500D01*
X145482547Y-107288500D01*
X145303646Y-107252915D01*
X145135124Y-107183111D01*
X144983459Y-107081772D01*
X144854478Y-106952791D01*
X144753139Y-106801126D01*
X144683335Y-106632604D01*
X144647750Y-106453703D01*
X144647750Y-106271297D01*
X144683335Y-106092396D01*
X144753139Y-105923874D01*
X144854478Y-105772209D01*
X144983459Y-105643228D01*
X145135124Y-105541889D01*
X145303646Y-105472085D01*
X145482547Y-105436500D01*
X145664953Y-105436500D01*
X145843854Y-105472085D01*
X145843854Y-105472085D01*
G37*
G36*
X169812848Y-94384533D02*
G01*
X170277100Y-94576832D01*
X170277102Y-94576833D01*
X170694918Y-94856009D01*
X171050241Y-95211332D01*
X171329417Y-95629148D01*
X171329418Y-95629150D01*
X171521717Y-96093402D01*
X171619750Y-96586247D01*
X171619750Y-97088753D01*
X171521717Y-97581598D01*
X171329418Y-98045850D01*
X171329417Y-98045852D01*
X171050241Y-98463668D01*
X170694918Y-98818991D01*
X170277102Y-99098167D01*
X170277101Y-99098168D01*
X170277100Y-99098168D01*
X169812848Y-99290467D01*
X169320003Y-99388500D01*
X168817497Y-99388500D01*
X168324652Y-99290467D01*
X167860400Y-99098168D01*
X167860399Y-99098168D01*
X167860398Y-99098167D01*
X167442582Y-98818991D01*
X167087259Y-98463668D01*
X166808083Y-98045852D01*
X166808082Y-98045850D01*
X166615783Y-97581598D01*
X166517750Y-97088753D01*
X166517750Y-96586247D01*
X166615783Y-96093402D01*
X166808082Y-95629150D01*
X166808083Y-95629148D01*
X167087259Y-95211332D01*
X167442582Y-94856009D01*
X167860398Y-94576833D01*
X167860400Y-94576832D01*
X168324652Y-94384533D01*
X168817497Y-94286500D01*
X169320003Y-94286500D01*
X169812848Y-94384533D01*
X169812848Y-94384533D01*
G37*
G36*
X112662848Y-94384533D02*
G01*
X113127100Y-94576832D01*
X113127102Y-94576833D01*
X113544918Y-94856009D01*
X113900241Y-95211332D01*
X114179417Y-95629148D01*
X114179418Y-95629150D01*
X114371717Y-96093402D01*
X114469750Y-96586247D01*
X114469750Y-97088753D01*
X114371717Y-97581598D01*
X114179418Y-98045850D01*
X114179417Y-98045852D01*
X113900241Y-98463668D01*
X113544918Y-98818991D01*
X113127102Y-99098167D01*
X113127101Y-99098168D01*
X113127100Y-99098168D01*
X112662848Y-99290467D01*
X112170003Y-99388500D01*
X111667497Y-99388500D01*
X111174652Y-99290467D01*
X110710400Y-99098168D01*
X110710399Y-99098168D01*
X110710398Y-99098167D01*
X110292582Y-98818991D01*
X109937259Y-98463668D01*
X109658083Y-98045852D01*
X109658082Y-98045850D01*
X109465783Y-97581598D01*
X109367750Y-97088753D01*
X109367750Y-96586247D01*
X109465783Y-96093402D01*
X109658082Y-95629150D01*
X109658083Y-95629148D01*
X109937259Y-95211332D01*
X110292582Y-94856009D01*
X110710398Y-94576833D01*
X110710400Y-94576832D01*
X111174652Y-94384533D01*
X111667497Y-94286500D01*
X112170003Y-94286500D01*
X112662848Y-94384533D01*
X112662848Y-94384533D01*
G37*
G36*
X160140224Y-85346184D02*
G01*
X160358224Y-85436483D01*
X160512373Y-85500333D01*
X160847298Y-85724123D01*
X161132127Y-86008952D01*
X161355917Y-86343877D01*
X161388312Y-86422086D01*
X161510066Y-86716026D01*
X161588650Y-87111094D01*
X161588650Y-87513906D01*
X161510066Y-87908974D01*
X161459201Y-88031772D01*
X161355917Y-88281123D01*
X161132127Y-88616048D01*
X160847298Y-88900877D01*
X160512373Y-89124667D01*
X160358224Y-89188517D01*
X160140224Y-89278816D01*
X159745156Y-89357400D01*
X159342344Y-89357400D01*
X158947276Y-89278816D01*
X158729276Y-89188517D01*
X158575127Y-89124667D01*
X158240202Y-88900877D01*
X157955373Y-88616048D01*
X157731583Y-88281123D01*
X157628299Y-88031772D01*
X157577434Y-87908974D01*
X157498850Y-87513906D01*
X157498850Y-87111094D01*
X157577434Y-86716026D01*
X157699188Y-86422086D01*
X157731583Y-86343877D01*
X157955373Y-86008952D01*
X158240202Y-85724123D01*
X158575127Y-85500333D01*
X158729276Y-85436483D01*
X158947276Y-85346184D01*
X159342344Y-85267600D01*
X159745156Y-85267600D01*
X160140224Y-85346184D01*
X160140224Y-85346184D01*
G37*
G36*
X122040224Y-85346184D02*
G01*
X122258224Y-85436483D01*
X122412373Y-85500333D01*
X122747298Y-85724123D01*
X123032127Y-86008952D01*
X123255917Y-86343877D01*
X123288312Y-86422086D01*
X123410066Y-86716026D01*
X123488650Y-87111094D01*
X123488650Y-87513906D01*
X123410066Y-87908974D01*
X123359201Y-88031772D01*
X123255917Y-88281123D01*
X123032127Y-88616048D01*
X122747298Y-88900877D01*
X122412373Y-89124667D01*
X122258224Y-89188517D01*
X122040224Y-89278816D01*
X121645156Y-89357400D01*
X121242344Y-89357400D01*
X120847276Y-89278816D01*
X120629276Y-89188517D01*
X120475127Y-89124667D01*
X120140202Y-88900877D01*
X119855373Y-88616048D01*
X119631583Y-88281123D01*
X119528299Y-88031772D01*
X119477434Y-87908974D01*
X119398850Y-87513906D01*
X119398850Y-87111094D01*
X119477434Y-86716026D01*
X119599188Y-86422086D01*
X119631583Y-86343877D01*
X119855373Y-86008952D01*
X120140202Y-85724123D01*
X120475127Y-85500333D01*
X120629276Y-85436483D01*
X120847276Y-85346184D01*
X121242344Y-85267600D01*
X121645156Y-85267600D01*
X122040224Y-85346184D01*
X122040224Y-85346184D01*
G37*
G36*
X179190224Y-85346184D02*
G01*
X179408224Y-85436483D01*
X179562373Y-85500333D01*
X179897298Y-85724123D01*
X180182127Y-86008952D01*
X180405917Y-86343877D01*
X180438312Y-86422086D01*
X180560066Y-86716026D01*
X180638650Y-87111094D01*
X180638650Y-87513906D01*
X180560066Y-87908974D01*
X180509201Y-88031772D01*
X180405917Y-88281123D01*
X180182127Y-88616048D01*
X179897298Y-88900877D01*
X179562373Y-89124667D01*
X179408224Y-89188517D01*
X179190224Y-89278816D01*
X178795156Y-89357400D01*
X178392344Y-89357400D01*
X177997276Y-89278816D01*
X177779276Y-89188517D01*
X177625127Y-89124667D01*
X177290202Y-88900877D01*
X177005373Y-88616048D01*
X176781583Y-88281123D01*
X176678299Y-88031772D01*
X176627434Y-87908974D01*
X176548850Y-87513906D01*
X176548850Y-87111094D01*
X176627434Y-86716026D01*
X176749188Y-86422086D01*
X176781583Y-86343877D01*
X177005373Y-86008952D01*
X177290202Y-85724123D01*
X177625127Y-85500333D01*
X177779276Y-85436483D01*
X177997276Y-85346184D01*
X178392344Y-85267600D01*
X178795156Y-85267600D01*
X179190224Y-85346184D01*
X179190224Y-85346184D01*
G37*
G36*
X83940224Y-85346184D02*
G01*
X84158224Y-85436483D01*
X84312373Y-85500333D01*
X84647298Y-85724123D01*
X84932127Y-86008952D01*
X85155917Y-86343877D01*
X85188312Y-86422086D01*
X85310066Y-86716026D01*
X85388650Y-87111094D01*
X85388650Y-87513906D01*
X85310066Y-87908974D01*
X85259201Y-88031772D01*
X85155917Y-88281123D01*
X84932127Y-88616048D01*
X84647298Y-88900877D01*
X84312373Y-89124667D01*
X84158224Y-89188517D01*
X83940224Y-89278816D01*
X83545156Y-89357400D01*
X83142344Y-89357400D01*
X82747276Y-89278816D01*
X82529276Y-89188517D01*
X82375127Y-89124667D01*
X82040202Y-88900877D01*
X81755373Y-88616048D01*
X81531583Y-88281123D01*
X81428299Y-88031772D01*
X81377434Y-87908974D01*
X81298850Y-87513906D01*
X81298850Y-87111094D01*
X81377434Y-86716026D01*
X81499188Y-86422086D01*
X81531583Y-86343877D01*
X81755373Y-86008952D01*
X82040202Y-85724123D01*
X82375127Y-85500333D01*
X82529276Y-85436483D01*
X82747276Y-85346184D01*
X83142344Y-85267600D01*
X83545156Y-85267600D01*
X83940224Y-85346184D01*
X83940224Y-85346184D01*
G37*
G36*
X141090224Y-85346184D02*
G01*
X141308224Y-85436483D01*
X141462373Y-85500333D01*
X141797298Y-85724123D01*
X142082127Y-86008952D01*
X142305917Y-86343877D01*
X142338312Y-86422086D01*
X142460066Y-86716026D01*
X142538650Y-87111094D01*
X142538650Y-87513906D01*
X142460066Y-87908974D01*
X142409201Y-88031772D01*
X142305917Y-88281123D01*
X142082127Y-88616048D01*
X141797298Y-88900877D01*
X141462373Y-89124667D01*
X141308224Y-89188517D01*
X141090224Y-89278816D01*
X140695156Y-89357400D01*
X140292344Y-89357400D01*
X139897276Y-89278816D01*
X139679276Y-89188517D01*
X139525127Y-89124667D01*
X139190202Y-88900877D01*
X138905373Y-88616048D01*
X138681583Y-88281123D01*
X138578299Y-88031772D01*
X138527434Y-87908974D01*
X138448850Y-87513906D01*
X138448850Y-87111094D01*
X138527434Y-86716026D01*
X138649188Y-86422086D01*
X138681583Y-86343877D01*
X138905373Y-86008952D01*
X139190202Y-85724123D01*
X139525127Y-85500333D01*
X139679276Y-85436483D01*
X139897276Y-85346184D01*
X140292344Y-85267600D01*
X140695156Y-85267600D01*
X141090224Y-85346184D01*
X141090224Y-85346184D01*
G37*
G36*
X102990224Y-85346184D02*
G01*
X103208224Y-85436483D01*
X103362373Y-85500333D01*
X103697298Y-85724123D01*
X103982127Y-86008952D01*
X104205917Y-86343877D01*
X104238312Y-86422086D01*
X104360066Y-86716026D01*
X104438650Y-87111094D01*
X104438650Y-87513906D01*
X104360066Y-87908974D01*
X104309201Y-88031772D01*
X104205917Y-88281123D01*
X103982127Y-88616048D01*
X103697298Y-88900877D01*
X103362373Y-89124667D01*
X103208224Y-89188517D01*
X102990224Y-89278816D01*
X102595156Y-89357400D01*
X102192344Y-89357400D01*
X101797276Y-89278816D01*
X101579276Y-89188517D01*
X101425127Y-89124667D01*
X101090202Y-88900877D01*
X100805373Y-88616048D01*
X100581583Y-88281123D01*
X100478299Y-88031772D01*
X100427434Y-87908974D01*
X100348850Y-87513906D01*
X100348850Y-87111094D01*
X100427434Y-86716026D01*
X100549188Y-86422086D01*
X100581583Y-86343877D01*
X100805373Y-86008952D01*
X101090202Y-85724123D01*
X101425127Y-85500333D01*
X101579276Y-85436483D01*
X101797276Y-85346184D01*
X102192344Y-85267600D01*
X102595156Y-85267600D01*
X102990224Y-85346184D01*
X102990224Y-85346184D01*
G37*
G36*
X126793854Y-86422085D02*
G01*
X126962376Y-86491889D01*
X127114041Y-86593228D01*
X127243022Y-86722209D01*
X127344361Y-86873874D01*
X127414165Y-87042396D01*
X127449750Y-87221297D01*
X127449750Y-87403703D01*
X127414165Y-87582604D01*
X127344361Y-87751126D01*
X127243022Y-87902791D01*
X127114041Y-88031772D01*
X126962376Y-88133111D01*
X126793854Y-88202915D01*
X126614953Y-88238500D01*
X126432547Y-88238500D01*
X126253646Y-88202915D01*
X126085124Y-88133111D01*
X125933459Y-88031772D01*
X125804478Y-87902791D01*
X125703139Y-87751126D01*
X125633335Y-87582604D01*
X125597750Y-87403703D01*
X125597750Y-87221297D01*
X125633335Y-87042396D01*
X125703139Y-86873874D01*
X125804478Y-86722209D01*
X125933459Y-86593228D01*
X126085124Y-86491889D01*
X126253646Y-86422085D01*
X126432547Y-86386500D01*
X126614953Y-86386500D01*
X126793854Y-86422085D01*
X126793854Y-86422085D01*
G37*
G36*
X116633854Y-86422085D02*
G01*
X116802376Y-86491889D01*
X116954041Y-86593228D01*
X117083022Y-86722209D01*
X117184361Y-86873874D01*
X117254165Y-87042396D01*
X117289750Y-87221297D01*
X117289750Y-87403703D01*
X117254165Y-87582604D01*
X117184361Y-87751126D01*
X117083022Y-87902791D01*
X116954041Y-88031772D01*
X116802376Y-88133111D01*
X116633854Y-88202915D01*
X116454953Y-88238500D01*
X116272547Y-88238500D01*
X116093646Y-88202915D01*
X115925124Y-88133111D01*
X115773459Y-88031772D01*
X115644478Y-87902791D01*
X115543139Y-87751126D01*
X115473335Y-87582604D01*
X115437750Y-87403703D01*
X115437750Y-87221297D01*
X115473335Y-87042396D01*
X115543139Y-86873874D01*
X115644478Y-86722209D01*
X115773459Y-86593228D01*
X115925124Y-86491889D01*
X116093646Y-86422085D01*
X116272547Y-86386500D01*
X116454953Y-86386500D01*
X116633854Y-86422085D01*
X116633854Y-86422085D01*
G37*
G36*
X135683854Y-86422085D02*
G01*
X135852376Y-86491889D01*
X136004041Y-86593228D01*
X136133022Y-86722209D01*
X136234361Y-86873874D01*
X136304165Y-87042396D01*
X136339750Y-87221297D01*
X136339750Y-87403703D01*
X136304165Y-87582604D01*
X136234361Y-87751126D01*
X136133022Y-87902791D01*
X136004041Y-88031772D01*
X135852376Y-88133111D01*
X135683854Y-88202915D01*
X135504953Y-88238500D01*
X135322547Y-88238500D01*
X135143646Y-88202915D01*
X134975124Y-88133111D01*
X134823459Y-88031772D01*
X134694478Y-87902791D01*
X134593139Y-87751126D01*
X134523335Y-87582604D01*
X134487750Y-87403703D01*
X134487750Y-87221297D01*
X134523335Y-87042396D01*
X134593139Y-86873874D01*
X134694478Y-86722209D01*
X134823459Y-86593228D01*
X134975124Y-86491889D01*
X135143646Y-86422085D01*
X135322547Y-86386500D01*
X135504953Y-86386500D01*
X135683854Y-86422085D01*
X135683854Y-86422085D01*
G37*
G36*
X97583854Y-86422085D02*
G01*
X97752376Y-86491889D01*
X97904041Y-86593228D01*
X98033022Y-86722209D01*
X98134361Y-86873874D01*
X98204165Y-87042396D01*
X98239750Y-87221297D01*
X98239750Y-87403703D01*
X98204165Y-87582604D01*
X98134361Y-87751126D01*
X98033022Y-87902791D01*
X97904041Y-88031772D01*
X97752376Y-88133111D01*
X97583854Y-88202915D01*
X97404953Y-88238500D01*
X97222547Y-88238500D01*
X97043646Y-88202915D01*
X96875124Y-88133111D01*
X96723459Y-88031772D01*
X96594478Y-87902791D01*
X96493139Y-87751126D01*
X96423335Y-87582604D01*
X96387750Y-87403703D01*
X96387750Y-87221297D01*
X96423335Y-87042396D01*
X96493139Y-86873874D01*
X96594478Y-86722209D01*
X96723459Y-86593228D01*
X96875124Y-86491889D01*
X97043646Y-86422085D01*
X97222547Y-86386500D01*
X97404953Y-86386500D01*
X97583854Y-86422085D01*
X97583854Y-86422085D01*
G37*
G36*
X88693854Y-86422085D02*
G01*
X88862376Y-86491889D01*
X89014041Y-86593228D01*
X89143022Y-86722209D01*
X89244361Y-86873874D01*
X89314165Y-87042396D01*
X89349750Y-87221297D01*
X89349750Y-87403703D01*
X89314165Y-87582604D01*
X89244361Y-87751126D01*
X89143022Y-87902791D01*
X89014041Y-88031772D01*
X88862376Y-88133111D01*
X88693854Y-88202915D01*
X88514953Y-88238500D01*
X88332547Y-88238500D01*
X88153646Y-88202915D01*
X87985124Y-88133111D01*
X87833459Y-88031772D01*
X87704478Y-87902791D01*
X87603139Y-87751126D01*
X87533335Y-87582604D01*
X87497750Y-87403703D01*
X87497750Y-87221297D01*
X87533335Y-87042396D01*
X87603139Y-86873874D01*
X87704478Y-86722209D01*
X87833459Y-86593228D01*
X87985124Y-86491889D01*
X88153646Y-86422085D01*
X88332547Y-86386500D01*
X88514953Y-86386500D01*
X88693854Y-86422085D01*
X88693854Y-86422085D01*
G37*
G36*
X78533854Y-86422085D02*
G01*
X78702376Y-86491889D01*
X78854041Y-86593228D01*
X78983022Y-86722209D01*
X79084361Y-86873874D01*
X79154165Y-87042396D01*
X79189750Y-87221297D01*
X79189750Y-87403703D01*
X79154165Y-87582604D01*
X79084361Y-87751126D01*
X78983022Y-87902791D01*
X78854041Y-88031772D01*
X78702376Y-88133111D01*
X78533854Y-88202915D01*
X78354953Y-88238500D01*
X78172547Y-88238500D01*
X77993646Y-88202915D01*
X77825124Y-88133111D01*
X77673459Y-88031772D01*
X77544478Y-87902791D01*
X77443139Y-87751126D01*
X77373335Y-87582604D01*
X77337750Y-87403703D01*
X77337750Y-87221297D01*
X77373335Y-87042396D01*
X77443139Y-86873874D01*
X77544478Y-86722209D01*
X77673459Y-86593228D01*
X77825124Y-86491889D01*
X77993646Y-86422085D01*
X78172547Y-86386500D01*
X78354953Y-86386500D01*
X78533854Y-86422085D01*
X78533854Y-86422085D01*
G37*
G36*
X183943854Y-86422085D02*
G01*
X184112376Y-86491889D01*
X184264041Y-86593228D01*
X184393022Y-86722209D01*
X184494361Y-86873874D01*
X184564165Y-87042396D01*
X184599750Y-87221297D01*
X184599750Y-87403703D01*
X184564165Y-87582604D01*
X184494361Y-87751126D01*
X184393022Y-87902791D01*
X184264041Y-88031772D01*
X184112376Y-88133111D01*
X183943854Y-88202915D01*
X183764953Y-88238500D01*
X183582547Y-88238500D01*
X183403646Y-88202915D01*
X183235124Y-88133111D01*
X183083459Y-88031772D01*
X182954478Y-87902791D01*
X182853139Y-87751126D01*
X182783335Y-87582604D01*
X182747750Y-87403703D01*
X182747750Y-87221297D01*
X182783335Y-87042396D01*
X182853139Y-86873874D01*
X182954478Y-86722209D01*
X183083459Y-86593228D01*
X183235124Y-86491889D01*
X183403646Y-86422085D01*
X183582547Y-86386500D01*
X183764953Y-86386500D01*
X183943854Y-86422085D01*
X183943854Y-86422085D01*
G37*
G36*
X164893854Y-86422085D02*
G01*
X165062376Y-86491889D01*
X165214041Y-86593228D01*
X165343022Y-86722209D01*
X165444361Y-86873874D01*
X165514165Y-87042396D01*
X165549750Y-87221297D01*
X165549750Y-87403703D01*
X165514165Y-87582604D01*
X165444361Y-87751126D01*
X165343022Y-87902791D01*
X165214041Y-88031772D01*
X165062376Y-88133111D01*
X164893854Y-88202915D01*
X164714953Y-88238500D01*
X164532547Y-88238500D01*
X164353646Y-88202915D01*
X164185124Y-88133111D01*
X164033459Y-88031772D01*
X163904478Y-87902791D01*
X163803139Y-87751126D01*
X163733335Y-87582604D01*
X163697750Y-87403703D01*
X163697750Y-87221297D01*
X163733335Y-87042396D01*
X163803139Y-86873874D01*
X163904478Y-86722209D01*
X164033459Y-86593228D01*
X164185124Y-86491889D01*
X164353646Y-86422085D01*
X164532547Y-86386500D01*
X164714953Y-86386500D01*
X164893854Y-86422085D01*
X164893854Y-86422085D01*
G37*
G36*
X107743854Y-86422085D02*
G01*
X107912376Y-86491889D01*
X108064041Y-86593228D01*
X108193022Y-86722209D01*
X108294361Y-86873874D01*
X108364165Y-87042396D01*
X108399750Y-87221297D01*
X108399750Y-87403703D01*
X108364165Y-87582604D01*
X108294361Y-87751126D01*
X108193022Y-87902791D01*
X108064041Y-88031772D01*
X107912376Y-88133111D01*
X107743854Y-88202915D01*
X107564953Y-88238500D01*
X107382547Y-88238500D01*
X107203646Y-88202915D01*
X107035124Y-88133111D01*
X106883459Y-88031772D01*
X106754478Y-87902791D01*
X106653139Y-87751126D01*
X106583335Y-87582604D01*
X106547750Y-87403703D01*
X106547750Y-87221297D01*
X106583335Y-87042396D01*
X106653139Y-86873874D01*
X106754478Y-86722209D01*
X106883459Y-86593228D01*
X107035124Y-86491889D01*
X107203646Y-86422085D01*
X107382547Y-86386500D01*
X107564953Y-86386500D01*
X107743854Y-86422085D01*
X107743854Y-86422085D01*
G37*
G36*
X145843854Y-86422085D02*
G01*
X146012376Y-86491889D01*
X146164041Y-86593228D01*
X146293022Y-86722209D01*
X146394361Y-86873874D01*
X146464165Y-87042396D01*
X146499750Y-87221297D01*
X146499750Y-87403703D01*
X146464165Y-87582604D01*
X146394361Y-87751126D01*
X146293022Y-87902791D01*
X146164041Y-88031772D01*
X146012376Y-88133111D01*
X145843854Y-88202915D01*
X145664953Y-88238500D01*
X145482547Y-88238500D01*
X145303646Y-88202915D01*
X145135124Y-88133111D01*
X144983459Y-88031772D01*
X144854478Y-87902791D01*
X144753139Y-87751126D01*
X144683335Y-87582604D01*
X144647750Y-87403703D01*
X144647750Y-87221297D01*
X144683335Y-87042396D01*
X144753139Y-86873874D01*
X144854478Y-86722209D01*
X144983459Y-86593228D01*
X145135124Y-86491889D01*
X145303646Y-86422085D01*
X145482547Y-86386500D01*
X145664953Y-86386500D01*
X145843854Y-86422085D01*
X145843854Y-86422085D01*
G37*
G36*
X154733854Y-86422085D02*
G01*
X154902376Y-86491889D01*
X155054041Y-86593228D01*
X155183022Y-86722209D01*
X155284361Y-86873874D01*
X155354165Y-87042396D01*
X155389750Y-87221297D01*
X155389750Y-87403703D01*
X155354165Y-87582604D01*
X155284361Y-87751126D01*
X155183022Y-87902791D01*
X155054041Y-88031772D01*
X154902376Y-88133111D01*
X154733854Y-88202915D01*
X154554953Y-88238500D01*
X154372547Y-88238500D01*
X154193646Y-88202915D01*
X154025124Y-88133111D01*
X153873459Y-88031772D01*
X153744478Y-87902791D01*
X153643139Y-87751126D01*
X153573335Y-87582604D01*
X153537750Y-87403703D01*
X153537750Y-87221297D01*
X153573335Y-87042396D01*
X153643139Y-86873874D01*
X153744478Y-86722209D01*
X153873459Y-86593228D01*
X154025124Y-86491889D01*
X154193646Y-86422085D01*
X154372547Y-86386500D01*
X154554953Y-86386500D01*
X154733854Y-86422085D01*
X154733854Y-86422085D01*
G37*
G36*
X173783854Y-86422085D02*
G01*
X173952376Y-86491889D01*
X174104041Y-86593228D01*
X174233022Y-86722209D01*
X174334361Y-86873874D01*
X174404165Y-87042396D01*
X174439750Y-87221297D01*
X174439750Y-87403703D01*
X174404165Y-87582604D01*
X174334361Y-87751126D01*
X174233022Y-87902791D01*
X174104041Y-88031772D01*
X173952376Y-88133111D01*
X173783854Y-88202915D01*
X173604953Y-88238500D01*
X173422547Y-88238500D01*
X173243646Y-88202915D01*
X173075124Y-88133111D01*
X172923459Y-88031772D01*
X172794478Y-87902791D01*
X172693139Y-87751126D01*
X172623335Y-87582604D01*
X172587750Y-87403703D01*
X172587750Y-87221297D01*
X172623335Y-87042396D01*
X172693139Y-86873874D01*
X172794478Y-86722209D01*
X172923459Y-86593228D01*
X173075124Y-86491889D01*
X173243646Y-86422085D01*
X173422547Y-86386500D01*
X173604953Y-86386500D01*
X173783854Y-86422085D01*
X173783854Y-86422085D01*
G37*
G36*
X160140224Y-66296184D02*
G01*
X160358224Y-66386483D01*
X160512373Y-66450333D01*
X160847298Y-66674123D01*
X161132127Y-66958952D01*
X161355917Y-67293877D01*
X161388312Y-67372086D01*
X161510066Y-67666026D01*
X161588650Y-68061094D01*
X161588650Y-68463906D01*
X161510066Y-68858974D01*
X161459201Y-68981772D01*
X161355917Y-69231123D01*
X161132127Y-69566048D01*
X160847298Y-69850877D01*
X160512373Y-70074667D01*
X160358224Y-70138517D01*
X160140224Y-70228816D01*
X159745156Y-70307400D01*
X159342344Y-70307400D01*
X158947276Y-70228816D01*
X158729276Y-70138517D01*
X158575127Y-70074667D01*
X158240202Y-69850877D01*
X157955373Y-69566048D01*
X157731583Y-69231123D01*
X157628299Y-68981772D01*
X157577434Y-68858974D01*
X157498850Y-68463906D01*
X157498850Y-68061094D01*
X157577434Y-67666026D01*
X157699188Y-67372086D01*
X157731583Y-67293877D01*
X157955373Y-66958952D01*
X158240202Y-66674123D01*
X158575127Y-66450333D01*
X158729276Y-66386483D01*
X158947276Y-66296184D01*
X159342344Y-66217600D01*
X159745156Y-66217600D01*
X160140224Y-66296184D01*
X160140224Y-66296184D01*
G37*
G36*
X141090224Y-66296184D02*
G01*
X141308224Y-66386483D01*
X141462373Y-66450333D01*
X141797298Y-66674123D01*
X142082127Y-66958952D01*
X142305917Y-67293877D01*
X142338312Y-67372086D01*
X142460066Y-67666026D01*
X142538650Y-68061094D01*
X142538650Y-68463906D01*
X142460066Y-68858974D01*
X142409201Y-68981772D01*
X142305917Y-69231123D01*
X142082127Y-69566048D01*
X141797298Y-69850877D01*
X141462373Y-70074667D01*
X141308224Y-70138517D01*
X141090224Y-70228816D01*
X140695156Y-70307400D01*
X140292344Y-70307400D01*
X139897276Y-70228816D01*
X139679276Y-70138517D01*
X139525127Y-70074667D01*
X139190202Y-69850877D01*
X138905373Y-69566048D01*
X138681583Y-69231123D01*
X138578299Y-68981772D01*
X138527434Y-68858974D01*
X138448850Y-68463906D01*
X138448850Y-68061094D01*
X138527434Y-67666026D01*
X138649188Y-67372086D01*
X138681583Y-67293877D01*
X138905373Y-66958952D01*
X139190202Y-66674123D01*
X139525127Y-66450333D01*
X139679276Y-66386483D01*
X139897276Y-66296184D01*
X140292344Y-66217600D01*
X140695156Y-66217600D01*
X141090224Y-66296184D01*
X141090224Y-66296184D01*
G37*
G36*
X122040224Y-66296184D02*
G01*
X122258224Y-66386483D01*
X122412373Y-66450333D01*
X122747298Y-66674123D01*
X123032127Y-66958952D01*
X123255917Y-67293877D01*
X123288312Y-67372086D01*
X123410066Y-67666026D01*
X123488650Y-68061094D01*
X123488650Y-68463906D01*
X123410066Y-68858974D01*
X123359201Y-68981772D01*
X123255917Y-69231123D01*
X123032127Y-69566048D01*
X122747298Y-69850877D01*
X122412373Y-70074667D01*
X122258224Y-70138517D01*
X122040224Y-70228816D01*
X121645156Y-70307400D01*
X121242344Y-70307400D01*
X120847276Y-70228816D01*
X120629276Y-70138517D01*
X120475127Y-70074667D01*
X120140202Y-69850877D01*
X119855373Y-69566048D01*
X119631583Y-69231123D01*
X119528299Y-68981772D01*
X119477434Y-68858974D01*
X119398850Y-68463906D01*
X119398850Y-68061094D01*
X119477434Y-67666026D01*
X119599188Y-67372086D01*
X119631583Y-67293877D01*
X119855373Y-66958952D01*
X120140202Y-66674123D01*
X120475127Y-66450333D01*
X120629276Y-66386483D01*
X120847276Y-66296184D01*
X121242344Y-66217600D01*
X121645156Y-66217600D01*
X122040224Y-66296184D01*
X122040224Y-66296184D01*
G37*
G36*
X102990224Y-66296184D02*
G01*
X103208224Y-66386483D01*
X103362373Y-66450333D01*
X103697298Y-66674123D01*
X103982127Y-66958952D01*
X104205917Y-67293877D01*
X104238312Y-67372086D01*
X104360066Y-67666026D01*
X104438650Y-68061094D01*
X104438650Y-68463906D01*
X104360066Y-68858974D01*
X104309201Y-68981772D01*
X104205917Y-69231123D01*
X103982127Y-69566048D01*
X103697298Y-69850877D01*
X103362373Y-70074667D01*
X103208224Y-70138517D01*
X102990224Y-70228816D01*
X102595156Y-70307400D01*
X102192344Y-70307400D01*
X101797276Y-70228816D01*
X101579276Y-70138517D01*
X101425127Y-70074667D01*
X101090202Y-69850877D01*
X100805373Y-69566048D01*
X100581583Y-69231123D01*
X100478299Y-68981772D01*
X100427434Y-68858974D01*
X100348850Y-68463906D01*
X100348850Y-68061094D01*
X100427434Y-67666026D01*
X100549188Y-67372086D01*
X100581583Y-67293877D01*
X100805373Y-66958952D01*
X101090202Y-66674123D01*
X101425127Y-66450333D01*
X101579276Y-66386483D01*
X101797276Y-66296184D01*
X102192344Y-66217600D01*
X102595156Y-66217600D01*
X102990224Y-66296184D01*
X102990224Y-66296184D01*
G37*
G36*
X179190224Y-66296184D02*
G01*
X179408224Y-66386483D01*
X179562373Y-66450333D01*
X179897298Y-66674123D01*
X180182127Y-66958952D01*
X180405917Y-67293877D01*
X180438312Y-67372086D01*
X180560066Y-67666026D01*
X180638650Y-68061094D01*
X180638650Y-68463906D01*
X180560066Y-68858974D01*
X180509201Y-68981772D01*
X180405917Y-69231123D01*
X180182127Y-69566048D01*
X179897298Y-69850877D01*
X179562373Y-70074667D01*
X179408224Y-70138517D01*
X179190224Y-70228816D01*
X178795156Y-70307400D01*
X178392344Y-70307400D01*
X177997276Y-70228816D01*
X177779276Y-70138517D01*
X177625127Y-70074667D01*
X177290202Y-69850877D01*
X177005373Y-69566048D01*
X176781583Y-69231123D01*
X176678299Y-68981772D01*
X176627434Y-68858974D01*
X176548850Y-68463906D01*
X176548850Y-68061094D01*
X176627434Y-67666026D01*
X176749188Y-67372086D01*
X176781583Y-67293877D01*
X177005373Y-66958952D01*
X177290202Y-66674123D01*
X177625127Y-66450333D01*
X177779276Y-66386483D01*
X177997276Y-66296184D01*
X178392344Y-66217600D01*
X178795156Y-66217600D01*
X179190224Y-66296184D01*
X179190224Y-66296184D01*
G37*
G36*
X83940224Y-66296184D02*
G01*
X84158224Y-66386483D01*
X84312373Y-66450333D01*
X84647298Y-66674123D01*
X84932127Y-66958952D01*
X85155917Y-67293877D01*
X85188312Y-67372086D01*
X85310066Y-67666026D01*
X85388650Y-68061094D01*
X85388650Y-68463906D01*
X85310066Y-68858974D01*
X85259201Y-68981772D01*
X85155917Y-69231123D01*
X84932127Y-69566048D01*
X84647298Y-69850877D01*
X84312373Y-70074667D01*
X84158224Y-70138517D01*
X83940224Y-70228816D01*
X83545156Y-70307400D01*
X83142344Y-70307400D01*
X82747276Y-70228816D01*
X82529276Y-70138517D01*
X82375127Y-70074667D01*
X82040202Y-69850877D01*
X81755373Y-69566048D01*
X81531583Y-69231123D01*
X81428299Y-68981772D01*
X81377434Y-68858974D01*
X81298850Y-68463906D01*
X81298850Y-68061094D01*
X81377434Y-67666026D01*
X81499188Y-67372086D01*
X81531583Y-67293877D01*
X81755373Y-66958952D01*
X82040202Y-66674123D01*
X82375127Y-66450333D01*
X82529276Y-66386483D01*
X82747276Y-66296184D01*
X83142344Y-66217600D01*
X83545156Y-66217600D01*
X83940224Y-66296184D01*
X83940224Y-66296184D01*
G37*
G36*
X173783854Y-67372085D02*
G01*
X173952376Y-67441889D01*
X174104041Y-67543228D01*
X174233022Y-67672209D01*
X174334361Y-67823874D01*
X174404165Y-67992396D01*
X174439750Y-68171297D01*
X174439750Y-68353703D01*
X174404165Y-68532604D01*
X174334361Y-68701126D01*
X174233022Y-68852791D01*
X174104041Y-68981772D01*
X173952376Y-69083111D01*
X173783854Y-69152915D01*
X173604953Y-69188500D01*
X173422547Y-69188500D01*
X173243646Y-69152915D01*
X173075124Y-69083111D01*
X172923459Y-68981772D01*
X172794478Y-68852791D01*
X172693139Y-68701126D01*
X172623335Y-68532604D01*
X172587750Y-68353703D01*
X172587750Y-68171297D01*
X172623335Y-67992396D01*
X172693139Y-67823874D01*
X172794478Y-67672209D01*
X172923459Y-67543228D01*
X173075124Y-67441889D01*
X173243646Y-67372085D01*
X173422547Y-67336500D01*
X173604953Y-67336500D01*
X173783854Y-67372085D01*
X173783854Y-67372085D01*
G37*
G36*
X164893854Y-67372085D02*
G01*
X165062376Y-67441889D01*
X165214041Y-67543228D01*
X165343022Y-67672209D01*
X165444361Y-67823874D01*
X165514165Y-67992396D01*
X165549750Y-68171297D01*
X165549750Y-68353703D01*
X165514165Y-68532604D01*
X165444361Y-68701126D01*
X165343022Y-68852791D01*
X165214041Y-68981772D01*
X165062376Y-69083111D01*
X164893854Y-69152915D01*
X164714953Y-69188500D01*
X164532547Y-69188500D01*
X164353646Y-69152915D01*
X164185124Y-69083111D01*
X164033459Y-68981772D01*
X163904478Y-68852791D01*
X163803139Y-68701126D01*
X163733335Y-68532604D01*
X163697750Y-68353703D01*
X163697750Y-68171297D01*
X163733335Y-67992396D01*
X163803139Y-67823874D01*
X163904478Y-67672209D01*
X164033459Y-67543228D01*
X164185124Y-67441889D01*
X164353646Y-67372085D01*
X164532547Y-67336500D01*
X164714953Y-67336500D01*
X164893854Y-67372085D01*
X164893854Y-67372085D01*
G37*
G36*
X154733854Y-67372085D02*
G01*
X154902376Y-67441889D01*
X155054041Y-67543228D01*
X155183022Y-67672209D01*
X155284361Y-67823874D01*
X155354165Y-67992396D01*
X155389750Y-68171297D01*
X155389750Y-68353703D01*
X155354165Y-68532604D01*
X155284361Y-68701126D01*
X155183022Y-68852791D01*
X155054041Y-68981772D01*
X154902376Y-69083111D01*
X154733854Y-69152915D01*
X154554953Y-69188500D01*
X154372547Y-69188500D01*
X154193646Y-69152915D01*
X154025124Y-69083111D01*
X153873459Y-68981772D01*
X153744478Y-68852791D01*
X153643139Y-68701126D01*
X153573335Y-68532604D01*
X153537750Y-68353703D01*
X153537750Y-68171297D01*
X153573335Y-67992396D01*
X153643139Y-67823874D01*
X153744478Y-67672209D01*
X153873459Y-67543228D01*
X154025124Y-67441889D01*
X154193646Y-67372085D01*
X154372547Y-67336500D01*
X154554953Y-67336500D01*
X154733854Y-67372085D01*
X154733854Y-67372085D01*
G37*
G36*
X145843854Y-67372085D02*
G01*
X146012376Y-67441889D01*
X146164041Y-67543228D01*
X146293022Y-67672209D01*
X146394361Y-67823874D01*
X146464165Y-67992396D01*
X146499750Y-68171297D01*
X146499750Y-68353703D01*
X146464165Y-68532604D01*
X146394361Y-68701126D01*
X146293022Y-68852791D01*
X146164041Y-68981772D01*
X146012376Y-69083111D01*
X145843854Y-69152915D01*
X145664953Y-69188500D01*
X145482547Y-69188500D01*
X145303646Y-69152915D01*
X145135124Y-69083111D01*
X144983459Y-68981772D01*
X144854478Y-68852791D01*
X144753139Y-68701126D01*
X144683335Y-68532604D01*
X144647750Y-68353703D01*
X144647750Y-68171297D01*
X144683335Y-67992396D01*
X144753139Y-67823874D01*
X144854478Y-67672209D01*
X144983459Y-67543228D01*
X145135124Y-67441889D01*
X145303646Y-67372085D01*
X145482547Y-67336500D01*
X145664953Y-67336500D01*
X145843854Y-67372085D01*
X145843854Y-67372085D01*
G37*
G36*
X135683854Y-67372085D02*
G01*
X135852376Y-67441889D01*
X136004041Y-67543228D01*
X136133022Y-67672209D01*
X136234361Y-67823874D01*
X136304165Y-67992396D01*
X136339750Y-68171297D01*
X136339750Y-68353703D01*
X136304165Y-68532604D01*
X136234361Y-68701126D01*
X136133022Y-68852791D01*
X136004041Y-68981772D01*
X135852376Y-69083111D01*
X135683854Y-69152915D01*
X135504953Y-69188500D01*
X135322547Y-69188500D01*
X135143646Y-69152915D01*
X134975124Y-69083111D01*
X134823459Y-68981772D01*
X134694478Y-68852791D01*
X134593139Y-68701126D01*
X134523335Y-68532604D01*
X134487750Y-68353703D01*
X134487750Y-68171297D01*
X134523335Y-67992396D01*
X134593139Y-67823874D01*
X134694478Y-67672209D01*
X134823459Y-67543228D01*
X134975124Y-67441889D01*
X135143646Y-67372085D01*
X135322547Y-67336500D01*
X135504953Y-67336500D01*
X135683854Y-67372085D01*
X135683854Y-67372085D01*
G37*
G36*
X126793854Y-67372085D02*
G01*
X126962376Y-67441889D01*
X127114041Y-67543228D01*
X127243022Y-67672209D01*
X127344361Y-67823874D01*
X127414165Y-67992396D01*
X127449750Y-68171297D01*
X127449750Y-68353703D01*
X127414165Y-68532604D01*
X127344361Y-68701126D01*
X127243022Y-68852791D01*
X127114041Y-68981772D01*
X126962376Y-69083111D01*
X126793854Y-69152915D01*
X126614953Y-69188500D01*
X126432547Y-69188500D01*
X126253646Y-69152915D01*
X126085124Y-69083111D01*
X125933459Y-68981772D01*
X125804478Y-68852791D01*
X125703139Y-68701126D01*
X125633335Y-68532604D01*
X125597750Y-68353703D01*
X125597750Y-68171297D01*
X125633335Y-67992396D01*
X125703139Y-67823874D01*
X125804478Y-67672209D01*
X125933459Y-67543228D01*
X126085124Y-67441889D01*
X126253646Y-67372085D01*
X126432547Y-67336500D01*
X126614953Y-67336500D01*
X126793854Y-67372085D01*
X126793854Y-67372085D01*
G37*
G36*
X78533854Y-67372085D02*
G01*
X78702376Y-67441889D01*
X78854041Y-67543228D01*
X78983022Y-67672209D01*
X79084361Y-67823874D01*
X79154165Y-67992396D01*
X79189750Y-68171297D01*
X79189750Y-68353703D01*
X79154165Y-68532604D01*
X79084361Y-68701126D01*
X78983022Y-68852791D01*
X78854041Y-68981772D01*
X78702376Y-69083111D01*
X78533854Y-69152915D01*
X78354953Y-69188500D01*
X78172547Y-69188500D01*
X77993646Y-69152915D01*
X77825124Y-69083111D01*
X77673459Y-68981772D01*
X77544478Y-68852791D01*
X77443139Y-68701126D01*
X77373335Y-68532604D01*
X77337750Y-68353703D01*
X77337750Y-68171297D01*
X77373335Y-67992396D01*
X77443139Y-67823874D01*
X77544478Y-67672209D01*
X77673459Y-67543228D01*
X77825124Y-67441889D01*
X77993646Y-67372085D01*
X78172547Y-67336500D01*
X78354953Y-67336500D01*
X78533854Y-67372085D01*
X78533854Y-67372085D01*
G37*
G36*
X88693854Y-67372085D02*
G01*
X88862376Y-67441889D01*
X89014041Y-67543228D01*
X89143022Y-67672209D01*
X89244361Y-67823874D01*
X89314165Y-67992396D01*
X89349750Y-68171297D01*
X89349750Y-68353703D01*
X89314165Y-68532604D01*
X89244361Y-68701126D01*
X89143022Y-68852791D01*
X89014041Y-68981772D01*
X88862376Y-69083111D01*
X88693854Y-69152915D01*
X88514953Y-69188500D01*
X88332547Y-69188500D01*
X88153646Y-69152915D01*
X87985124Y-69083111D01*
X87833459Y-68981772D01*
X87704478Y-68852791D01*
X87603139Y-68701126D01*
X87533335Y-68532604D01*
X87497750Y-68353703D01*
X87497750Y-68171297D01*
X87533335Y-67992396D01*
X87603139Y-67823874D01*
X87704478Y-67672209D01*
X87833459Y-67543228D01*
X87985124Y-67441889D01*
X88153646Y-67372085D01*
X88332547Y-67336500D01*
X88514953Y-67336500D01*
X88693854Y-67372085D01*
X88693854Y-67372085D01*
G37*
G36*
X97583854Y-67372085D02*
G01*
X97752376Y-67441889D01*
X97904041Y-67543228D01*
X98033022Y-67672209D01*
X98134361Y-67823874D01*
X98204165Y-67992396D01*
X98239750Y-68171297D01*
X98239750Y-68353703D01*
X98204165Y-68532604D01*
X98134361Y-68701126D01*
X98033022Y-68852791D01*
X97904041Y-68981772D01*
X97752376Y-69083111D01*
X97583854Y-69152915D01*
X97404953Y-69188500D01*
X97222547Y-69188500D01*
X97043646Y-69152915D01*
X96875124Y-69083111D01*
X96723459Y-68981772D01*
X96594478Y-68852791D01*
X96493139Y-68701126D01*
X96423335Y-68532604D01*
X96387750Y-68353703D01*
X96387750Y-68171297D01*
X96423335Y-67992396D01*
X96493139Y-67823874D01*
X96594478Y-67672209D01*
X96723459Y-67543228D01*
X96875124Y-67441889D01*
X97043646Y-67372085D01*
X97222547Y-67336500D01*
X97404953Y-67336500D01*
X97583854Y-67372085D01*
X97583854Y-67372085D01*
G37*
G36*
X107743854Y-67372085D02*
G01*
X107912376Y-67441889D01*
X108064041Y-67543228D01*
X108193022Y-67672209D01*
X108294361Y-67823874D01*
X108364165Y-67992396D01*
X108399750Y-68171297D01*
X108399750Y-68353703D01*
X108364165Y-68532604D01*
X108294361Y-68701126D01*
X108193022Y-68852791D01*
X108064041Y-68981772D01*
X107912376Y-69083111D01*
X107743854Y-69152915D01*
X107564953Y-69188500D01*
X107382547Y-69188500D01*
X107203646Y-69152915D01*
X107035124Y-69083111D01*
X106883459Y-68981772D01*
X106754478Y-68852791D01*
X106653139Y-68701126D01*
X106583335Y-68532604D01*
X106547750Y-68353703D01*
X106547750Y-68171297D01*
X106583335Y-67992396D01*
X106653139Y-67823874D01*
X106754478Y-67672209D01*
X106883459Y-67543228D01*
X107035124Y-67441889D01*
X107203646Y-67372085D01*
X107382547Y-67336500D01*
X107564953Y-67336500D01*
X107743854Y-67372085D01*
X107743854Y-67372085D01*
G37*
G36*
X183943854Y-67372085D02*
G01*
X184112376Y-67441889D01*
X184264041Y-67543228D01*
X184393022Y-67672209D01*
X184494361Y-67823874D01*
X184564165Y-67992396D01*
X184599750Y-68171297D01*
X184599750Y-68353703D01*
X184564165Y-68532604D01*
X184494361Y-68701126D01*
X184393022Y-68852791D01*
X184264041Y-68981772D01*
X184112376Y-69083111D01*
X183943854Y-69152915D01*
X183764953Y-69188500D01*
X183582547Y-69188500D01*
X183403646Y-69152915D01*
X183235124Y-69083111D01*
X183083459Y-68981772D01*
X182954478Y-68852791D01*
X182853139Y-68701126D01*
X182783335Y-68532604D01*
X182747750Y-68353703D01*
X182747750Y-68171297D01*
X182783335Y-67992396D01*
X182853139Y-67823874D01*
X182954478Y-67672209D01*
X183083459Y-67543228D01*
X183235124Y-67441889D01*
X183403646Y-67372085D01*
X183582547Y-67336500D01*
X183764953Y-67336500D01*
X183943854Y-67372085D01*
X183943854Y-67372085D01*
G37*
G36*
X116633854Y-67372085D02*
G01*
X116802376Y-67441889D01*
X116954041Y-67543228D01*
X117083022Y-67672209D01*
X117184361Y-67823874D01*
X117254165Y-67992396D01*
X117289750Y-68171297D01*
X117289750Y-68353703D01*
X117254165Y-68532604D01*
X117184361Y-68701126D01*
X117083022Y-68852791D01*
X116954041Y-68981772D01*
X116802376Y-69083111D01*
X116633854Y-69152915D01*
X116454953Y-69188500D01*
X116272547Y-69188500D01*
X116093646Y-69152915D01*
X115925124Y-69083111D01*
X115773459Y-68981772D01*
X115644478Y-68852791D01*
X115543139Y-68701126D01*
X115473335Y-68532604D01*
X115437750Y-68353703D01*
X115437750Y-68171297D01*
X115473335Y-67992396D01*
X115543139Y-67823874D01*
X115644478Y-67672209D01*
X115773459Y-67543228D01*
X115925124Y-67441889D01*
X116093646Y-67372085D01*
X116272547Y-67336500D01*
X116454953Y-67336500D01*
X116633854Y-67372085D01*
X116633854Y-67372085D01*
G37*
G36*
X112662848Y-56284533D02*
G01*
X113127100Y-56476832D01*
X113127102Y-56476833D01*
X113544918Y-56756009D01*
X113900241Y-57111332D01*
X114179417Y-57529148D01*
X114179418Y-57529150D01*
X114371717Y-57993402D01*
X114469750Y-58486247D01*
X114469750Y-58988753D01*
X114371717Y-59481598D01*
X114179418Y-59945850D01*
X114179417Y-59945852D01*
X113900241Y-60363668D01*
X113544918Y-60718991D01*
X113127102Y-60998167D01*
X113127101Y-60998168D01*
X113127100Y-60998168D01*
X112662848Y-61190467D01*
X112170003Y-61288500D01*
X111667497Y-61288500D01*
X111174652Y-61190467D01*
X110710400Y-60998168D01*
X110710399Y-60998168D01*
X110710398Y-60998167D01*
X110292582Y-60718991D01*
X109937259Y-60363668D01*
X109658083Y-59945852D01*
X109658082Y-59945850D01*
X109465783Y-59481598D01*
X109367750Y-58988753D01*
X109367750Y-58486247D01*
X109465783Y-57993402D01*
X109658082Y-57529150D01*
X109658083Y-57529148D01*
X109937259Y-57111332D01*
X110292582Y-56756009D01*
X110710398Y-56476833D01*
X110710400Y-56476832D01*
X111174652Y-56284533D01*
X111667497Y-56186500D01*
X112170003Y-56186500D01*
X112662848Y-56284533D01*
X112662848Y-56284533D01*
G37*
G36*
X169812848Y-56284533D02*
G01*
X170277100Y-56476832D01*
X170277102Y-56476833D01*
X170694918Y-56756009D01*
X171050241Y-57111332D01*
X171329417Y-57529148D01*
X171329418Y-57529150D01*
X171521717Y-57993402D01*
X171619750Y-58486247D01*
X171619750Y-58988753D01*
X171521717Y-59481598D01*
X171329418Y-59945850D01*
X171329417Y-59945852D01*
X171050241Y-60363668D01*
X170694918Y-60718991D01*
X170277102Y-60998167D01*
X170277101Y-60998168D01*
X170277100Y-60998168D01*
X169812848Y-61190467D01*
X169320003Y-61288500D01*
X168817497Y-61288500D01*
X168324652Y-61190467D01*
X167860400Y-60998168D01*
X167860399Y-60998168D01*
X167860398Y-60998167D01*
X167442582Y-60718991D01*
X167087259Y-60363668D01*
X166808083Y-59945852D01*
X166808082Y-59945850D01*
X166615783Y-59481598D01*
X166517750Y-58988753D01*
X166517750Y-58486247D01*
X166615783Y-57993402D01*
X166808082Y-57529150D01*
X166808083Y-57529148D01*
X167087259Y-57111332D01*
X167442582Y-56756009D01*
X167860398Y-56476833D01*
X167860400Y-56476832D01*
X168324652Y-56284533D01*
X168817497Y-56186500D01*
X169320003Y-56186500D01*
X169812848Y-56284533D01*
X169812848Y-56284533D01*
G37*
G36*
X83940224Y-47246184D02*
G01*
X84158224Y-47336483D01*
X84312373Y-47400333D01*
X84647298Y-47624123D01*
X84932127Y-47908952D01*
X85155917Y-48243877D01*
X85188312Y-48322086D01*
X85310066Y-48616026D01*
X85388650Y-49011094D01*
X85388650Y-49413906D01*
X85310066Y-49808974D01*
X85259201Y-49931772D01*
X85155917Y-50181123D01*
X84932127Y-50516048D01*
X84647298Y-50800877D01*
X84312373Y-51024667D01*
X84158224Y-51088517D01*
X83940224Y-51178816D01*
X83545156Y-51257400D01*
X83142344Y-51257400D01*
X82747276Y-51178816D01*
X82529276Y-51088517D01*
X82375127Y-51024667D01*
X82040202Y-50800877D01*
X81755373Y-50516048D01*
X81531583Y-50181123D01*
X81428299Y-49931772D01*
X81377434Y-49808974D01*
X81298850Y-49413906D01*
X81298850Y-49011094D01*
X81377434Y-48616026D01*
X81499188Y-48322086D01*
X81531583Y-48243877D01*
X81755373Y-47908952D01*
X82040202Y-47624123D01*
X82375127Y-47400333D01*
X82529276Y-47336483D01*
X82747276Y-47246184D01*
X83142344Y-47167600D01*
X83545156Y-47167600D01*
X83940224Y-47246184D01*
X83940224Y-47246184D01*
G37*
G36*
X122040224Y-47246184D02*
G01*
X122258224Y-47336483D01*
X122412373Y-47400333D01*
X122747298Y-47624123D01*
X123032127Y-47908952D01*
X123255917Y-48243877D01*
X123288312Y-48322086D01*
X123410066Y-48616026D01*
X123488650Y-49011094D01*
X123488650Y-49413906D01*
X123410066Y-49808974D01*
X123359201Y-49931772D01*
X123255917Y-50181123D01*
X123032127Y-50516048D01*
X122747298Y-50800877D01*
X122412373Y-51024667D01*
X122258224Y-51088517D01*
X122040224Y-51178816D01*
X121645156Y-51257400D01*
X121242344Y-51257400D01*
X120847276Y-51178816D01*
X120629276Y-51088517D01*
X120475127Y-51024667D01*
X120140202Y-50800877D01*
X119855373Y-50516048D01*
X119631583Y-50181123D01*
X119528299Y-49931772D01*
X119477434Y-49808974D01*
X119398850Y-49413906D01*
X119398850Y-49011094D01*
X119477434Y-48616026D01*
X119599188Y-48322086D01*
X119631583Y-48243877D01*
X119855373Y-47908952D01*
X120140202Y-47624123D01*
X120475127Y-47400333D01*
X120629276Y-47336483D01*
X120847276Y-47246184D01*
X121242344Y-47167600D01*
X121645156Y-47167600D01*
X122040224Y-47246184D01*
X122040224Y-47246184D01*
G37*
G36*
X141090224Y-47246184D02*
G01*
X141308224Y-47336483D01*
X141462373Y-47400333D01*
X141797298Y-47624123D01*
X142082127Y-47908952D01*
X142305917Y-48243877D01*
X142338312Y-48322086D01*
X142460066Y-48616026D01*
X142538650Y-49011094D01*
X142538650Y-49413906D01*
X142460066Y-49808974D01*
X142409201Y-49931772D01*
X142305917Y-50181123D01*
X142082127Y-50516048D01*
X141797298Y-50800877D01*
X141462373Y-51024667D01*
X141308224Y-51088517D01*
X141090224Y-51178816D01*
X140695156Y-51257400D01*
X140292344Y-51257400D01*
X139897276Y-51178816D01*
X139679276Y-51088517D01*
X139525127Y-51024667D01*
X139190202Y-50800877D01*
X138905373Y-50516048D01*
X138681583Y-50181123D01*
X138578299Y-49931772D01*
X138527434Y-49808974D01*
X138448850Y-49413906D01*
X138448850Y-49011094D01*
X138527434Y-48616026D01*
X138649188Y-48322086D01*
X138681583Y-48243877D01*
X138905373Y-47908952D01*
X139190202Y-47624123D01*
X139525127Y-47400333D01*
X139679276Y-47336483D01*
X139897276Y-47246184D01*
X140292344Y-47167600D01*
X140695156Y-47167600D01*
X141090224Y-47246184D01*
X141090224Y-47246184D01*
G37*
G36*
X179190224Y-47246184D02*
G01*
X179408224Y-47336483D01*
X179562373Y-47400333D01*
X179897298Y-47624123D01*
X180182127Y-47908952D01*
X180405917Y-48243877D01*
X180438312Y-48322086D01*
X180560066Y-48616026D01*
X180638650Y-49011094D01*
X180638650Y-49413906D01*
X180560066Y-49808974D01*
X180509201Y-49931772D01*
X180405917Y-50181123D01*
X180182127Y-50516048D01*
X179897298Y-50800877D01*
X179562373Y-51024667D01*
X179408224Y-51088517D01*
X179190224Y-51178816D01*
X178795156Y-51257400D01*
X178392344Y-51257400D01*
X177997276Y-51178816D01*
X177779276Y-51088517D01*
X177625127Y-51024667D01*
X177290202Y-50800877D01*
X177005373Y-50516048D01*
X176781583Y-50181123D01*
X176678299Y-49931772D01*
X176627434Y-49808974D01*
X176548850Y-49413906D01*
X176548850Y-49011094D01*
X176627434Y-48616026D01*
X176749188Y-48322086D01*
X176781583Y-48243877D01*
X177005373Y-47908952D01*
X177290202Y-47624123D01*
X177625127Y-47400333D01*
X177779276Y-47336483D01*
X177997276Y-47246184D01*
X178392344Y-47167600D01*
X178795156Y-47167600D01*
X179190224Y-47246184D01*
X179190224Y-47246184D01*
G37*
G36*
X198240224Y-47246184D02*
G01*
X198458224Y-47336483D01*
X198612373Y-47400333D01*
X198947298Y-47624123D01*
X199232127Y-47908952D01*
X199455917Y-48243877D01*
X199488312Y-48322086D01*
X199610066Y-48616026D01*
X199688650Y-49011094D01*
X199688650Y-49413906D01*
X199610066Y-49808974D01*
X199559201Y-49931772D01*
X199455917Y-50181123D01*
X199232127Y-50516048D01*
X198947298Y-50800877D01*
X198612373Y-51024667D01*
X198458224Y-51088517D01*
X198240224Y-51178816D01*
X197845156Y-51257400D01*
X197442344Y-51257400D01*
X197047276Y-51178816D01*
X196829276Y-51088517D01*
X196675127Y-51024667D01*
X196340202Y-50800877D01*
X196055373Y-50516048D01*
X195831583Y-50181123D01*
X195728299Y-49931772D01*
X195677434Y-49808974D01*
X195598850Y-49413906D01*
X195598850Y-49011094D01*
X195677434Y-48616026D01*
X195799188Y-48322086D01*
X195831583Y-48243877D01*
X196055373Y-47908952D01*
X196340202Y-47624123D01*
X196675127Y-47400333D01*
X196829276Y-47336483D01*
X197047276Y-47246184D01*
X197442344Y-47167600D01*
X197845156Y-47167600D01*
X198240224Y-47246184D01*
X198240224Y-47246184D01*
G37*
G36*
X102990224Y-47246184D02*
G01*
X103208224Y-47336483D01*
X103362373Y-47400333D01*
X103697298Y-47624123D01*
X103982127Y-47908952D01*
X104205917Y-48243877D01*
X104238312Y-48322086D01*
X104360066Y-48616026D01*
X104438650Y-49011094D01*
X104438650Y-49413906D01*
X104360066Y-49808974D01*
X104309201Y-49931772D01*
X104205917Y-50181123D01*
X103982127Y-50516048D01*
X103697298Y-50800877D01*
X103362373Y-51024667D01*
X103208224Y-51088517D01*
X102990224Y-51178816D01*
X102595156Y-51257400D01*
X102192344Y-51257400D01*
X101797276Y-51178816D01*
X101579276Y-51088517D01*
X101425127Y-51024667D01*
X101090202Y-50800877D01*
X100805373Y-50516048D01*
X100581583Y-50181123D01*
X100478299Y-49931772D01*
X100427434Y-49808974D01*
X100348850Y-49413906D01*
X100348850Y-49011094D01*
X100427434Y-48616026D01*
X100549188Y-48322086D01*
X100581583Y-48243877D01*
X100805373Y-47908952D01*
X101090202Y-47624123D01*
X101425127Y-47400333D01*
X101579276Y-47336483D01*
X101797276Y-47246184D01*
X102192344Y-47167600D01*
X102595156Y-47167600D01*
X102990224Y-47246184D01*
X102990224Y-47246184D01*
G37*
G36*
X160140224Y-47246184D02*
G01*
X160358224Y-47336483D01*
X160512373Y-47400333D01*
X160847298Y-47624123D01*
X161132127Y-47908952D01*
X161355917Y-48243877D01*
X161388312Y-48322086D01*
X161510066Y-48616026D01*
X161588650Y-49011094D01*
X161588650Y-49413906D01*
X161510066Y-49808974D01*
X161459201Y-49931772D01*
X161355917Y-50181123D01*
X161132127Y-50516048D01*
X160847298Y-50800877D01*
X160512373Y-51024667D01*
X160358224Y-51088517D01*
X160140224Y-51178816D01*
X159745156Y-51257400D01*
X159342344Y-51257400D01*
X158947276Y-51178816D01*
X158729276Y-51088517D01*
X158575127Y-51024667D01*
X158240202Y-50800877D01*
X157955373Y-50516048D01*
X157731583Y-50181123D01*
X157628299Y-49931772D01*
X157577434Y-49808974D01*
X157498850Y-49413906D01*
X157498850Y-49011094D01*
X157577434Y-48616026D01*
X157699188Y-48322086D01*
X157731583Y-48243877D01*
X157955373Y-47908952D01*
X158240202Y-47624123D01*
X158575127Y-47400333D01*
X158729276Y-47336483D01*
X158947276Y-47246184D01*
X159342344Y-47167600D01*
X159745156Y-47167600D01*
X160140224Y-47246184D01*
X160140224Y-47246184D01*
G37*
G36*
X126793854Y-48322085D02*
G01*
X126962376Y-48391889D01*
X127114041Y-48493228D01*
X127243022Y-48622209D01*
X127344361Y-48773874D01*
X127414165Y-48942396D01*
X127449750Y-49121297D01*
X127449750Y-49303703D01*
X127414165Y-49482604D01*
X127344361Y-49651126D01*
X127243022Y-49802791D01*
X127114041Y-49931772D01*
X126962376Y-50033111D01*
X126793854Y-50102915D01*
X126614953Y-50138500D01*
X126432547Y-50138500D01*
X126253646Y-50102915D01*
X126085124Y-50033111D01*
X125933459Y-49931772D01*
X125804478Y-49802791D01*
X125703139Y-49651126D01*
X125633335Y-49482604D01*
X125597750Y-49303703D01*
X125597750Y-49121297D01*
X125633335Y-48942396D01*
X125703139Y-48773874D01*
X125804478Y-48622209D01*
X125933459Y-48493228D01*
X126085124Y-48391889D01*
X126253646Y-48322085D01*
X126432547Y-48286500D01*
X126614953Y-48286500D01*
X126793854Y-48322085D01*
X126793854Y-48322085D01*
G37*
G36*
X135683854Y-48322085D02*
G01*
X135852376Y-48391889D01*
X136004041Y-48493228D01*
X136133022Y-48622209D01*
X136234361Y-48773874D01*
X136304165Y-48942396D01*
X136339750Y-49121297D01*
X136339750Y-49303703D01*
X136304165Y-49482604D01*
X136234361Y-49651126D01*
X136133022Y-49802791D01*
X136004041Y-49931772D01*
X135852376Y-50033111D01*
X135683854Y-50102915D01*
X135504953Y-50138500D01*
X135322547Y-50138500D01*
X135143646Y-50102915D01*
X134975124Y-50033111D01*
X134823459Y-49931772D01*
X134694478Y-49802791D01*
X134593139Y-49651126D01*
X134523335Y-49482604D01*
X134487750Y-49303703D01*
X134487750Y-49121297D01*
X134523335Y-48942396D01*
X134593139Y-48773874D01*
X134694478Y-48622209D01*
X134823459Y-48493228D01*
X134975124Y-48391889D01*
X135143646Y-48322085D01*
X135322547Y-48286500D01*
X135504953Y-48286500D01*
X135683854Y-48322085D01*
X135683854Y-48322085D01*
G37*
G36*
X173783854Y-48322085D02*
G01*
X173952376Y-48391889D01*
X174104041Y-48493228D01*
X174233022Y-48622209D01*
X174334361Y-48773874D01*
X174404165Y-48942396D01*
X174439750Y-49121297D01*
X174439750Y-49303703D01*
X174404165Y-49482604D01*
X174334361Y-49651126D01*
X174233022Y-49802791D01*
X174104041Y-49931772D01*
X173952376Y-50033111D01*
X173783854Y-50102915D01*
X173604953Y-50138500D01*
X173422547Y-50138500D01*
X173243646Y-50102915D01*
X173075124Y-50033111D01*
X172923459Y-49931772D01*
X172794478Y-49802791D01*
X172693139Y-49651126D01*
X172623335Y-49482604D01*
X172587750Y-49303703D01*
X172587750Y-49121297D01*
X172623335Y-48942396D01*
X172693139Y-48773874D01*
X172794478Y-48622209D01*
X172923459Y-48493228D01*
X173075124Y-48391889D01*
X173243646Y-48322085D01*
X173422547Y-48286500D01*
X173604953Y-48286500D01*
X173783854Y-48322085D01*
X173783854Y-48322085D01*
G37*
G36*
X145843854Y-48322085D02*
G01*
X146012376Y-48391889D01*
X146164041Y-48493228D01*
X146293022Y-48622209D01*
X146394361Y-48773874D01*
X146464165Y-48942396D01*
X146499750Y-49121297D01*
X146499750Y-49303703D01*
X146464165Y-49482604D01*
X146394361Y-49651126D01*
X146293022Y-49802791D01*
X146164041Y-49931772D01*
X146012376Y-50033111D01*
X145843854Y-50102915D01*
X145664953Y-50138500D01*
X145482547Y-50138500D01*
X145303646Y-50102915D01*
X145135124Y-50033111D01*
X144983459Y-49931772D01*
X144854478Y-49802791D01*
X144753139Y-49651126D01*
X144683335Y-49482604D01*
X144647750Y-49303703D01*
X144647750Y-49121297D01*
X144683335Y-48942396D01*
X144753139Y-48773874D01*
X144854478Y-48622209D01*
X144983459Y-48493228D01*
X145135124Y-48391889D01*
X145303646Y-48322085D01*
X145482547Y-48286500D01*
X145664953Y-48286500D01*
X145843854Y-48322085D01*
X145843854Y-48322085D01*
G37*
G36*
X154733854Y-48322085D02*
G01*
X154902376Y-48391889D01*
X155054041Y-48493228D01*
X155183022Y-48622209D01*
X155284361Y-48773874D01*
X155354165Y-48942396D01*
X155389750Y-49121297D01*
X155389750Y-49303703D01*
X155354165Y-49482604D01*
X155284361Y-49651126D01*
X155183022Y-49802791D01*
X155054041Y-49931772D01*
X154902376Y-50033111D01*
X154733854Y-50102915D01*
X154554953Y-50138500D01*
X154372547Y-50138500D01*
X154193646Y-50102915D01*
X154025124Y-50033111D01*
X153873459Y-49931772D01*
X153744478Y-49802791D01*
X153643139Y-49651126D01*
X153573335Y-49482604D01*
X153537750Y-49303703D01*
X153537750Y-49121297D01*
X153573335Y-48942396D01*
X153643139Y-48773874D01*
X153744478Y-48622209D01*
X153873459Y-48493228D01*
X154025124Y-48391889D01*
X154193646Y-48322085D01*
X154372547Y-48286500D01*
X154554953Y-48286500D01*
X154733854Y-48322085D01*
X154733854Y-48322085D01*
G37*
G36*
X107743854Y-48322085D02*
G01*
X107912376Y-48391889D01*
X108064041Y-48493228D01*
X108193022Y-48622209D01*
X108294361Y-48773874D01*
X108364165Y-48942396D01*
X108399750Y-49121297D01*
X108399750Y-49303703D01*
X108364165Y-49482604D01*
X108294361Y-49651126D01*
X108193022Y-49802791D01*
X108064041Y-49931772D01*
X107912376Y-50033111D01*
X107743854Y-50102915D01*
X107564953Y-50138500D01*
X107382547Y-50138500D01*
X107203646Y-50102915D01*
X107035124Y-50033111D01*
X106883459Y-49931772D01*
X106754478Y-49802791D01*
X106653139Y-49651126D01*
X106583335Y-49482604D01*
X106547750Y-49303703D01*
X106547750Y-49121297D01*
X106583335Y-48942396D01*
X106653139Y-48773874D01*
X106754478Y-48622209D01*
X106883459Y-48493228D01*
X107035124Y-48391889D01*
X107203646Y-48322085D01*
X107382547Y-48286500D01*
X107564953Y-48286500D01*
X107743854Y-48322085D01*
X107743854Y-48322085D01*
G37*
G36*
X164893854Y-48322085D02*
G01*
X165062376Y-48391889D01*
X165214041Y-48493228D01*
X165343022Y-48622209D01*
X165444361Y-48773874D01*
X165514165Y-48942396D01*
X165549750Y-49121297D01*
X165549750Y-49303703D01*
X165514165Y-49482604D01*
X165444361Y-49651126D01*
X165343022Y-49802791D01*
X165214041Y-49931772D01*
X165062376Y-50033111D01*
X164893854Y-50102915D01*
X164714953Y-50138500D01*
X164532547Y-50138500D01*
X164353646Y-50102915D01*
X164185124Y-50033111D01*
X164033459Y-49931772D01*
X163904478Y-49802791D01*
X163803139Y-49651126D01*
X163733335Y-49482604D01*
X163697750Y-49303703D01*
X163697750Y-49121297D01*
X163733335Y-48942396D01*
X163803139Y-48773874D01*
X163904478Y-48622209D01*
X164033459Y-48493228D01*
X164185124Y-48391889D01*
X164353646Y-48322085D01*
X164532547Y-48286500D01*
X164714953Y-48286500D01*
X164893854Y-48322085D01*
X164893854Y-48322085D01*
G37*
G36*
X116633854Y-48322085D02*
G01*
X116802376Y-48391889D01*
X116954041Y-48493228D01*
X117083022Y-48622209D01*
X117184361Y-48773874D01*
X117254165Y-48942396D01*
X117289750Y-49121297D01*
X117289750Y-49303703D01*
X117254165Y-49482604D01*
X117184361Y-49651126D01*
X117083022Y-49802791D01*
X116954041Y-49931772D01*
X116802376Y-50033111D01*
X116633854Y-50102915D01*
X116454953Y-50138500D01*
X116272547Y-50138500D01*
X116093646Y-50102915D01*
X115925124Y-50033111D01*
X115773459Y-49931772D01*
X115644478Y-49802791D01*
X115543139Y-49651126D01*
X115473335Y-49482604D01*
X115437750Y-49303703D01*
X115437750Y-49121297D01*
X115473335Y-48942396D01*
X115543139Y-48773874D01*
X115644478Y-48622209D01*
X115773459Y-48493228D01*
X115925124Y-48391889D01*
X116093646Y-48322085D01*
X116272547Y-48286500D01*
X116454953Y-48286500D01*
X116633854Y-48322085D01*
X116633854Y-48322085D01*
G37*
G36*
X97583854Y-48322085D02*
G01*
X97752376Y-48391889D01*
X97904041Y-48493228D01*
X98033022Y-48622209D01*
X98134361Y-48773874D01*
X98204165Y-48942396D01*
X98239750Y-49121297D01*
X98239750Y-49303703D01*
X98204165Y-49482604D01*
X98134361Y-49651126D01*
X98033022Y-49802791D01*
X97904041Y-49931772D01*
X97752376Y-50033111D01*
X97583854Y-50102915D01*
X97404953Y-50138500D01*
X97222547Y-50138500D01*
X97043646Y-50102915D01*
X96875124Y-50033111D01*
X96723459Y-49931772D01*
X96594478Y-49802791D01*
X96493139Y-49651126D01*
X96423335Y-49482604D01*
X96387750Y-49303703D01*
X96387750Y-49121297D01*
X96423335Y-48942396D01*
X96493139Y-48773874D01*
X96594478Y-48622209D01*
X96723459Y-48493228D01*
X96875124Y-48391889D01*
X97043646Y-48322085D01*
X97222547Y-48286500D01*
X97404953Y-48286500D01*
X97583854Y-48322085D01*
X97583854Y-48322085D01*
G37*
G36*
X88693854Y-48322085D02*
G01*
X88862376Y-48391889D01*
X89014041Y-48493228D01*
X89143022Y-48622209D01*
X89244361Y-48773874D01*
X89314165Y-48942396D01*
X89349750Y-49121297D01*
X89349750Y-49303703D01*
X89314165Y-49482604D01*
X89244361Y-49651126D01*
X89143022Y-49802791D01*
X89014041Y-49931772D01*
X88862376Y-50033111D01*
X88693854Y-50102915D01*
X88514953Y-50138500D01*
X88332547Y-50138500D01*
X88153646Y-50102915D01*
X87985124Y-50033111D01*
X87833459Y-49931772D01*
X87704478Y-49802791D01*
X87603139Y-49651126D01*
X87533335Y-49482604D01*
X87497750Y-49303703D01*
X87497750Y-49121297D01*
X87533335Y-48942396D01*
X87603139Y-48773874D01*
X87704478Y-48622209D01*
X87833459Y-48493228D01*
X87985124Y-48391889D01*
X88153646Y-48322085D01*
X88332547Y-48286500D01*
X88514953Y-48286500D01*
X88693854Y-48322085D01*
X88693854Y-48322085D01*
G37*
G36*
X78533854Y-48322085D02*
G01*
X78702376Y-48391889D01*
X78854041Y-48493228D01*
X78983022Y-48622209D01*
X79084361Y-48773874D01*
X79154165Y-48942396D01*
X79189750Y-49121297D01*
X79189750Y-49303703D01*
X79154165Y-49482604D01*
X79084361Y-49651126D01*
X78983022Y-49802791D01*
X78854041Y-49931772D01*
X78702376Y-50033111D01*
X78533854Y-50102915D01*
X78354953Y-50138500D01*
X78172547Y-50138500D01*
X77993646Y-50102915D01*
X77825124Y-50033111D01*
X77673459Y-49931772D01*
X77544478Y-49802791D01*
X77443139Y-49651126D01*
X77373335Y-49482604D01*
X77337750Y-49303703D01*
X77337750Y-49121297D01*
X77373335Y-48942396D01*
X77443139Y-48773874D01*
X77544478Y-48622209D01*
X77673459Y-48493228D01*
X77825124Y-48391889D01*
X77993646Y-48322085D01*
X78172547Y-48286500D01*
X78354953Y-48286500D01*
X78533854Y-48322085D01*
X78533854Y-48322085D01*
G37*
G36*
X202993854Y-48322085D02*
G01*
X203162376Y-48391889D01*
X203314041Y-48493228D01*
X203443022Y-48622209D01*
X203544361Y-48773874D01*
X203614165Y-48942396D01*
X203649750Y-49121297D01*
X203649750Y-49303703D01*
X203614165Y-49482604D01*
X203544361Y-49651126D01*
X203443022Y-49802791D01*
X203314041Y-49931772D01*
X203162376Y-50033111D01*
X202993854Y-50102915D01*
X202814953Y-50138500D01*
X202632547Y-50138500D01*
X202453646Y-50102915D01*
X202285124Y-50033111D01*
X202133459Y-49931772D01*
X202004478Y-49802791D01*
X201903139Y-49651126D01*
X201833335Y-49482604D01*
X201797750Y-49303703D01*
X201797750Y-49121297D01*
X201833335Y-48942396D01*
X201903139Y-48773874D01*
X202004478Y-48622209D01*
X202133459Y-48493228D01*
X202285124Y-48391889D01*
X202453646Y-48322085D01*
X202632547Y-48286500D01*
X202814953Y-48286500D01*
X202993854Y-48322085D01*
X202993854Y-48322085D01*
G37*
G36*
X183943854Y-48322085D02*
G01*
X184112376Y-48391889D01*
X184264041Y-48493228D01*
X184393022Y-48622209D01*
X184494361Y-48773874D01*
X184564165Y-48942396D01*
X184599750Y-49121297D01*
X184599750Y-49303703D01*
X184564165Y-49482604D01*
X184494361Y-49651126D01*
X184393022Y-49802791D01*
X184264041Y-49931772D01*
X184112376Y-50033111D01*
X183943854Y-50102915D01*
X183764953Y-50138500D01*
X183582547Y-50138500D01*
X183403646Y-50102915D01*
X183235124Y-50033111D01*
X183083459Y-49931772D01*
X182954478Y-49802791D01*
X182853139Y-49651126D01*
X182783335Y-49482604D01*
X182747750Y-49303703D01*
X182747750Y-49121297D01*
X182783335Y-48942396D01*
X182853139Y-48773874D01*
X182954478Y-48622209D01*
X183083459Y-48493228D01*
X183235124Y-48391889D01*
X183403646Y-48322085D01*
X183582547Y-48286500D01*
X183764953Y-48286500D01*
X183943854Y-48322085D01*
X183943854Y-48322085D01*
G37*
G36*
X192833854Y-48322085D02*
G01*
X193002376Y-48391889D01*
X193154041Y-48493228D01*
X193283022Y-48622209D01*
X193384361Y-48773874D01*
X193454165Y-48942396D01*
X193489750Y-49121297D01*
X193489750Y-49303703D01*
X193454165Y-49482604D01*
X193384361Y-49651126D01*
X193283022Y-49802791D01*
X193154041Y-49931772D01*
X193002376Y-50033111D01*
X192833854Y-50102915D01*
X192654953Y-50138500D01*
X192472547Y-50138500D01*
X192293646Y-50102915D01*
X192125124Y-50033111D01*
X191973459Y-49931772D01*
X191844478Y-49802791D01*
X191743139Y-49651126D01*
X191673335Y-49482604D01*
X191637750Y-49303703D01*
X191637750Y-49121297D01*
X191673335Y-48942396D01*
X191743139Y-48773874D01*
X191844478Y-48622209D01*
X191973459Y-48493228D01*
X192125124Y-48391889D01*
X192293646Y-48322085D01*
X192472547Y-48286500D01*
X192654953Y-48286500D01*
X192833854Y-48322085D01*
X192833854Y-48322085D01*
G37*
M02*
