G04 #@! TF.GenerationSoftware,KiCad,Pcbnew,(5.1.4)-1*
G04 #@! TF.CreationDate,2022-03-17T16:03:27-07:00*
G04 #@! TF.ProjectId,Dweebs-Macro-Mini,44776565-6273-42d4-9d61-63726f2d4d69,rev?*
G04 #@! TF.SameCoordinates,Original*
G04 #@! TF.FileFunction,Copper,L2,Bot*
G04 #@! TF.FilePolarity,Positive*
%FSLAX46Y46*%
G04 Gerber Fmt 4.6, Leading zero omitted, Abs format (unit mm)*
G04 Created by KiCad (PCBNEW (5.1.4)-1) date 2022-03-17 16:03:27*
%MOMM*%
%LPD*%
G04 APERTURE LIST*
%ADD10C,0.050000*%
%ADD11C,5.000000*%
%ADD12C,2.250000*%
%ADD13C,2.250000*%
%ADD14C,1.600000*%
%ADD15R,1.600000X1.600000*%
%ADD16R,1.200000X0.900000*%
%ADD17C,0.250000*%
G04 APERTURE END LIST*
D10*
X73772884Y-150018562D02*
X73818750Y-39687500D01*
X173037500Y-150018750D02*
X188118750Y-115887500D01*
X169068750Y-150018750D02*
X173037500Y-150018750D01*
X169068750Y-150018750D02*
X73772884Y-150018562D01*
X188118750Y-58737500D02*
X188118750Y-115887500D01*
X207168750Y-58737500D02*
X188118750Y-58737500D01*
X207168750Y-39687500D02*
X207168750Y-58737500D01*
X73818750Y-39687500D02*
X207168750Y-39687500D01*
D11*
X134143750Y-143668750D03*
X111918750Y-96837500D03*
X169068750Y-96837500D03*
X169068750Y-58737500D03*
X111918750Y-58737500D03*
D12*
X80843750Y-102362500D03*
X80188751Y-103092500D03*
D13*
X79533750Y-103822500D02*
X80843752Y-102362500D01*
D12*
X85883750Y-101282500D03*
X85863750Y-101572500D03*
D13*
X85843750Y-101862500D02*
X85883750Y-101282500D01*
D12*
X164355462Y-133919249D03*
X163533843Y-134454849D03*
D13*
X162712223Y-134990448D02*
X164355463Y-133919250D01*
D12*
X169503252Y-134180497D03*
X169408876Y-134455439D03*
D13*
X169314500Y-134730381D02*
X169503252Y-134180497D01*
D12*
X145940462Y-128966249D03*
X145118843Y-129501849D03*
D13*
X144297223Y-130037448D02*
X145940463Y-128966250D01*
D12*
X151088252Y-129227497D03*
X150993876Y-129502439D03*
D13*
X150899500Y-129777381D02*
X151088252Y-129227497D01*
D12*
X127510462Y-123959249D03*
X126688843Y-124494849D03*
D13*
X125867223Y-125030448D02*
X127510463Y-123959250D01*
D12*
X132658252Y-124220497D03*
X132563876Y-124495439D03*
D13*
X132469500Y-124770381D02*
X132658252Y-124220497D01*
D12*
X176093750Y-102362500D03*
X175438751Y-103092500D03*
D13*
X174783750Y-103822500D02*
X176093752Y-102362500D01*
D12*
X181133750Y-101282500D03*
X181113750Y-101572500D03*
D13*
X181093750Y-101862500D02*
X181133750Y-101282500D01*
D12*
X157043750Y-102362500D03*
X156388751Y-103092500D03*
D13*
X155733750Y-103822500D02*
X157043752Y-102362500D01*
D12*
X162083750Y-101282500D03*
X162063750Y-101572500D03*
D13*
X162043750Y-101862500D02*
X162083750Y-101282500D01*
D12*
X137993750Y-102362500D03*
X137338751Y-103092500D03*
D13*
X136683750Y-103822500D02*
X137993752Y-102362500D01*
D12*
X143033750Y-101282500D03*
X143013750Y-101572500D03*
D13*
X142993750Y-101862500D02*
X143033750Y-101282500D01*
D12*
X118943750Y-102362500D03*
X118288751Y-103092500D03*
D13*
X117633750Y-103822500D02*
X118943752Y-102362500D01*
D12*
X123983750Y-101282500D03*
X123963750Y-101572500D03*
D13*
X123943750Y-101862500D02*
X123983750Y-101282500D01*
D12*
X99893750Y-102362500D03*
X99238751Y-103092500D03*
D13*
X98583750Y-103822500D02*
X99893752Y-102362500D01*
D12*
X104933750Y-101282500D03*
X104913750Y-101572500D03*
D13*
X104893750Y-101862500D02*
X104933750Y-101282500D01*
D12*
X176093750Y-83312500D03*
X175438751Y-84042500D03*
D13*
X174783750Y-84772500D02*
X176093752Y-83312500D01*
D12*
X181133750Y-82232500D03*
X181113750Y-82522500D03*
D13*
X181093750Y-82812500D02*
X181133750Y-82232500D01*
D12*
X157043750Y-83312500D03*
X156388751Y-84042500D03*
D13*
X155733750Y-84772500D02*
X157043752Y-83312500D01*
D12*
X162083750Y-82232500D03*
X162063750Y-82522500D03*
D13*
X162043750Y-82812500D02*
X162083750Y-82232500D01*
D12*
X137993750Y-83312500D03*
X137338751Y-84042500D03*
D13*
X136683750Y-84772500D02*
X137993752Y-83312500D01*
D12*
X143033750Y-82232500D03*
X143013750Y-82522500D03*
D13*
X142993750Y-82812500D02*
X143033750Y-82232500D01*
D12*
X118943750Y-83312500D03*
X118288751Y-84042500D03*
D13*
X117633750Y-84772500D02*
X118943752Y-83312500D01*
D12*
X123983750Y-82232500D03*
X123963750Y-82522500D03*
D13*
X123943750Y-82812500D02*
X123983750Y-82232500D01*
D12*
X99893750Y-83312500D03*
X99238751Y-84042500D03*
D13*
X98583750Y-84772500D02*
X99893752Y-83312500D01*
D12*
X104933750Y-82232500D03*
X104913750Y-82522500D03*
D13*
X104893750Y-82812500D02*
X104933750Y-82232500D01*
D12*
X80843750Y-83312500D03*
X80188751Y-84042500D03*
D13*
X79533750Y-84772500D02*
X80843752Y-83312500D01*
D12*
X85883750Y-82232500D03*
X85863750Y-82522500D03*
D13*
X85843750Y-82812500D02*
X85883750Y-82232500D01*
D12*
X176093750Y-64262500D03*
X175438751Y-64992500D03*
D13*
X174783750Y-65722500D02*
X176093752Y-64262500D01*
D12*
X181133750Y-63182500D03*
X181113750Y-63472500D03*
D13*
X181093750Y-63762500D02*
X181133750Y-63182500D01*
D12*
X157043750Y-64262500D03*
X156388751Y-64992500D03*
D13*
X155733750Y-65722500D02*
X157043752Y-64262500D01*
D12*
X162083750Y-63182500D03*
X162063750Y-63472500D03*
D13*
X162043750Y-63762500D02*
X162083750Y-63182500D01*
D12*
X137993750Y-64262500D03*
X137338751Y-64992500D03*
D13*
X136683750Y-65722500D02*
X137993752Y-64262500D01*
D12*
X143033750Y-63182500D03*
X143013750Y-63472500D03*
D13*
X142993750Y-63762500D02*
X143033750Y-63182500D01*
D12*
X118943750Y-64262500D03*
X118288751Y-64992500D03*
D13*
X117633750Y-65722500D02*
X118943752Y-64262500D01*
D12*
X123983750Y-63182500D03*
X123963750Y-63472500D03*
D13*
X123943750Y-63762500D02*
X123983750Y-63182500D01*
D12*
X99893750Y-64262500D03*
X99238751Y-64992500D03*
D13*
X98583750Y-65722500D02*
X99893752Y-64262500D01*
D12*
X104933750Y-63182500D03*
X104913750Y-63472500D03*
D13*
X104893750Y-63762500D02*
X104933750Y-63182500D01*
D12*
X80843750Y-64262500D03*
X80188751Y-64992500D03*
D13*
X79533750Y-65722500D02*
X80843752Y-64262500D01*
D12*
X85883750Y-63182500D03*
X85863750Y-63472500D03*
D13*
X85843750Y-63762500D02*
X85883750Y-63182500D01*
D12*
X195143750Y-45212500D03*
X194488751Y-45942500D03*
D13*
X193833750Y-46672500D02*
X195143752Y-45212500D01*
D12*
X200183750Y-44132500D03*
X200163750Y-44422500D03*
D13*
X200143750Y-44712500D02*
X200183750Y-44132500D01*
D12*
X176093750Y-45212500D03*
X175438751Y-45942500D03*
D13*
X174783750Y-46672500D02*
X176093752Y-45212500D01*
D12*
X181133750Y-44132500D03*
X181113750Y-44422500D03*
D13*
X181093750Y-44712500D02*
X181133750Y-44132500D01*
D12*
X157043750Y-45212500D03*
X156388751Y-45942500D03*
D13*
X155733750Y-46672500D02*
X157043752Y-45212500D01*
D12*
X162083750Y-44132500D03*
X162063750Y-44422500D03*
D13*
X162043750Y-44712500D02*
X162083750Y-44132500D01*
D12*
X137993750Y-45212500D03*
X137338751Y-45942500D03*
D13*
X136683750Y-46672500D02*
X137993752Y-45212500D01*
D12*
X143033750Y-44132500D03*
X143013750Y-44422500D03*
D13*
X142993750Y-44712500D02*
X143033750Y-44132500D01*
D12*
X118943750Y-45212500D03*
X118288751Y-45942500D03*
D13*
X117633750Y-46672500D02*
X118943752Y-45212500D01*
D12*
X123983750Y-44132500D03*
X123963750Y-44422500D03*
D13*
X123943750Y-44712500D02*
X123983750Y-44132500D01*
D12*
X99893750Y-45212500D03*
X99238751Y-45942500D03*
D13*
X98583750Y-46672500D02*
X99893752Y-45212500D01*
D12*
X104933750Y-44132500D03*
X104913750Y-44422500D03*
D13*
X104893750Y-44712500D02*
X104933750Y-44132500D01*
D12*
X80843750Y-45212500D03*
X80188751Y-45942500D03*
D13*
X79533750Y-46672500D02*
X80843752Y-45212500D01*
D12*
X85883750Y-44132500D03*
X85863750Y-44422500D03*
D13*
X85843750Y-44712500D02*
X85883750Y-44132500D01*
D14*
X77470000Y-122047000D03*
X80010000Y-122047000D03*
X82550000Y-122047000D03*
X85090000Y-122047000D03*
X87630000Y-122047000D03*
X90170000Y-122047000D03*
X92710000Y-122047000D03*
X95250000Y-122047000D03*
X97790000Y-122047000D03*
X100330000Y-122047000D03*
X102870000Y-122047000D03*
X105410000Y-122047000D03*
X105410000Y-137287000D03*
X102870000Y-137287000D03*
X100330000Y-137287000D03*
X97790000Y-137287000D03*
X95250000Y-137287000D03*
X92710000Y-137287000D03*
X90170000Y-137287000D03*
X87630000Y-137287000D03*
X85090000Y-137287000D03*
X82550000Y-137287000D03*
X80010000Y-137287000D03*
D15*
X77470000Y-137287000D03*
D16*
X170656250Y-143606250D03*
X170656250Y-146906250D03*
X155575000Y-137256250D03*
X155575000Y-140556250D03*
X137318750Y-132493750D03*
X137318750Y-135793750D03*
X186531250Y-107093750D03*
X186531250Y-110393750D03*
X167481250Y-107031250D03*
X167481250Y-110331250D03*
X148431250Y-107093750D03*
X148431250Y-110393750D03*
X129381250Y-107093750D03*
X129381250Y-110393750D03*
X110331250Y-107093750D03*
X110331250Y-110393750D03*
X91281250Y-107093750D03*
X91281250Y-110393750D03*
X186531250Y-88043750D03*
X186531250Y-91343750D03*
X167481250Y-88043750D03*
X167481250Y-91343750D03*
X148431250Y-88043750D03*
X148431250Y-91343750D03*
X129381250Y-88043750D03*
X129381250Y-91343750D03*
X110331250Y-88076250D03*
X110331250Y-91376250D03*
X91281250Y-88043750D03*
X91281250Y-91343750D03*
X186531250Y-68993750D03*
X186531250Y-72293750D03*
X167481250Y-68993750D03*
X167481250Y-72293750D03*
X148431250Y-68993750D03*
X148431250Y-72293750D03*
X130175000Y-68993750D03*
X130175000Y-72293750D03*
X110331250Y-68993750D03*
X110331250Y-72293750D03*
X91281250Y-68993750D03*
X91281250Y-72293750D03*
X205581250Y-49943750D03*
X205581250Y-53243750D03*
X186531250Y-49943750D03*
X186531250Y-53243750D03*
X167481250Y-49943750D03*
X167481250Y-53243750D03*
X148431250Y-49943750D03*
X148431250Y-53243750D03*
X129381250Y-49943750D03*
X129381250Y-53243750D03*
X110331250Y-49943750D03*
X110331250Y-53243750D03*
X91281250Y-49943750D03*
X91281250Y-53243750D03*
D17*
X85900000Y-44712500D02*
X85843750Y-44712500D01*
X91131250Y-49943750D02*
X85900000Y-44712500D01*
X91281250Y-49943750D02*
X91131250Y-49943750D01*
X91281250Y-53243750D02*
X110331250Y-53243750D01*
X110331250Y-53243750D02*
X129381250Y-53243750D01*
X129381250Y-53243750D02*
X148431250Y-53243750D01*
X148431250Y-53243750D02*
X167481250Y-53243750D01*
X167481250Y-53243750D02*
X186531250Y-53243750D01*
X186531250Y-53243750D02*
X205581250Y-53243750D01*
X74506231Y-109798229D02*
X82976752Y-118268750D01*
X74506231Y-87403771D02*
X74506231Y-109798229D01*
X92206251Y-69703751D02*
X74506231Y-87403771D01*
X92206251Y-54868751D02*
X92206251Y-69703751D01*
X91281250Y-53243750D02*
X91281250Y-53943750D01*
X91281250Y-53943750D02*
X92206251Y-54868751D01*
X94450001Y-122846999D02*
X95250000Y-122047000D01*
X94124999Y-123172001D02*
X94450001Y-122846999D01*
X92169999Y-123172001D02*
X94124999Y-123172001D01*
X91584999Y-122587001D02*
X92169999Y-123172001D01*
X91584999Y-121506999D02*
X91584999Y-122587001D01*
X88346750Y-118268750D02*
X91584999Y-121506999D01*
X82976752Y-118268750D02*
X88346750Y-118268750D01*
X110181250Y-49943750D02*
X110331250Y-49943750D01*
X104950000Y-44712500D02*
X110181250Y-49943750D01*
X104893750Y-44712500D02*
X104950000Y-44712500D01*
X129231250Y-49943750D02*
X129381250Y-49943750D01*
X124000000Y-44712500D02*
X129231250Y-49943750D01*
X123943750Y-44712500D02*
X124000000Y-44712500D01*
X148281250Y-49943750D02*
X148431250Y-49943750D01*
X143050000Y-44712500D02*
X148281250Y-49943750D01*
X142993750Y-44712500D02*
X143050000Y-44712500D01*
X167331250Y-49943750D02*
X167481250Y-49943750D01*
X162100000Y-44712500D02*
X167331250Y-49943750D01*
X162043750Y-44712500D02*
X162100000Y-44712500D01*
X186381250Y-49943750D02*
X186531250Y-49943750D01*
X181150000Y-44712500D02*
X186381250Y-49943750D01*
X181093750Y-44712500D02*
X181150000Y-44712500D01*
X205431250Y-49943750D02*
X205581250Y-49943750D01*
X200200000Y-44712500D02*
X205431250Y-49943750D01*
X200143750Y-44712500D02*
X200200000Y-44712500D01*
X91131250Y-68993750D02*
X91281250Y-68993750D01*
X85900000Y-63762500D02*
X91131250Y-68993750D01*
X85843750Y-63762500D02*
X85900000Y-63762500D01*
X91281250Y-72293750D02*
X110331250Y-72293750D01*
X129318750Y-72293750D02*
X148431250Y-72293750D01*
X129318750Y-72293750D02*
X130175000Y-72293750D01*
X110331250Y-72293750D02*
X129318750Y-72293750D01*
X148431250Y-72293750D02*
X167481250Y-72293750D01*
X167481250Y-72293750D02*
X186531250Y-72293750D01*
X187456251Y-111103751D02*
X183466252Y-115093750D01*
X187456251Y-73918751D02*
X187456251Y-111103751D01*
X186531250Y-72293750D02*
X186531250Y-72993750D01*
X186531250Y-72993750D02*
X187456251Y-73918751D01*
X183466252Y-115093750D02*
X151606250Y-115093750D01*
X151606250Y-115093750D02*
X165893750Y-129381250D01*
X165893750Y-129381250D02*
X169068750Y-129381250D01*
X169068750Y-129381250D02*
X173831250Y-134143750D01*
X171516251Y-147681251D02*
X162762501Y-147681251D01*
X173831250Y-134143750D02*
X173831250Y-145366252D01*
X173831250Y-145366252D02*
X171516251Y-147681251D01*
X162762501Y-147681251D02*
X157162500Y-142081250D01*
X157162500Y-142081250D02*
X140493750Y-142081250D01*
X140493750Y-142081250D02*
X136525000Y-138112500D01*
X136525000Y-138112500D02*
X127000000Y-138112500D01*
X127000000Y-138112500D02*
X120650000Y-131762500D01*
X107505500Y-131762500D02*
X97790000Y-122047000D01*
X120650000Y-131762500D02*
X107505500Y-131762500D01*
X110181250Y-68993750D02*
X110331250Y-68993750D01*
X104950000Y-63762500D02*
X110181250Y-68993750D01*
X104893750Y-63762500D02*
X104950000Y-63762500D01*
X125108749Y-64307499D02*
X123983750Y-63182500D01*
X129795000Y-68993750D02*
X125108749Y-64307499D01*
X130175000Y-68993750D02*
X129795000Y-68993750D01*
X143050000Y-63762500D02*
X142993750Y-63762500D01*
X148281250Y-68993750D02*
X143050000Y-63762500D01*
X148431250Y-68993750D02*
X148281250Y-68993750D01*
X162100000Y-63762500D02*
X162043750Y-63762500D01*
X167331250Y-68993750D02*
X162100000Y-63762500D01*
X167481250Y-68993750D02*
X167331250Y-68993750D01*
X182000000Y-63762500D02*
X181093750Y-63762500D01*
X186531250Y-68293750D02*
X182000000Y-63762500D01*
X186531250Y-68993750D02*
X186531250Y-68293750D01*
X85900000Y-82812500D02*
X85843750Y-82812500D01*
X91131250Y-88043750D02*
X85900000Y-82812500D01*
X91281250Y-88043750D02*
X91131250Y-88043750D01*
X110298750Y-91343750D02*
X110331250Y-91376250D01*
X91281250Y-91343750D02*
X110298750Y-91343750D01*
X129348750Y-91376250D02*
X129381250Y-91343750D01*
X110331250Y-91376250D02*
X129348750Y-91376250D01*
X129381250Y-91343750D02*
X148431250Y-91343750D01*
X148431250Y-91343750D02*
X167481250Y-91343750D01*
X167481250Y-91343750D02*
X186531250Y-91343750D01*
X99204999Y-120921999D02*
X93140749Y-120921999D01*
X100330000Y-122047000D02*
X99204999Y-120921999D01*
X93140749Y-120921999D02*
X82550000Y-110331250D01*
X90431250Y-91343750D02*
X91281250Y-91343750D01*
X88201090Y-91343750D02*
X90431250Y-91343750D01*
X74956241Y-104588599D02*
X88201090Y-91343750D01*
X74956241Y-108930151D02*
X74956241Y-104588599D01*
X76357340Y-110331250D02*
X74956241Y-108930151D01*
X82550000Y-110331250D02*
X76357340Y-110331250D01*
X104933750Y-82828750D02*
X104933750Y-82232500D01*
X110181250Y-88076250D02*
X104933750Y-82828750D01*
X110331250Y-88076250D02*
X110181250Y-88076250D01*
X124000000Y-82812500D02*
X123943750Y-82812500D01*
X129231250Y-88043750D02*
X124000000Y-82812500D01*
X129381250Y-88043750D02*
X129231250Y-88043750D01*
X143050000Y-82812500D02*
X142993750Y-82812500D01*
X148281250Y-88043750D02*
X143050000Y-82812500D01*
X148431250Y-88043750D02*
X148281250Y-88043750D01*
X162100000Y-82812500D02*
X162043750Y-82812500D01*
X167331250Y-88043750D02*
X162100000Y-82812500D01*
X167481250Y-88043750D02*
X167331250Y-88043750D01*
X181133750Y-82796250D02*
X181133750Y-82232500D01*
X186381250Y-88043750D02*
X181133750Y-82796250D01*
X186531250Y-88043750D02*
X186381250Y-88043750D01*
X91131250Y-107093750D02*
X91281250Y-107093750D01*
X85900000Y-101862500D02*
X91131250Y-107093750D01*
X85843750Y-101862500D02*
X85900000Y-101862500D01*
X91281250Y-110393750D02*
X110331250Y-110393750D01*
X110331250Y-110393750D02*
X129381250Y-110393750D01*
X129381250Y-110393750D02*
X148431250Y-110393750D01*
X167418750Y-110393750D02*
X167481250Y-110331250D01*
X166625000Y-110393750D02*
X186531250Y-110393750D01*
X166625000Y-110393750D02*
X167418750Y-110393750D01*
X148431250Y-110393750D02*
X166625000Y-110393750D01*
X99885500Y-119062500D02*
X102870000Y-122047000D01*
X92868750Y-119062500D02*
X99885500Y-119062500D01*
X83343750Y-109537500D02*
X92868750Y-119062500D01*
X76200000Y-109537500D02*
X83343750Y-109537500D01*
X76200000Y-106074752D02*
X76200000Y-109537500D01*
X75406250Y-105281002D02*
X76200000Y-106074752D01*
X80962500Y-99218750D02*
X75406250Y-104775000D01*
X88106250Y-99218750D02*
X80962500Y-99218750D01*
X148581250Y-110393750D02*
X149356251Y-109618749D01*
X148431250Y-110393750D02*
X148581250Y-110393750D01*
X149356251Y-109618749D02*
X149356251Y-102525001D01*
X149356251Y-102525001D02*
X146663749Y-99832499D01*
X146663749Y-99832499D02*
X88719999Y-99832499D01*
X75406250Y-104775000D02*
X75406250Y-105281002D01*
X88719999Y-99832499D02*
X88106250Y-99218750D01*
X110181250Y-107093750D02*
X110331250Y-107093750D01*
X104950000Y-101862500D02*
X110181250Y-107093750D01*
X104893750Y-101862500D02*
X104950000Y-101862500D01*
X129231250Y-107093750D02*
X129381250Y-107093750D01*
X124000000Y-101862500D02*
X129231250Y-107093750D01*
X123943750Y-101862500D02*
X124000000Y-101862500D01*
X148281250Y-107093750D02*
X148431250Y-107093750D01*
X143050000Y-101862500D02*
X148281250Y-107093750D01*
X142993750Y-101862500D02*
X143050000Y-101862500D01*
X167331250Y-107031250D02*
X167481250Y-107031250D01*
X162162500Y-101862500D02*
X167331250Y-107031250D01*
X162043750Y-101862500D02*
X162162500Y-101862500D01*
X186381250Y-107093750D02*
X186531250Y-107093750D01*
X181150000Y-101862500D02*
X186381250Y-107093750D01*
X181093750Y-101862500D02*
X181150000Y-101862500D01*
X132469500Y-124770381D02*
X134295381Y-124770381D01*
X137318750Y-127793750D02*
X137318750Y-132493750D01*
X134295381Y-124770381D02*
X137318750Y-127793750D01*
X154725000Y-140556250D02*
X155575000Y-140556250D01*
X142931250Y-140556250D02*
X154725000Y-140556250D01*
X138168750Y-135793750D02*
X142931250Y-140556250D01*
X137318750Y-135793750D02*
X138168750Y-135793750D01*
X155575000Y-140556250D02*
X157225000Y-140556250D01*
X163575000Y-146906250D02*
X170656250Y-146906250D01*
X157225000Y-140556250D02*
X163575000Y-146906250D01*
X137318750Y-135793750D02*
X128650000Y-135793750D01*
X128650000Y-135793750D02*
X122237500Y-129381250D01*
X112744250Y-129381250D02*
X105410000Y-122047000D01*
X122237500Y-129381250D02*
X112744250Y-129381250D01*
X150899500Y-129777381D02*
X154383631Y-129777381D01*
X155575000Y-130968750D02*
X155575000Y-137256250D01*
X154383631Y-129777381D02*
X155575000Y-130968750D01*
X169314500Y-134730381D02*
X170449131Y-134730381D01*
X170449131Y-134730381D02*
X173037500Y-137318750D01*
X170656250Y-142906250D02*
X170656250Y-143606250D01*
X173037500Y-140525000D02*
X170656250Y-142906250D01*
X173037500Y-137318750D02*
X173037500Y-140525000D01*
X87223749Y-109244071D02*
X91485928Y-113506250D01*
X87223749Y-106810525D02*
X87223749Y-109244071D01*
X79533750Y-103822500D02*
X84235724Y-103822500D01*
X84235724Y-103822500D02*
X87223749Y-106810525D01*
X114343025Y-113506250D02*
X125867223Y-125030448D01*
X91485928Y-113506250D02*
X114343025Y-113506250D01*
X89906239Y-109497349D02*
X89906240Y-111290152D01*
X90234849Y-111618761D02*
X128592974Y-111618761D01*
X89906240Y-111290152D02*
X90234849Y-111618761D01*
X90234848Y-109168740D02*
X89906239Y-109497349D01*
X101768015Y-109168739D02*
X90234848Y-109168740D01*
X128592974Y-111618761D02*
X145940462Y-128966249D01*
X98583750Y-105984474D02*
X101768015Y-109168739D01*
X98583750Y-103822500D02*
X98583750Y-105984474D01*
X138890526Y-111168751D02*
X162712223Y-134990448D01*
X90421249Y-111168751D02*
X138890526Y-111168751D01*
X90356249Y-109683749D02*
X90356249Y-111103751D01*
X90421249Y-109618749D02*
X90356249Y-109683749D01*
X121268025Y-109618749D02*
X90421249Y-109618749D01*
X117633750Y-105984474D02*
X121268025Y-109618749D01*
X90356249Y-111103751D02*
X90421249Y-111168751D01*
X117633750Y-103822500D02*
X117633750Y-105984474D01*
M02*
