G04 #@! TF.GenerationSoftware,KiCad,Pcbnew,(5.1.4)-1*
G04 #@! TF.CreationDate,2022-03-17T16:03:27-07:00*
G04 #@! TF.ProjectId,Dweebs-Macro-Mini,44776565-6273-42d4-9d61-63726f2d4d69,rev?*
G04 #@! TF.SameCoordinates,Original*
G04 #@! TF.FileFunction,Copper,L1,Top*
G04 #@! TF.FilePolarity,Positive*
%FSLAX46Y46*%
G04 Gerber Fmt 4.6, Leading zero omitted, Abs format (unit mm)*
G04 Created by KiCad (PCBNEW (5.1.4)-1) date 2022-03-17 16:03:27*
%MOMM*%
%LPD*%
G04 APERTURE LIST*
%ADD10C,0.050000*%
%ADD11C,5.000000*%
%ADD12C,2.250000*%
%ADD13C,2.250000*%
%ADD14C,1.600000*%
%ADD15R,1.600000X1.600000*%
%ADD16C,0.250000*%
G04 APERTURE END LIST*
D10*
X73772884Y-150018562D02*
X73818750Y-39687500D01*
X173037500Y-150018750D02*
X188118750Y-115887500D01*
X169068750Y-150018750D02*
X173037500Y-150018750D01*
X169068750Y-150018750D02*
X73772884Y-150018562D01*
X188118750Y-58737500D02*
X188118750Y-115887500D01*
X207168750Y-58737500D02*
X188118750Y-58737500D01*
X207168750Y-39687500D02*
X207168750Y-58737500D01*
X73818750Y-39687500D02*
X207168750Y-39687500D01*
D11*
X134143750Y-143668750D03*
X111918750Y-96837500D03*
X169068750Y-96837500D03*
X169068750Y-58737500D03*
X111918750Y-58737500D03*
D12*
X80843750Y-102362500D03*
X80188751Y-103092500D03*
D13*
X79533750Y-103822500D02*
X80843752Y-102362500D01*
D12*
X85883750Y-101282500D03*
X85863750Y-101572500D03*
D13*
X85843750Y-101862500D02*
X85883750Y-101282500D01*
D12*
X164355462Y-133919249D03*
X163533843Y-134454849D03*
D13*
X162712223Y-134990448D02*
X164355463Y-133919250D01*
D12*
X169503252Y-134180497D03*
X169408876Y-134455439D03*
D13*
X169314500Y-134730381D02*
X169503252Y-134180497D01*
D12*
X145940462Y-128966249D03*
X145118843Y-129501849D03*
D13*
X144297223Y-130037448D02*
X145940463Y-128966250D01*
D12*
X151088252Y-129227497D03*
X150993876Y-129502439D03*
D13*
X150899500Y-129777381D02*
X151088252Y-129227497D01*
D12*
X127510462Y-123959249D03*
X126688843Y-124494849D03*
D13*
X125867223Y-125030448D02*
X127510463Y-123959250D01*
D12*
X132658252Y-124220497D03*
X132563876Y-124495439D03*
D13*
X132469500Y-124770381D02*
X132658252Y-124220497D01*
D12*
X176093750Y-102362500D03*
X175438751Y-103092500D03*
D13*
X174783750Y-103822500D02*
X176093752Y-102362500D01*
D12*
X181133750Y-101282500D03*
X181113750Y-101572500D03*
D13*
X181093750Y-101862500D02*
X181133750Y-101282500D01*
D12*
X157043750Y-102362500D03*
X156388751Y-103092500D03*
D13*
X155733750Y-103822500D02*
X157043752Y-102362500D01*
D12*
X162083750Y-101282500D03*
X162063750Y-101572500D03*
D13*
X162043750Y-101862500D02*
X162083750Y-101282500D01*
D12*
X137993750Y-102362500D03*
X137338751Y-103092500D03*
D13*
X136683750Y-103822500D02*
X137993752Y-102362500D01*
D12*
X143033750Y-101282500D03*
X143013750Y-101572500D03*
D13*
X142993750Y-101862500D02*
X143033750Y-101282500D01*
D12*
X118943750Y-102362500D03*
X118288751Y-103092500D03*
D13*
X117633750Y-103822500D02*
X118943752Y-102362500D01*
D12*
X123983750Y-101282500D03*
X123963750Y-101572500D03*
D13*
X123943750Y-101862500D02*
X123983750Y-101282500D01*
D12*
X99893750Y-102362500D03*
X99238751Y-103092500D03*
D13*
X98583750Y-103822500D02*
X99893752Y-102362500D01*
D12*
X104933750Y-101282500D03*
X104913750Y-101572500D03*
D13*
X104893750Y-101862500D02*
X104933750Y-101282500D01*
D12*
X176093750Y-83312500D03*
X175438751Y-84042500D03*
D13*
X174783750Y-84772500D02*
X176093752Y-83312500D01*
D12*
X181133750Y-82232500D03*
X181113750Y-82522500D03*
D13*
X181093750Y-82812500D02*
X181133750Y-82232500D01*
D12*
X157043750Y-83312500D03*
X156388751Y-84042500D03*
D13*
X155733750Y-84772500D02*
X157043752Y-83312500D01*
D12*
X162083750Y-82232500D03*
X162063750Y-82522500D03*
D13*
X162043750Y-82812500D02*
X162083750Y-82232500D01*
D12*
X137993750Y-83312500D03*
X137338751Y-84042500D03*
D13*
X136683750Y-84772500D02*
X137993752Y-83312500D01*
D12*
X143033750Y-82232500D03*
X143013750Y-82522500D03*
D13*
X142993750Y-82812500D02*
X143033750Y-82232500D01*
D12*
X118943750Y-83312500D03*
X118288751Y-84042500D03*
D13*
X117633750Y-84772500D02*
X118943752Y-83312500D01*
D12*
X123983750Y-82232500D03*
X123963750Y-82522500D03*
D13*
X123943750Y-82812500D02*
X123983750Y-82232500D01*
D12*
X99893750Y-83312500D03*
X99238751Y-84042500D03*
D13*
X98583750Y-84772500D02*
X99893752Y-83312500D01*
D12*
X104933750Y-82232500D03*
X104913750Y-82522500D03*
D13*
X104893750Y-82812500D02*
X104933750Y-82232500D01*
D12*
X80843750Y-83312500D03*
X80188751Y-84042500D03*
D13*
X79533750Y-84772500D02*
X80843752Y-83312500D01*
D12*
X85883750Y-82232500D03*
X85863750Y-82522500D03*
D13*
X85843750Y-82812500D02*
X85883750Y-82232500D01*
D12*
X176093750Y-64262500D03*
X175438751Y-64992500D03*
D13*
X174783750Y-65722500D02*
X176093752Y-64262500D01*
D12*
X181133750Y-63182500D03*
X181113750Y-63472500D03*
D13*
X181093750Y-63762500D02*
X181133750Y-63182500D01*
D12*
X157043750Y-64262500D03*
X156388751Y-64992500D03*
D13*
X155733750Y-65722500D02*
X157043752Y-64262500D01*
D12*
X162083750Y-63182500D03*
X162063750Y-63472500D03*
D13*
X162043750Y-63762500D02*
X162083750Y-63182500D01*
D12*
X137993750Y-64262500D03*
X137338751Y-64992500D03*
D13*
X136683750Y-65722500D02*
X137993752Y-64262500D01*
D12*
X143033750Y-63182500D03*
X143013750Y-63472500D03*
D13*
X142993750Y-63762500D02*
X143033750Y-63182500D01*
D12*
X118943750Y-64262500D03*
X118288751Y-64992500D03*
D13*
X117633750Y-65722500D02*
X118943752Y-64262500D01*
D12*
X123983750Y-63182500D03*
X123963750Y-63472500D03*
D13*
X123943750Y-63762500D02*
X123983750Y-63182500D01*
D12*
X99893750Y-64262500D03*
X99238751Y-64992500D03*
D13*
X98583750Y-65722500D02*
X99893752Y-64262500D01*
D12*
X104933750Y-63182500D03*
X104913750Y-63472500D03*
D13*
X104893750Y-63762500D02*
X104933750Y-63182500D01*
D12*
X80843750Y-64262500D03*
X80188751Y-64992500D03*
D13*
X79533750Y-65722500D02*
X80843752Y-64262500D01*
D12*
X85883750Y-63182500D03*
X85863750Y-63472500D03*
D13*
X85843750Y-63762500D02*
X85883750Y-63182500D01*
D12*
X195143750Y-45212500D03*
X194488751Y-45942500D03*
D13*
X193833750Y-46672500D02*
X195143752Y-45212500D01*
D12*
X200183750Y-44132500D03*
X200163750Y-44422500D03*
D13*
X200143750Y-44712500D02*
X200183750Y-44132500D01*
D12*
X176093750Y-45212500D03*
X175438751Y-45942500D03*
D13*
X174783750Y-46672500D02*
X176093752Y-45212500D01*
D12*
X181133750Y-44132500D03*
X181113750Y-44422500D03*
D13*
X181093750Y-44712500D02*
X181133750Y-44132500D01*
D12*
X157043750Y-45212500D03*
X156388751Y-45942500D03*
D13*
X155733750Y-46672500D02*
X157043752Y-45212500D01*
D12*
X162083750Y-44132500D03*
X162063750Y-44422500D03*
D13*
X162043750Y-44712500D02*
X162083750Y-44132500D01*
D12*
X137993750Y-45212500D03*
X137338751Y-45942500D03*
D13*
X136683750Y-46672500D02*
X137993752Y-45212500D01*
D12*
X143033750Y-44132500D03*
X143013750Y-44422500D03*
D13*
X142993750Y-44712500D02*
X143033750Y-44132500D01*
D12*
X118943750Y-45212500D03*
X118288751Y-45942500D03*
D13*
X117633750Y-46672500D02*
X118943752Y-45212500D01*
D12*
X123983750Y-44132500D03*
X123963750Y-44422500D03*
D13*
X123943750Y-44712500D02*
X123983750Y-44132500D01*
D12*
X99893750Y-45212500D03*
X99238751Y-45942500D03*
D13*
X98583750Y-46672500D02*
X99893752Y-45212500D01*
D12*
X104933750Y-44132500D03*
X104913750Y-44422500D03*
D13*
X104893750Y-44712500D02*
X104933750Y-44132500D01*
D12*
X80843750Y-45212500D03*
X80188751Y-45942500D03*
D13*
X79533750Y-46672500D02*
X80843752Y-45212500D01*
D12*
X85883750Y-44132500D03*
X85863750Y-44422500D03*
D13*
X85843750Y-44712500D02*
X85883750Y-44132500D01*
D14*
X77470000Y-122047000D03*
X80010000Y-122047000D03*
X82550000Y-122047000D03*
X85090000Y-122047000D03*
X87630000Y-122047000D03*
X90170000Y-122047000D03*
X92710000Y-122047000D03*
X95250000Y-122047000D03*
X97790000Y-122047000D03*
X100330000Y-122047000D03*
X102870000Y-122047000D03*
X105410000Y-122047000D03*
X105410000Y-137287000D03*
X102870000Y-137287000D03*
X100330000Y-137287000D03*
X97790000Y-137287000D03*
X95250000Y-137287000D03*
X92710000Y-137287000D03*
X90170000Y-137287000D03*
X87630000Y-137287000D03*
X85090000Y-137287000D03*
X82550000Y-137287000D03*
X80010000Y-137287000D03*
D15*
X77470000Y-137287000D03*
D16*
X79533750Y-49718502D02*
X79533750Y-65722500D01*
X79533750Y-46672500D02*
X79533750Y-49718502D01*
X79533750Y-65722500D02*
X79533750Y-84772500D01*
X79533750Y-101052500D02*
X79533750Y-103822500D01*
X79533750Y-84772500D02*
X79533750Y-101052500D01*
X87630000Y-122047000D02*
X87630000Y-119380000D01*
X79027748Y-103822500D02*
X79533750Y-103822500D01*
X77063749Y-105786499D02*
X79027748Y-103822500D01*
X77063749Y-108813749D02*
X77063749Y-105786499D01*
X87630000Y-119380000D02*
X77063749Y-108813749D01*
X98583750Y-62952500D02*
X98583750Y-65722500D01*
X98583750Y-46672500D02*
X98583750Y-62952500D01*
X98583750Y-65722500D02*
X98583750Y-84772500D01*
X98583750Y-101052500D02*
X98583750Y-103822500D01*
X98583750Y-84772500D02*
X98583750Y-101052500D01*
X98583750Y-112501880D02*
X98583750Y-103822500D01*
X90170000Y-120915630D02*
X98583750Y-112501880D01*
X90170000Y-122047000D02*
X90170000Y-120915630D01*
X117633750Y-46672500D02*
X117633750Y-65722500D01*
X117633750Y-65722500D02*
X117633750Y-84772500D01*
X117633750Y-84772500D02*
X117633750Y-103822500D01*
X117127748Y-103822500D02*
X117633750Y-103822500D01*
X100028249Y-120921999D02*
X117127748Y-103822500D01*
X93835001Y-120921999D02*
X100028249Y-120921999D01*
X92710000Y-122047000D02*
X93835001Y-120921999D01*
X136683750Y-46672500D02*
X136683750Y-65722500D01*
X136683750Y-65722500D02*
X136683750Y-84772500D01*
X136683750Y-101052500D02*
X136683750Y-103822500D01*
X136683750Y-84772500D02*
X136683750Y-101052500D01*
X92710000Y-137287000D02*
X100615750Y-129381250D01*
X136683750Y-106868502D02*
X136683750Y-103822500D01*
X114171002Y-129381250D02*
X136683750Y-106868502D01*
X100615750Y-129381250D02*
X114171002Y-129381250D01*
X155733750Y-62952500D02*
X155733750Y-65722500D01*
X155733750Y-46672500D02*
X155733750Y-62952500D01*
X155733750Y-82002500D02*
X155733750Y-84772500D01*
X155733750Y-65722500D02*
X155733750Y-82002500D01*
X155733750Y-101052500D02*
X155733750Y-103822500D01*
X155733750Y-84772500D02*
X155733750Y-101052500D01*
X96049999Y-136487001D02*
X96049999Y-134931251D01*
X95250000Y-137287000D02*
X96049999Y-136487001D01*
X96049999Y-134931251D02*
X100806250Y-130175000D01*
X114013662Y-130175000D02*
X133857412Y-110331250D01*
X100806250Y-130175000D02*
X114013662Y-130175000D01*
X133857412Y-110331250D02*
X142081250Y-110331250D01*
X142081250Y-110331250D02*
X145256250Y-113506250D01*
X145256250Y-113506250D02*
X151606250Y-113506250D01*
X151606250Y-113506250D02*
X152400000Y-112712500D01*
X152400000Y-106650248D02*
X151606250Y-105856498D01*
X152400000Y-112712500D02*
X152400000Y-106650248D01*
X153640248Y-103822500D02*
X155733750Y-103822500D01*
X151606250Y-105856498D02*
X153640248Y-103822500D01*
X174783750Y-62952500D02*
X174783750Y-65722500D01*
X174783750Y-46672500D02*
X174783750Y-62952500D01*
X174783750Y-101052500D02*
X174783750Y-103822500D01*
X174783750Y-65722500D02*
X174783750Y-84772500D01*
X174783750Y-84772500D02*
X174783750Y-103822500D01*
X97790000Y-137287000D02*
X97790000Y-134778750D01*
X97790000Y-134778750D02*
X101600000Y-130968750D01*
X101600000Y-130968750D02*
X117475000Y-130968750D01*
X117475000Y-130968750D02*
X117475000Y-129381250D01*
X132899991Y-113956259D02*
X171793741Y-113956259D01*
X117475000Y-129381250D02*
X132899991Y-113956259D01*
X174713751Y-103892499D02*
X174783750Y-103822500D01*
X174713751Y-111036249D02*
X174713751Y-103892499D01*
X171793741Y-113956259D02*
X174713751Y-111036249D01*
X193552760Y-45212500D02*
X195143750Y-45212500D01*
X189706250Y-53975000D02*
X189706250Y-49059010D01*
X187325000Y-56356250D02*
X189706250Y-53975000D01*
X187325000Y-106362500D02*
X187325000Y-56356250D01*
X100330000Y-137287000D02*
X100330000Y-134461250D01*
X100330000Y-134461250D02*
X103028750Y-131762500D01*
X103028750Y-131762500D02*
X136525000Y-131762500D01*
X136525000Y-131762500D02*
X153881231Y-114406269D01*
X153881231Y-114406269D02*
X179281231Y-114406269D01*
X189706250Y-49059010D02*
X193552760Y-45212500D01*
X179281231Y-114406269D02*
X187325000Y-106362500D01*
M02*
