M48
; DRILL file {KiCad (5.1.4)-1} date 3/17/2022 3:51:30 PM
; FORMAT={-:-/ absolute / inch / decimal}
; #@! TF.CreationDate,2022-03-17T15:51:30-07:00
; #@! TF.GenerationSoftware,Kicad,Pcbnew,(5.1.4)-1
FMAT,2
INCH
T1C0.0157
T2C0.0866
%
G90
G05
T1
X4.0625Y-1.375
X7.5913Y-3.5
X7.6103Y-3.4541
X7.6103Y-3.5459
X7.6562Y-3.435
X7.6562Y-3.565
X7.7022Y-3.4541
X7.7022Y-3.5459
X7.7212Y-3.5
X7.5913Y-2.0
X7.6103Y-1.9541
X7.6103Y-2.0459
X7.6562Y-1.935
X7.6562Y-2.065
X7.7022Y-1.9541
X7.7022Y-2.0459
X7.7212Y-2.0
X5.3413Y-2.0
X5.3603Y-1.9541
X5.3603Y-2.0459
X5.4062Y-1.935
X5.4062Y-2.065
X5.4522Y-1.9541
X5.4522Y-2.0459
X5.4712Y-2.0
X5.3413Y-3.5
X5.3603Y-3.4541
X5.3603Y-3.5459
X5.4062Y-3.435
X5.4062Y-3.565
X5.4522Y-3.4541
X5.4522Y-3.5459
X5.4712Y-3.5
X6.2163Y-5.3438
X6.2353Y-5.2978
X6.2353Y-5.3897
X6.2812Y-5.2788
X6.2812Y-5.4087
X6.3272Y-5.2978
X6.3272Y-5.3897
X6.3462Y-5.3438
T2
X7.6562Y-3.5
X7.6562Y-2.0
X5.4062Y-2.0
X5.4062Y-3.5
X6.2812Y-5.3438
T0
M30
