G04 #@! TF.GenerationSoftware,KiCad,Pcbnew,(5.1.4)-1*
G04 #@! TF.CreationDate,2022-03-17T15:51:27-07:00*
G04 #@! TF.ProjectId,Bottom Plate,426f7474-6f6d-4205-906c-6174652e6b69,rev?*
G04 #@! TF.SameCoordinates,Original*
G04 #@! TF.FileFunction,Copper,L1,Top*
G04 #@! TF.FilePolarity,Positive*
%FSLAX46Y46*%
G04 Gerber Fmt 4.6, Leading zero omitted, Abs format (unit mm)*
G04 Created by KiCad (PCBNEW (5.1.4)-1) date 2022-03-17 15:51:27*
%MOMM*%
%LPD*%
G04 APERTURE LIST*
%ADD10C,0.700000*%
%ADD11C,4.400000*%
%ADD12C,0.800000*%
G04 APERTURE END LIST*
D10*
X138485476Y-49633274D03*
X137318750Y-49150000D03*
X136152024Y-49633274D03*
X135668750Y-50800000D03*
X136152024Y-51966726D03*
X137318750Y-52450000D03*
X138485476Y-51966726D03*
X138968750Y-50800000D03*
D11*
X137318750Y-50800000D03*
D10*
X195635476Y-49633274D03*
X194468750Y-49150000D03*
X193302024Y-49633274D03*
X192818750Y-50800000D03*
X193302024Y-51966726D03*
X194468750Y-52450000D03*
X195635476Y-51966726D03*
X196118750Y-50800000D03*
D11*
X194468750Y-50800000D03*
D10*
X195635476Y-87733274D03*
X194468750Y-87250000D03*
X193302024Y-87733274D03*
X192818750Y-88900000D03*
X193302024Y-90066726D03*
X194468750Y-90550000D03*
X195635476Y-90066726D03*
X196118750Y-88900000D03*
D11*
X194468750Y-88900000D03*
D10*
X138485476Y-87733274D03*
X137318750Y-87250000D03*
X136152024Y-87733274D03*
X135668750Y-88900000D03*
X136152024Y-90066726D03*
X137318750Y-90550000D03*
X138485476Y-90066726D03*
X138968750Y-88900000D03*
D11*
X137318750Y-88900000D03*
D10*
X160710476Y-134564524D03*
X159543750Y-134081250D03*
X158377024Y-134564524D03*
X157893750Y-135731250D03*
X158377024Y-136897976D03*
X159543750Y-137381250D03*
X160710476Y-136897976D03*
X161193750Y-135731250D03*
D11*
X159543750Y-135731250D03*
D12*
X103187500Y-34925000D03*
M02*
