G04 #@! TF.GenerationSoftware,KiCad,Pcbnew,(5.1.4)-1*
G04 #@! TF.CreationDate,2022-03-17T14:52:41-07:00*
G04 #@! TF.ProjectId,TopPlate,546f7050-6c61-4746-952e-6b696361645f,rev?*
G04 #@! TF.SameCoordinates,Original*
G04 #@! TF.FileFunction,Profile,NP*
%FSLAX46Y46*%
G04 Gerber Fmt 4.6, Leading zero omitted, Abs format (unit mm)*
G04 Created by KiCad (PCBNEW (5.1.4)-1) date 2022-03-17 14:52:41*
%MOMM*%
%LPD*%
G04 APERTURE LIST*
%ADD10C,0.050000*%
%ADD11C,0.200000*%
G04 APERTURE END LIST*
D10*
X164143296Y-130463229D02*
X177665996Y-134087479D01*
X181290096Y-120564729D02*
X177665996Y-134087479D01*
X167767396Y-116940529D02*
X164143296Y-130463229D01*
X167767396Y-116940529D02*
X181290096Y-120564729D01*
X232658750Y-50795350D02*
X232660750Y-31736950D01*
X99216450Y-142076250D02*
X99274700Y-31805500D01*
X213567750Y-50767950D02*
X213525000Y-50825600D01*
X213525000Y-107975000D02*
X213525000Y-50825600D01*
X198527750Y-142075250D02*
X213525000Y-107975000D01*
X99274700Y-31805500D02*
X232660750Y-31736950D01*
X99216450Y-142076250D02*
X198527750Y-142075250D01*
X232658750Y-50795350D02*
X213567750Y-50767950D01*
D11*
X172876996Y-86483029D02*
X172876996Y-72483729D01*
X115727196Y-34384229D02*
X101727646Y-34384229D01*
X172876996Y-67433029D02*
X172876996Y-53433729D01*
X120777696Y-48383029D02*
X134776996Y-48383029D01*
X158877696Y-67433029D02*
X172876996Y-67433029D01*
X172876996Y-72483729D02*
X158877696Y-72483729D01*
X120777696Y-53433729D02*
X120777696Y-67433029D01*
X196976296Y-34384229D02*
X196976296Y-48383029D01*
X191926996Y-48383029D02*
X191926996Y-34384229D01*
X139827696Y-86483029D02*
X153826996Y-86483029D01*
X134776996Y-86483029D02*
X134776996Y-72483729D01*
X153826996Y-72483729D02*
X139827696Y-72483729D01*
X172876996Y-48383029D02*
X172876996Y-34384229D01*
X139827696Y-67433029D02*
X153826996Y-67433029D01*
X101727646Y-48383029D02*
X115727196Y-48383029D01*
X153826996Y-86483029D02*
X153826996Y-72483729D01*
X139827696Y-72483729D02*
X139827696Y-86483029D01*
X158877696Y-53433729D02*
X158877696Y-67433029D01*
X139827696Y-34384229D02*
X139827696Y-48383029D01*
X134776996Y-67433029D02*
X134776996Y-53433729D01*
X120777696Y-86483029D02*
X134776996Y-86483029D01*
X153826996Y-34384229D02*
X139827696Y-34384229D01*
X153826996Y-67433029D02*
X153826996Y-53433729D01*
X139827696Y-53433729D02*
X139827696Y-67433029D01*
X134776996Y-53433729D02*
X120777696Y-53433729D01*
X172876996Y-53433729D02*
X158877696Y-53433729D01*
X153826996Y-48383029D02*
X153826996Y-34384229D01*
X115727196Y-48383029D02*
X115727196Y-34384229D01*
X134776996Y-34384229D02*
X120777696Y-34384229D01*
X153826996Y-53433729D02*
X139827696Y-53433729D01*
X191926996Y-34384229D02*
X177927696Y-34384229D01*
X210976996Y-34384229D02*
X196976296Y-34384229D01*
X177927696Y-48383029D02*
X191926996Y-48383029D01*
X158877696Y-48383029D02*
X172876996Y-48383029D01*
X134776996Y-48383029D02*
X134776996Y-34384229D01*
X172876996Y-34384229D02*
X158877696Y-34384229D01*
X139827696Y-48383029D02*
X153826996Y-48383029D01*
X101727646Y-34384229D02*
X101727646Y-48383029D01*
X158877696Y-86483029D02*
X172876996Y-86483029D01*
X158877696Y-72483729D02*
X158877696Y-86483029D01*
X120777696Y-34384229D02*
X120777696Y-48383029D01*
X120777696Y-67433029D02*
X134776996Y-67433029D01*
X177927696Y-34384229D02*
X177927696Y-48383029D01*
X158877696Y-34384229D02*
X158877696Y-48383029D01*
X177927696Y-53433729D02*
X177927696Y-67433029D01*
X162889196Y-115634129D02*
X159264696Y-129156829D01*
X149366496Y-112009929D02*
X162889196Y-115634129D01*
X216025996Y-48383029D02*
X230026996Y-48383029D01*
X199690996Y-125494029D02*
X186168296Y-121871129D01*
X177927696Y-72483729D02*
X177927696Y-86483029D01*
X191926996Y-86483029D02*
X191926996Y-72483729D01*
X196976296Y-86483029D02*
X210976996Y-86483029D01*
X182544196Y-135393859D02*
X196068296Y-139018099D01*
X177927696Y-86483029D02*
X191926996Y-86483029D01*
X210976996Y-48383029D02*
X210976996Y-34384229D01*
X196976296Y-72483729D02*
X196976296Y-86483029D01*
X191926996Y-67433029D02*
X191926996Y-53433729D01*
X177927696Y-67433029D02*
X191926996Y-67433029D01*
X210976996Y-53433729D02*
X196976296Y-53433729D01*
X196068296Y-139018099D02*
X199690996Y-125494029D01*
X210976996Y-67433029D02*
X210976996Y-53433729D01*
X191926996Y-53433729D02*
X177927696Y-53433729D01*
X210976996Y-72483729D02*
X196976296Y-72483729D01*
X159264696Y-129156829D02*
X145741996Y-125534029D01*
X196976296Y-48383029D02*
X210976996Y-48383029D01*
X196976296Y-67433029D02*
X210976996Y-67433029D01*
X230026996Y-34384229D02*
X216025996Y-34384229D01*
X145741996Y-125534029D02*
X149366496Y-112009929D01*
X186168296Y-121871129D02*
X182544196Y-135393859D01*
X196976296Y-53433729D02*
X196976296Y-67433029D01*
X210976996Y-86483029D02*
X210976996Y-72483729D01*
X191926996Y-72483729D02*
X177927696Y-72483729D01*
X230026996Y-48383029D02*
X230026996Y-34384229D01*
X216025996Y-34384229D02*
X216025996Y-48383029D01*
X159264696Y-129156829D02*
X162889196Y-115634129D01*
X191926996Y-86483029D02*
X191926996Y-72483729D01*
X134776996Y-86483029D02*
X134776996Y-72483729D01*
X139827696Y-91533729D02*
X139827696Y-105533029D01*
X115727196Y-67433029D02*
X115727196Y-53433729D01*
X172876996Y-34384229D02*
X158877696Y-34384229D01*
X101727646Y-53433729D02*
X101727646Y-67433029D01*
X162889196Y-115634129D02*
X149366496Y-112009929D01*
X210976996Y-72483729D02*
X196976296Y-72483729D01*
X158877696Y-34384229D02*
X158877696Y-48383029D01*
X210976996Y-86483029D02*
X210976996Y-72483729D01*
X191926996Y-72483729D02*
X177927696Y-72483729D01*
X134776996Y-72483729D02*
X120777696Y-72483729D01*
X149366496Y-112009929D02*
X145741996Y-125534029D01*
X158877696Y-48383029D02*
X172876996Y-48383029D01*
X153826996Y-105533029D02*
X153826996Y-91533729D01*
X101727646Y-67433029D02*
X115727196Y-67433029D01*
X196976296Y-86483029D02*
X210976996Y-86483029D01*
X120777696Y-72483729D02*
X120777696Y-86483029D01*
X196976296Y-72483729D02*
X196976296Y-86483029D01*
X153826996Y-91533729D02*
X139827696Y-91533729D01*
X172876996Y-48383029D02*
X172876996Y-34384229D01*
X139827696Y-105533029D02*
X153826996Y-105533029D01*
X177927696Y-86483029D02*
X191926996Y-86483029D01*
X120777696Y-86483029D02*
X134776996Y-86483029D01*
X115727196Y-53433729D02*
X101727646Y-53433729D01*
X145741996Y-125534029D02*
X159264696Y-129156829D01*
X177927696Y-72483729D02*
X177927696Y-86483029D01*
X139827696Y-34384229D02*
X139827696Y-48383029D01*
X115727196Y-48383029D02*
X115727196Y-34384229D01*
X172876996Y-67433029D02*
X172876996Y-53433729D01*
X158877696Y-86483029D02*
X172876996Y-86483029D01*
X158877696Y-67433029D02*
X172876996Y-67433029D01*
X210976996Y-91533729D02*
X196976296Y-91533729D01*
X210976996Y-105533029D02*
X210976996Y-91533729D01*
X153826996Y-34384229D02*
X139827696Y-34384229D01*
X177927696Y-53433729D02*
X177927696Y-67433029D01*
X158877696Y-53433729D02*
X158877696Y-67433029D01*
X216025996Y-34384229D02*
X216025996Y-48383029D01*
X230026996Y-34384229D02*
X216025996Y-34384229D01*
X115727196Y-86483029D02*
X115727196Y-72483729D01*
X210976996Y-67433029D02*
X210976996Y-53433729D01*
X101727646Y-72483729D02*
X101727646Y-86483029D01*
X134776996Y-91533729D02*
X120777696Y-91533729D01*
X196976296Y-53433729D02*
X196976296Y-67433029D01*
X120777696Y-105533029D02*
X134776996Y-105533029D01*
X230026996Y-48383029D02*
X230026996Y-34384229D01*
X134776996Y-105533029D02*
X134776996Y-91533729D01*
X115727196Y-72483729D02*
X101727646Y-72483729D01*
X139827696Y-86483029D02*
X153826996Y-86483029D01*
X120777696Y-53433729D02*
X120777696Y-67433029D01*
X120777696Y-67433029D02*
X134776996Y-67433029D01*
X216025996Y-48383029D02*
X230026996Y-48383029D01*
X172876996Y-91533729D02*
X158877696Y-91533729D01*
X101727646Y-86483029D02*
X115727196Y-86483029D01*
X139827696Y-48383029D02*
X153826996Y-48383029D01*
X115727196Y-34384229D02*
X101727646Y-34384229D01*
X101727646Y-48383029D02*
X115727196Y-48383029D01*
X134776996Y-53433729D02*
X120777696Y-53433729D01*
X139827696Y-72483729D02*
X139827696Y-86483029D01*
X134776996Y-67433029D02*
X134776996Y-53433729D01*
X153826996Y-48383029D02*
X153826996Y-34384229D01*
X101727646Y-34384229D02*
X101727646Y-48383029D01*
X120777696Y-91533729D02*
X120777696Y-105533029D01*
X158877696Y-72483729D02*
X158877696Y-86483029D01*
X172876996Y-53433729D02*
X158877696Y-53433729D01*
X196976296Y-67433029D02*
X210976996Y-67433029D01*
X153826996Y-86483029D02*
X153826996Y-72483729D01*
X196976296Y-48383029D02*
X210976996Y-48383029D01*
X196976296Y-34384229D02*
X196976296Y-48383029D01*
X210976996Y-34384229D02*
X196976296Y-34384229D01*
X196976296Y-105533029D02*
X210976996Y-105533029D01*
X191926996Y-53433729D02*
X177927696Y-53433729D01*
X172876996Y-72483729D02*
X158877696Y-72483729D01*
X196976296Y-91533729D02*
X196976296Y-105533029D01*
X153826996Y-72483729D02*
X139827696Y-72483729D01*
X191926996Y-67433029D02*
X191926996Y-53433729D01*
X158877696Y-91533729D02*
X158877696Y-105533029D01*
X210976996Y-53433729D02*
X196976296Y-53433729D01*
X177927696Y-67433029D02*
X191926996Y-67433029D01*
X172876996Y-105533029D02*
X172876996Y-91533729D01*
X172876996Y-86483029D02*
X172876996Y-72483729D01*
X158877696Y-105533029D02*
X172876996Y-105533029D01*
X101727646Y-105533029D02*
X115727196Y-105533029D01*
X101727646Y-86483029D02*
X115727196Y-86483029D01*
X120777696Y-72483729D02*
X120777696Y-86483029D01*
X210976996Y-105533029D02*
X210976996Y-91533729D01*
X177927696Y-105533029D02*
X191926996Y-105533029D01*
X191926996Y-91533729D02*
X177927696Y-91533729D01*
X172876996Y-105533029D02*
X172876996Y-91533729D01*
X158877696Y-105533029D02*
X172876996Y-105533029D01*
X139827696Y-105533029D02*
X153826996Y-105533029D01*
X153826996Y-91533729D02*
X139827696Y-91533729D01*
X115727196Y-91533729D02*
X101727646Y-91533729D01*
X139827696Y-91533729D02*
X139827696Y-105533029D01*
X134776996Y-105533029D02*
X134776996Y-91533729D01*
X115727196Y-86483029D02*
X115727196Y-72483729D01*
X177927696Y-91533729D02*
X177927696Y-105533029D01*
X172876996Y-91533729D02*
X158877696Y-91533729D01*
X196976296Y-105533029D02*
X210976996Y-105533029D01*
X158877696Y-91533729D02*
X158877696Y-105533029D01*
X134776996Y-72483729D02*
X120777696Y-72483729D01*
X196976296Y-91533729D02*
X196976296Y-105533029D01*
X210976996Y-91533729D02*
X196976296Y-91533729D01*
X153826996Y-105533029D02*
X153826996Y-91533729D01*
X134776996Y-91533729D02*
X120777696Y-91533729D01*
X101727646Y-91533729D02*
X101727646Y-105533029D01*
X120777696Y-105533029D02*
X134776996Y-105533029D01*
X191926996Y-105533029D02*
X191926996Y-91533729D01*
X115727196Y-105533029D02*
X115727196Y-91533729D01*
X120777696Y-91533729D02*
X120777696Y-105533029D01*
X199690996Y-125494029D02*
X186168296Y-121871129D01*
X191926996Y-91533729D02*
X177927696Y-91533729D01*
X191926996Y-105533029D02*
X191926996Y-91533729D01*
X177927696Y-105533029D02*
X191926996Y-105533029D01*
X139827696Y-53433729D02*
X139827696Y-67433029D01*
X120777696Y-34384229D02*
X120777696Y-48383029D01*
X101727646Y-91533729D02*
X101727646Y-105533029D01*
X177927696Y-48383029D02*
X191926996Y-48383029D01*
X210976996Y-48383029D02*
X210976996Y-34384229D01*
X196068296Y-139018099D02*
X199690996Y-125494029D01*
X101727646Y-72483729D02*
X101727646Y-86483029D01*
X115727196Y-72483729D02*
X101727646Y-72483729D01*
X115727196Y-67433029D02*
X115727196Y-53433729D01*
X101727646Y-67433029D02*
X115727196Y-67433029D01*
X186168296Y-121871129D02*
X182544196Y-135393859D01*
X101727646Y-53433729D02*
X101727646Y-67433029D01*
X191926996Y-48383029D02*
X191926996Y-34384229D01*
X134776996Y-34384229D02*
X120777696Y-34384229D01*
X115727196Y-53433729D02*
X101727646Y-53433729D01*
X182544196Y-135393859D02*
X196068296Y-139018099D01*
X191926996Y-34384229D02*
X177927696Y-34384229D01*
X153826996Y-53433729D02*
X139827696Y-53433729D01*
X120777696Y-48383029D02*
X134776996Y-48383029D01*
X134776996Y-48383029D02*
X134776996Y-34384229D01*
X115727196Y-91533729D02*
X101727646Y-91533729D01*
X177927696Y-34384229D02*
X177927696Y-48383029D01*
X139827696Y-67433029D02*
X153826996Y-67433029D01*
X115727196Y-105533029D02*
X115727196Y-91533729D01*
X101727646Y-105533029D02*
X115727196Y-105533029D01*
X153826996Y-67433029D02*
X153826996Y-53433729D01*
X177927696Y-91533729D02*
X177927696Y-105533029D01*
M02*
